<?xml version="1.0" encoding="utf-8"?>
<!-- Generator: Adobe Illustrator 19.0.0, SVG Export Plug-In . SVG Version: 6.00 Build 0)  -->
<svg version="1.1" id="Layer_1" xmlns="http://www.w3.org/2000/svg" xmlns:xlink="http://www.w3.org/1999/xlink" x="0px" y="0px"
	 viewBox="-63 65 128 128" enable-background="new -63 65 128 128" xml:space="preserve">
<path fill="none" stroke="#000000" stroke-miterlimit="10" d="M42.5,133.7c0,5.2-1.7,10.1-4.6,14.4c-1.8,2.6-4.1,5-6.7,7.1
	c-3.1,2.5-6.8,4.6-10.9,6.1c-5.5,2.1-11.7,3.3-18.4,3.3c-3.9,0-7.6-0.4-11.2-1.2c-6.6-1.5-12.6-4.2-17.4-7.8c-3.3-2.5-6-5.4-8-8.6
	c-2.5-4-4-8.6-4-13.4c0-2.9,0.5-5.6,1.5-8.3c0.2-0.5,0.4-1.1,0.6-1.6c0.6-1.3,1.3-2.6,2.1-3.8c1.2-1.8,2.6-3.6,4.2-5.2
	c0.8-0.8,1.7-1.6,2.7-2.4c2-1.6,4.2-3.1,6.6-4.3c1.7-0.9,3.5-1.7,5.3-2.4c1.8-0.6,3.6-1.2,5.5-1.7c1.6-0.4,3.3-0.7,5.1-0.9
	c2.3-0.3,4.6-0.5,7-0.5c3.1,0,6.1,0.3,9,0.8c6.8,1.2,12.9,3.7,18,7.1c4.4,3,8,6.8,10.4,11c0.9,1.7,1.7,3.4,2.2,5.3
	C42.1,129.1,42.5,131.4,42.5,133.7z"/>
</svg>
