<?xml version="1.0" encoding="utf-8"?>
<!-- Generator: Adobe Illustrator 19.0.0, SVG Export Plug-In . SVG Version: 6.00 Build 0)  -->
<svg version="1.1" id="Layer_1" xmlns="http://www.w3.org/2000/svg" xmlns:xlink="http://www.w3.org/1999/xlink" x="0px" y="0px"
	 viewBox="-63 65 128 128" enable-background="new -63 65 128 128" xml:space="preserve">
<path fill="none" stroke="#000000" stroke-miterlimit="10" d="M-33.4,133.4c5-2.8-0.8-10.9,4-18.9s10.2-3,19-9.1S7.1,83.1,15.5,80.5
	s15.4-5.6,19-3.5s6.4,4.1,6.4,8.2s-6.5,15.9-8.6,17.9s-8.8,10.9-9.8,13.8s-2.2,10.8,0.1,15.5c2.4,4.8,10,8,10.1,11.5
	s1.1,8.8-4.6,11.8s-8.2,4.5-10.4,7.2s-3.4,7-12,8.1s-32.8,5.8-41.5,1.9s-8.5-5.4-11.1-7.1C-54.6,160.6-44.3,139.4-33.4,133.4z"/>
</svg>
