<?xml version="1.0" encoding="utf-8"?>
<!-- Generator: Adobe Illustrator 18.1.1, SVG Export Plug-In . SVG Version: 6.00 Build 0)  -->
<!DOCTYPE svg PUBLIC "-//W3C//DTD SVG 1.1//EN" "http://www.w3.org/Graphics/SVG/1.1/DTD/svg11.dtd">
<svg version="1.1" id="Layer_1" xmlns="http://www.w3.org/2000/svg" xmlns:xlink="http://www.w3.org/1999/xlink" x="0px" y="0px"
	 viewBox="0 0 560 560" enable-background="new 0 0 560 560" xml:space="preserve">
<path fill="#C69C6D" stroke="#FFFFFF" stroke-miterlimit="10" d="M61.9,227.8C53,263.8,29.4,410.6,256,413.1
	c226.6,2.5,258.6-79.8,261.6-103.9c3-24.1,7.4-85.2,0-102.5c-7.4-17.2-104.9-59.1-235-57.6S70.7,191.9,61.9,227.8z"/>
<path fill="#E9D1E7" d="M289.1,144.1c-46.4-2.1-121.8,3.9-187.3,34.5c-33.7,15.7-48.3,40.9-53.5,63.3c-4.8,21.1-1.2,39.7,2.7,45.6
	c1.9,2.8,9.7,7.4,22.2,12.7c7,3,15.6,6.2,25.4,9.5c7.7,2.6,16.3,5.2,25.6,7.8c8.2,2.3,16.9,4.5,26.1,6.6c8.2,1.9,16.8,3.7,25.8,5.3
	c8.6,1.6,17.5,3.1,26.6,4.4c9.3,1.3,18.8,2.5,28.5,3.4c9,0.9,18.2,1.6,27.6,2.1c8.2,0.4,16.5,0.7,24.9,0.8c8.4,0.1,16.9,0,25.4-0.3
	c9.1-0.3,18-0.9,26.5-1.7c10.7-1.1,21-2.5,30.8-4.3c9-1.6,17.5-3.5,25.7-5.7c8.4-2.2,11.8-3.1,19.4-5.7c8.1-2.8,14.7-5,21.9-8.1
	c8.6-3.8,16.4-7.1,23.7-11.1c8.6-4.8,13.1-6.9,19.9-11.8c6.3-4.6,13.6-9.2,18.4-13.6c6-5.5,11.1-9.2,14.8-13.8
	c5.8-7.4,16.8-16.3,19.1-25c2.2-8.6,1.2-38-20.8-52.9C481.5,167.6,421.4,150,289.1,144.1z"/>
<linearGradient id="SVGID_1_" gradientUnits="userSpaceOnUse" x1="284.2857" y1="200.7488" x2="284.2857" y2="225.9331">
	<stop  offset="0" style="stop-color:#424242;stop-opacity:0"/>
	<stop  offset="1" style="stop-color:#000000;stop-opacity:0.4"/>
</linearGradient>
<path fill="url(#SVGID_1_)" d="M209.7,200.7c0,0,9.4,29.6,72.9,24.6c63.5-4.9,74.4-20.2,76.4-24.6"/>
</svg>
