<?xml version="1.0" encoding="utf-8"?>
<!-- Generator: Adobe Illustrator 16.0.0, SVG Export Plug-In . SVG Version: 6.00 Build 0)  -->
<!DOCTYPE svg PUBLIC "-//W3C//DTD SVG 1.1 Basic//EN" "http://www.w3.org/Graphics/SVG/1.1/DTD/svg11-basic.dtd">
<svg version="1.1" baseProfile="basic" id="Layer_1"
	 xmlns="http://www.w3.org/2000/svg" xmlns:xlink="http://www.w3.org/1999/xlink" x="0px" y="0px" width="260px" height="397px"
	 viewBox="0 0 260 397" xml:space="preserve">
<g>
	<path fill-rule="evenodd" clip-rule="evenodd" fill="#525252" d="M5.1,163c-0.9-4.9-2.2-9.9,3.7-13c2-1.1,1.4-3.6,1.4-5.5
		c0-10.4-0.4-20.9,0-31.3c0.5-12.4,3.3-24.3,8.9-35.4c0.5-0.4,1.1-0.4,1.7,0c1.9,1.9,0.7,3.8,0.1,5.7c-1.4,1.9-2.5,3.8-2.3,6.3
		c0.1,1.5-0.2,3-0.7,4.4c-2.7,6.7-3.6,13.6-3,20.8c-1.6,6.9-0.5,14-0.5,21c0,1.8-0.3,3.9,0.8,5.6c0.6-3.8,0.2-7.8,0.8-11.3
		c1.8-9.9,0.9-20,3-29.8c0.6-2.9,2.1-4.5,5.2-2.4c0.8,2,0.3,4.1,0.5,6.1c-0.4,7.1,0.3,14.2-0.9,21.3c-0.4,2.6-0.3,5.2-1.5,7.7
		c-1.1,2.2-0.8,4.9-0.2,7.3c0.9,3.1,2.7,5,6.2,3.4c3.3-2.3,6.9-4.2,9.4-7.5c1.4-1.8,3.5-2.8,5.8-3.3c8.3,0.6,16.6,2,24.9,1.5
		c1.3-0.1,2.7-0.1,3.7,0.9c0.4,0.5,0.5,1.1,0.3,1.7c-2.7,3.5-6.9,1.8-10.2,3.1c-5.2,1.4-7.3,1.2-11.8-1c1.2,0.5,2.6,0.9,2.5,2.4
		c0,2.7,1.1,4.4,3.6,5.4c1.4,0.6,1.9,1.8,1.7,3.3c-0.3,1.6-1.4,2.3-2.9,2.2c-3.8-0.3-7.3,1.3-10.9,2c-4.5,0.1-9.2-0.5-12.5,3.9
		c-0.3,0.4-0.6,0.9-0.8,1.3c-1.3,1.3-2.2,3-4.2,3.3c-1.1-0.1-1.9-0.7-2.4-1.7c-1.7-4.5-6.3-5.9-10.1-3C11.7,160.2,8.4,161.7,5.1,163
		z"/>
	<path fill-rule="evenodd" clip-rule="evenodd" fill="#818181" d="M18.3,267.8c-2.6-3.7-4.4-7.7-5.5-12.2
		c-1.9-7.8-5.7-14.8-9.5-21.8c-0.9-6.3-2.2-12.6,0-19c1-2.4,0.8-4.6-0.6-7c-2.7-4.3-1-9.3-1.5-14c0.4-0.4,0.9-0.6,1.5-0.5
		c0.5,0.1,1,0.3,1.4,0.7c1.4,1.1,1.1,2.7,1.3,4.1c0.4,2.6,0.9,4.8,4.4,4.9c2,0,3,1.9,3.8,3.6c1.3,6.7-1,12.9-2.4,19.3
		c-1.7,7.2,0.3,11.8,6.7,16c1.2,0.8,2.5,1.7,2.8,3.3c-0.5,5.8,0.3,11.6,0.1,17.4c-0.1,1.8,0.5,3.7-0.9,5.2
		C19.3,268.2,18.8,268.2,18.3,267.8z"/>
	<path fill-rule="evenodd" clip-rule="evenodd" fill="#3F3F3F" d="M5.1,163c0.7-2.4-0.2-5.9,4.3-5.1c1.5,0.2,2-1.5,2.9-2.4
		c2.2-2.2,5.3-2.7,7.8-1.6c2.5,1.1,6.6,1.4,6,6c-2.1,1.6-2,4-2.6,6.2c-1.3,4-0.9,8.5-2.9,12.4c-3.1,7.4-2.4,15.5-4.8,23
		c-0.3,1.1-0.2,2.3-1.1,3.2c-4.2,0.5-4.5-2.7-5.1-5.6c-0.1-0.5-0.2-1.1-0.3-1.6c0.7-6.6,2.2-13.1,2.8-19.7c-0.2-0.7-0.3-1.5-0.9-2
		C8.3,172,3.2,169.1,5.1,163z"/>
	<path fill-rule="evenodd" clip-rule="evenodd" fill="#797979" d="M11.2,175.9c0.4,0.3,0.7,0.6,1.1,0.9c-1.2,5.5,3.8,11.2-0.4,16.8
		c-0.7,0.9-0.6,2.9,0.3,4.2v0c0.7,3,0.9,6,0,9c-0.5-0.4-1-0.8-1.6-1.1c-2-1.1-4.9,1.1-6.4-1.3c-1.8-2.9-1.9-6.2-2-9.5
		c0.1-0.1,0.3-0.2,0.4-0.2c1.1-0.5,1.6,0.7,2.5,0.8c-0.4-1.7-1.5-1.8-3-1.6c-0.4,0-0.7,0-1.1,0c-1.5-3.6-1.1-7.4-1.1-11.1
		c0-4,2.3-5.9,6.5-5.3C8.2,177.6,10.5,179.2,11.2,175.9z"/>
	<path fill-rule="evenodd" clip-rule="evenodd" fill="#949494" d="M18.3,267.8c0.3,0,0.7,0,1,0c3.4,0.8,2.3,3.5,2.2,5.6
		c-0.1,9.8-1.5,19.8,4.8,28.5c2.8,3.9,3.9,8.8,6.4,12.9c0.9,1.5,1.9,3,2.9,4.4c1,1.5,1.9,3.1-0.3,4.5c-3-2.3-4.6-6-8.1-7.7
		c-1.3-0.7-1.7-2.4-1.3-4c0.6-2.5-0.2-4.9-1.9-6.4c-5.7-4.8-4.5-11.4-4.7-17.6c-0.1-2.3,0.2-4.7-1.8-6.4
		C15.3,277,14.5,272.2,18.3,267.8z"/>
	<path fill-rule="evenodd" clip-rule="evenodd" fill="#7D7D7D" d="M20.1,77.7c-0.3,0-0.6,0-1,0c-0.2-3.6,2.1-6.3,3.9-9
		c3.5-5.4,4.8-12,9.2-17c1.5-3.6,4.9-5.8,6.9-9c2-3.9,5.3-6.8,8-10.1c0.7-0.3,1.3-0.6,2-1c2.5-1.6,4.5-4.4,8-3.9
		c1.1,1.7-0.3,2.7-1.3,3.3c-5.1,3.3-8,8.2-11.1,13.2c-2.6,4.2-6.1,7.8-9.6,11.3c-4.1,4.1-5.4,10.2-8.4,15.2
		C25.1,73.5,24.8,77.8,20.1,77.7z"/>
	<path fill-rule="evenodd" clip-rule="evenodd" fill="#A1A1A1" d="M39.2,42.8c-1.4,3.7-4.4,6.2-6.9,9C33.1,47.7,36.1,45.2,39.2,42.8
		z"/>
	<path fill-rule="evenodd" clip-rule="evenodd" fill="#333333" d="M240.3,72.7c0.7,1.7,1.4,3.4,2,5.1c1.1,1.6,2,3.4,2,5.4
		c0.7,2.4,1.8,4.6,1.5,7.2c-0.2,1.4-0.2,2.7-1.8,3.2c-1.4,0.5-2.6-0.1-3.6-1c-3.8-3.2-6.3-7.5-7.4-12.1c-1.2-4.6-3.4-7.2-7.7-8.4
		c-0.6-0.4-1-1-1.3-1.6c-0.6-5.4-5.2-8.3-8-12.2c-3.9-5.4-10.3-7.7-15.3-11.8c-3.8-2.7-8.4-3-12.6-4.4c-2.6-0.9-3.8,1.8-4,3.9
		c-0.3,3-1.8,3.7-4.6,4.6c-11,3.6-22.4,0.5-33.5,2.8c-4.5-1.7-9.4-0.7-14-2.1c-1.7-0.6-3.5-1-3.9-3.2c0-0.6,0.2-1.2,0.5-1.7
		c1.6-1.3,3.5-1.4,5.4-0.8c7.1,2.4,14.3,1.6,21.6,1.1c5.6-0.4,10.9-1.8,16.3-3.2c2.7-0.7,5.3-1.8,6.8-4c2.9-4.1,6.4-6.1,11.5-4.5
		c0.6,0.2,1.3-0.1,2-0.2c7.3,2.8,14.7,5.5,21,10.4c2.2,1.7,4.6,3.3,6.9,5c-1.8-4.9-5.9-8.1-9.4-11.4c-5.2-5-10.5-10-17.3-13.2
		c-2.9-1.4-6.5-0.2-8.9-2.7c-10.3-8.2-22.4-12.2-35.1-14.2c-5.9-0.9-11.8-1.8-17.8-2.1c-16.5-0.9-31.8,3.2-46.4,10.8
		c-6.2,3.2-12.1,6.8-18.1,10.3c-2.2,0.3-3.9-1-5.8-1.7c-0.4-0.4-0.7-0.9-0.7-1.5c1.3-3.4,5-2.5,7.5-3.9C77,15.2,85.7,9.5,95.8,6.8
		c7.8-2.1,15.3-6,23.4-5.7c8.6,0.3,17.1-0.9,25.9,1.4c8.2,2.1,16.6,3.6,24.8,6.1c4.8,1.5,8.6,4.7,13.1,6.6c4.9,2.2,9.6,5.1,14.5,7.5
		c9.7,4.7,17.3,11.9,24.4,19.9c5.2,5.9,8.5,12.9,12.6,19.4C236.6,65.6,238.2,69.3,240.3,72.7z"/>
	<path fill-rule="evenodd" clip-rule="evenodd" fill="#8E8E8E" d="M240.3,72.7c-4.8-4.1-7.1-9.9-9.8-15.2
		c-5.1-10.2-12.6-18.2-21-25.6c-9-7.9-20.5-11.4-30.4-17.8c-7.5-4.9-15.9-7.1-24.2-8.7c-9.1-1.9-18.4-3.2-28-3.3
		c-11.5-0.1-21.9,3.2-32.5,6.4c-9.5,2.8-17.8,8.1-26.1,13.2c-2.2,1.4-4.2,2.5-6.9,2.4c-0.8-3.7,3.1-1.5,4-3.2
		c0.3-0.4,0.6-0.7,0.9-1.1c8.4-4.3,16.5-9.7,25.3-12.7c10.8-3.7,21.9-6.9,33.8-7.1c15.5-0.3,30,3,44.3,7.8
		c6.2,2.1,11.9,5.8,17.7,8.9c3.5,1.9,6.8,4.3,10.8,5.1c15.3,8.6,26.8,20.8,35,36.3C235.8,62.9,239.9,66.9,240.3,72.7z"/>
	<path fill-rule="evenodd" clip-rule="evenodd" fill="#808080" d="M243.3,83.8c-0.3-2-0.6-4-1-6c4.2,3.4,4.8,8.6,5.7,13.3
		c2.3,11.8,4.2,23.7,2.3,35.9c-0.4,2.6-0.4,5.3,1,7.8c1.4,1.8-0.4,3.1-0.7,4.6c-0.9,4.4-1.2,8.8,0,13.2c0.4,1.7,0.5,3.6-0.3,5.4
		c-3.1,0.2-3.6-2-3.6-4.2c0.1-12.4-0.5-24.7-0.2-37.1c0.1-4.7-0.9-9.3-1-13.9c-0.1-4.1-1.1-8.2-0.5-12.4
		C245.5,88,244.7,85.7,243.3,83.8z"/>
	<path fill-rule="evenodd" clip-rule="evenodd" fill="#A5A5A5" d="M250.2,157.8c-0.4-7.8-1.9-15.6,1.1-23.1c1,0.1,1.7,0.9,1.3,1.6
		c-4,8.1-1.2,16.4-0.5,24.6c-0.4,0.3-0.9,0.3-1.4,0.2C249.7,160.2,249.4,159.1,250.2,157.8z"/>
	<path fill-rule="evenodd" clip-rule="evenodd" fill="#595959" d="M251.4,160.6c0.3,0.1,0.5,0.2,0.8,0.3c0,2,0.1,3.9,0.1,5.9
		c-0.1,0.3-0.1,0.6-0.1,0.8c-0.4,0.9-1.5,1.7-1.4,2.6c0.5,5-2.9,5.9-6.6,6.6c-0.6-0.1-1.1-0.3-1.5-0.6c-2.5-4.5,2.1-6,3.7-8.8
		c1.9-1.1,2.3-3,2.8-4.9C249.7,161.7,250.2,160.8,251.4,160.6z"/>
	<path fill-rule="evenodd" clip-rule="evenodd" fill="#232323" d="M61.2,24.8c2,0,4,0,6,0c1.3,3.2-1.7,3.5-3.2,4.5
		c-13.1,8.1-22.6,19.5-30.3,33c2.6-0.6,4.8-2.3,6.7,0.4c0.5,1.4,0,2.6-0.7,3.8c-3.4,5.7-7.5,10.9-11.7,16c-1.3,1.5-2.6,3-4.3,3.9
		c-1.3,0.7-2.8,1.6-4.3,0.3c-1.5-1.3-1-2.6-0.1-4c0.3-1.7,0.6-3.4,0.9-5.1c8-14.5,16-29.1,27.4-41.4c3-3.2,6.6-5.5,9.7-8.6
		c0.1-0.3,0.3-0.5,0.3-0.8c0.3-0.3,0.6-0.7,0.9-1C59,24.5,59.9,24.1,61.2,24.8z"/>
	<path fill-rule="evenodd" clip-rule="evenodd" fill="#868686" d="M72.4,136.7c-0.1-0.3-0.1-0.5-0.2-0.8c-2-0.9-4.1-1.4-6.1-1
		c-4.4,0.8-8.6,0.1-12.8-1.3c-2-0.6-4.1-0.1-6.2,0.1c-6.6-2.1-9-9.7-3.8-15.4c4.7-5.1,6.8-10.7,7.8-17.3c0.5-3.6,2.3-6.8,5.6-8.7
		c2.8-1.6,4.1-4.4,6-6.7c4.3-5.5,9.9-9.1,16-12.1c0.5-0.2,0.9-0.4,1.4-0.6c1.6-1,3.1-0.8,4.8-0.1c3.6,1.5,6.9-2.2,9.8-1.3
		c2.9,0.9,4.9,4.4,8.7,3.9c2-0.2,3.6,0.7,4.5,2.5c1.8,3.7,4.8,6.5,6.6,10.2c1.8,3.5,2.8,7.2,4.1,10.9c0.5,1.3,0.4,2.9-0.3,4.2
		c-2.6,4.6-0.7,8.7,4.4,9.2c1.7,0.2,3.2,0.1,4.3,1.6c3.4,4.8,8.9,6.7,13.4,9.9c3.7,2.7,5,5.9,5.2,10c0.2,4.1-2,6.2-5.4,8.3
		c-4.6,2.9-8.7,3-13.6,1.1c-4.5-1.8-8.9-1.5-11.7,3.4c-1.8,0.2-2.9-0.8-3.8-2.2c-0.3-1-0.4-2,0.1-2.9c2.7-4.2,0.5-7.5-0.7-11.8
		c-1.9-7.1-8.6-8.6-11.9-13.7c-1.9-2.9-7.5-2.3-11.1-3.9c-0.3-0.2-1.2,0-1.8-0.1c-3.3-0.6-7.3-0.8-7.4-5.4c-0.1-4.6,4.5-9.1,8.6-9.5
		c4.7-0.5,9,0,12.3,3.7c0.9,1.1,2,1.2,3,0.4c1.3-1,3.1-1.6,3.4-3.4c0.2-1.1-0.9-1.1-1.7-1.3c-5.8-1.7-9-5.7-9.9-11.7
		c-0.4-2.7-4.4-5-6.8-3c-3.8,3.1-8.5,3.6-12.4,5.8c-1.5,0.8-2.8,1.8-4.1,2.9c-1.2,1.1-3.4,2-2.3,3.9c0.9,1.6,2.7,0,4.1-0.4
		c3.7-1,7,0.4,8.1,3.6c1.3,3.8-1.7,4.9-4.2,6.2c-1.6,0.8-3.4,1.4-5.2,1.7c-9,1.4-12.9,8.3-16,15.4c-1.9,4.4-0.9,5.4,4,6.9
		c2.9,2.2,6.1,3.1,9.7,2.9c2.1-0.1,4.3-0.1,6.3,0.9c2.3,1.2,4.6,1.2,6.9,0c1.8-1,3.8-0.6,5.8-0.2c0.6,0,1.2,0.1,1.7,0.1
		c2.2,0.1,3.3,1.2,3.3,3.4c-0.7,2.3-2.9,2.6-4.8,3.5c-2.8,0-5.5-0.8-8.2-0.7c-1.4,0-2.8,0-4.2-0.1C74.6,138.2,73.1,138.4,72.4,136.7
		z"/>
	<path fill-rule="evenodd" clip-rule="evenodd" fill="#0C0C0C" d="M21.2,163.8c1-2.1,2.3-3.9,5-3.9c0.4,0.6,0.7,1.3,1.1,1.9
		c3.9-0.7,6.1,3.3,9.6,3.6c3.7,1.5,7.7-0.6,11.4,1c2.3,0.5,2.5,2.4,2.4,4.2c-0.1,3.9,1.7,7.6,1.3,11.6c-0.1,1.3,1.3,1.8,1.8,2.8
		c0.4,0.8,0.7,1.8,1.7,2.2c1.5-0.1,3,1,4.4,0.5c5-1.7,5.4,1.4,5.4,4.9c0,2.3-0.1,4.5,0.1,6.8c0.1,2.2,0.8,2.8,2.8,1.6
		c2.7-0.1,3.1,1.8,3.5,3.9c1.8,9.5,2.2,9.6,11.9,9.6c2.7,0,6.3-2.6,8.4,1.6c-1.9,5.7-7.5,6.6-11.9,8.2c-9.3,3.4-19.1,4.9-29.2,3.1
		c-2.5-0.5-4.8-1.3-6.9-2.7c-3.7-3.2-6.2-7-5.9-12.2c0.1-2.2,0.5-4.3-0.8-6.4c-0.8-1.4-0.8-3,0.3-4.2c2.6-2.8,1.8-5.8,0.9-8.9
		c-1.3-4.4-2.8-8.7-6.4-11.8c-1.5-1.3-3.3-2.5-5.4-1.1c-1.7,1.3-1.8,3-0.8,4.9c0.8,1.5,0.7,3.2,0.8,4.9c-0.7,3.7,1.3,7.4,0,11.2
		c-0.8,1.6-2.1,2.2-3.9,1.8c-5.6-5.5-5.5-12.1-3.9-19c0.1-0.6,0-1.3,0.2-1.9C20.5,176,18.5,169.6,21.2,163.8z"/>
	<path fill-rule="evenodd" clip-rule="evenodd" fill="#6A6A6A" d="M30.3,146.8c-2.1,1.4-4.9,0.8-7,2.3c-1.8,1.3-2.4-0.7-2.5-1.9
		c-0.3-3-0.7-6-0.4-8.9c1.3-11.1,3.3-22.2,2.9-33.5c-0.6-9.8,3.3-18,9-25.6c1.3-1.7,1.8-3.9,2.7-5.9c4.6-6,8.6-12.4,13.9-17.9
		c5.6-5.8,11.5-10.8,19.7-12.2c4.4-2,9-0.4,12.9,0.6c9.4,2.5,19,2.3,28.5,3.4c4.4,0.5,8.6,1.3,12.4,3.8c5.2,3.4,11,4.2,17,4.4
		c2,0,4.4-0.8,6,1.3c-1.1,4.3-4.5,5.3-8.3,5.7c-5.2,1.2-9.1-0.6-13.7-3.4c-5.2-3.2-10.6-8.6-18.2-6c-1.2,0.4-2.6-0.4-3.9-0.7
		c-3.4-1.5-6.9-1.9-10.7-1.3c-3,0.5-5.9-1.5-9.1-0.8c-2.1,0.5-4,1.2-4.5,3.3C74,65.2,64.8,71.3,55.6,77.3
		c-5.4,3.5-11.1,6.6-16.7,9.9c-3.7,2.1-5,5.7-6.6,9.1c-0.8,1.7-1.5,3.6-2.3,5.3c-1.6,3.7-2.5,7.3-2.4,11.6
		c0.1,5.9-0.8,11.9-2.6,17.7c-0.9,2.9,1.6,5.4,0.4,8.5c-1.4,3.6,2,4.7,4.4,6.1C30.1,145.7,30.2,146.3,30.3,146.8z"/>
	<path fill-rule="evenodd" clip-rule="evenodd" fill="#737373" d="M30.3,146.8c-1.2,0-2.3,0-3.5,0c-4.9-0.3-5.6-1.4-4.7-6.3
		c1.5-8.9,3.7-17.7,3.9-26.6c0.1-7.9,3.1-14.7,5.3-21.9c2.1-7,8.6-8.8,13.6-11.4c8.1-4.2,15.1-9.6,22.3-14.8c3.9-2.8,6.1-7.8,7-12.9
		c0.6-3.4,2.4-6,5.9-5.5c6.1,0.8,12.1,1.9,18.2,1.7c1,0,2,1.1,2.9,1.7c-0.2,0.9-1,1.4-1.6,2c-2.4,0.9-5,0.3-7.4,1
		c-0.6,0.2-1.3,0.3-2,0.3c-4.2-0.2-4.5,0.2-2.8,3.7c2.1,4.4,1.7,4.6-2.5,7.1c-7.6,4.7-16.1,8-23.1,13.5c-6.3,5-12.2,11-16.3,18.2
		c-2.4,4.2-5,8.2-10.7,8.8c-3.1,0.3-5.6,5.7-5.2,8.9c0.4,3.6,0.7,7.3,0.6,10.9c-1.7,8.4,0.6,10.8,8.9,8.8c1.6-0.4,2.9-0.5,3.9,1
		c0.1,0.2,0.1,0.5,0.2,0.7C39,139.5,33.7,142,30.3,146.8z"/>
	<path fill-rule="evenodd" clip-rule="evenodd" fill="#3D3D3D" d="M19.2,82.8c2.9,4.9,5.3,1.2,7-0.8c4.3-5.2,8.1-10.7,12.1-16.1
		c0.4-0.4,0.8-0.4,1.3-0.1c1.1,3.9-3.2,5.2-3.9,8.2c-2.7,6.8-8.6,11.6-11.1,18.6c-0.6,1.8,0.6,4-1.4,5.3c-2.5,3.1-2.4,7.1-3,10.7
		c-2,12.2-2.8,24.6-1.9,36.9c0.3,3.4-1,4.6-4.2,4.3c0.8-9.9-0.1-19.7-0.3-29.6c0-1.9,0.2-4-1.7-5.4c-1.5-9.9,3.2-18.9,4.5-28.4
		C17,84.9,18,83.8,19.2,82.8z"/>
	<path fill-rule="evenodd" clip-rule="evenodd" fill="#F3F3F3" d="M35.3,167.8c-3-1.6-6.1-2.9-8-6c0.3-1.5,0.8-2.9,2-3.9
		c1.5-1.9,3-1.3,4.8-0.3c4.3,2.5,7.7,1.9,11.5-1.7c2.2-2.1,4.6-3.2,7.6-1.9c0.5,0.2,0.9,0.4,1.4,0.6c0.4,0.3,0.8,0.7,1,1.2
		c0.1,0.5,0.2,1,0.3,1.5c0.6,1.8-0.8,2.9-1.5,4.2c-2.6,1.8-3.4,5.8-7.4,5.8C43.1,168.6,39.2,169.9,35.3,167.8z"/>
	<path fill-rule="evenodd" clip-rule="evenodd" fill="#484848" d="M54,156c-0.3,0-0.5-0.1-0.8-0.3c-2.3-2.4-4.7-0.9-7.1-0.3
		c-1.3-0.4-1.9-1.3-1.9-2.7c3.6-1.8,7.6-1.7,11.9-2.5c-1.7-3.1-4.6-1.9-7.1-3c2.5-4.7,2.4-8.4-4.3-9.6c5.7-0.4,11.2,1.5,16.6,0.1
		c0.4,2.2,0.9,4,2.9,5.7c3.1,2.5,1,9.8-3,10.7C58.7,154.7,56.4,155.6,54,156z"/>
	<path fill-rule="evenodd" clip-rule="evenodd" fill="#303030" d="M12.2,114.8c0.3-0.6,0.6-1.2,0.8-1.8c0.4-1.3,0.7-2.8,2.5-2.2
		c1.6,0.5,1.6,2.1,1.4,3.4c-0.6,3.5-0.6,6.9-0.8,10.4c-0.4,6.4,1.1,12.6,1.1,18.9c0,2.7-0.5,5-3,6.4c-1.5-0.8-1.9-2.2-2-3.8
		c-0.3-9.4,0.5-18.9-0.7-28.3C11.4,116.8,12,115.8,12.2,114.8z"/>
	<path fill-rule="evenodd" clip-rule="evenodd" fill="#383838" d="M54,156c0.4-1.1,0.8-2.2,1.9-2.7l6.8-7c1.1-1.8-0.4-2.4-1.5-2.9
		c-3.8-1.9-2.9-3.7,0-5.6c3.7-0.4,7.4-0.7,11.1-1.1c1.3,0.1,2.6,0.2,3.8,0.2c0.6,0.5,0.9,1.1,0.9,1.9c-0.8,2.5-3.1,2-5,2.3
		c-3.6,0.6-4.5,2.7-2.1,5.4c1.5,1.7,4,3.2,2.4,5.8c-1.4,2.5-4.2,2.9-7,2.9c-3.2,0-6.3,0-9.4,1.1C55.4,156.6,54.7,156.3,54,156
		L54,156z"/>
	<path fill-rule="evenodd" clip-rule="evenodd" fill="#535353" d="M23.2,97.8c-1.5-3.9,0.3-7.3,2.2-10.3c3-4.7,6.5-9.1,9.8-13.7
		c0.3-0.4,0.7-0.4,1,0c-0.5,1.6-0.7,3.4-1.7,4.6c-6,7.9-9.6,16.7-11.4,26.4C23.2,102.5,23.2,100.1,23.2,97.8z"/>
	<path fill-rule="evenodd" clip-rule="evenodd" fill="#686868" d="M46.3,154.9c2.5-1.1,5-1.7,7,0.9c-2.7-0.9-4.9-0.8-6.9,1.9
		c-3.9,5.2-7.2,5.6-12.7,2.1c-1.4-0.9-2.6-2-4.4-1.9c0-0.4,0-0.7,0-1.1C34.8,155.4,40.3,153.3,46.3,154.9z"/>
	<path fill-rule="evenodd" clip-rule="evenodd" fill="#6E6E6E" d="M47.3,132.8c0.6-0.2,1.3-0.7,1.9-0.6c7.7,0.8,15.5,1.6,23,3.7
		c-9.6,0.8-19.2-1.3-28.9-0.1c0,0-0.1-0.1-0.1-0.1C42.6,132.1,45.5,133.3,47.3,132.8z"/>
	<path fill-rule="evenodd" clip-rule="evenodd" fill="#3F3F3F" d="M46.3,154.9c-5.6,1.3-11.2,2.9-17,1.9c4.3-4.1,9.7-3.9,15-4
		C44.9,153.5,45.6,154.2,46.3,154.9z"/>
	<path fill-rule="evenodd" clip-rule="evenodd" fill="#666666" d="M12.3,206.8c0-3,0-6,0-9c0.6,2.4,1.3,4.7,1.9,7.1
		c0.2,0.1,0.5,0.3,0.7,0.4c1.6,2.8,0.5,5.8,0.8,8.8c0.5,4.2,0.2,8.4,2.2,12.3c0.7,1.3,0.9,2.8,0.2,3.9c-2.7,4.5-0.9,8.1,1.9,11.6
		c0.2,0.6,0.2,1.1,0.1,1.7c-0.2,0.6-0.6,1-1.1,1.3c-2.4-1.8-4.8-3.6-7.2-5.1c-4.7-2.9-4.8-7.1-4.1-11.2c0.7-3.7,0.8-7.7,3.4-11.1
		C13.5,214.6,12,210.4,12.3,206.8z"/>
	<path fill-rule="evenodd" clip-rule="evenodd" fill="#4C4C4C" d="M19.1,244.9c0.1-0.4,0.1-0.8,0.2-1.1c3.2-0.1,3,2.5,3.1,4.4
		c0.3,12.9,3.6,25.6,2,38.7c-0.5,4.1-0.2,9,3.9,12.3c1.8,1.4,2.8,3.7,3.3,6c0.4,2.1,1.1,4.1,1.7,6.2c0.5,1.6,0.9,3.2-0.9,4.4
		c-0.4,0-0.8,0.1-1.2,0.1c-8.1-13.4-13.6-27.5-11.2-43.7c0.2-1.4-0.4-2.9-0.6-4.4C19.4,260.2,17.7,252.6,19.1,244.9z"/>
	<path fill-rule="evenodd" clip-rule="evenodd" fill="#575757" d="M2.2,193.8c0.5-1.7-1.1-4.7,1.8-4.7c2.4,0,3.2,2.7,3.1,5
		c0,2.8,0.8,5.9-1.8,9c-1.2-3.1-2.1-5.7-3.1-8.2C2.3,194.5,2.3,194.1,2.2,193.8z"/>
	<path fill-rule="evenodd" clip-rule="evenodd" fill="#313131" d="M20.2,181.9c-0.2,6.8-0.2,13.7,3,20c1.5,1,2.8,2.2,3.5,4.1
		c1.5,4.4,4.4,7.7,8.6,10c1.7,0.9,3.4,2,4,4.1c0.6,2.5,2.3,3.6,4.6,4.6c1.8,0.8,3.7,2.2,2.1,4.8c-0.4,0.4-0.8,0.7-1.4,0.9
		c-5,1.3-7.6-2.8-11.2-4.7c-2.6-1.9-5.4-3.4-7.5-5.9c-4.3-2.5-4.9-7.3-7.1-11.2c-0.3-1-0.8-1.9-1.8-2.3c-1.2,0-2.1-0.6-2.9-1.4
		c0,0,0,0,0,0c0.3-9.3,1.2-18.4,5-27.1C20.4,179,19.1,180.7,20.2,181.9z"/>
	<path fill-rule="evenodd" clip-rule="evenodd" fill="#666666" d="M12.2,197.8c-1.1-2-1.5-4.2-0.5-6.2c2.6-4.9,0.6-7.7-3.9-9.7
		c-1.2-0.5-2.2-1.2-3.3-1.8c1.6-3.8,7.5,3.4,7.6-3.4C15.2,183.8,13.8,190.8,12.2,197.8z"/>
	<path fill-rule="evenodd" clip-rule="evenodd" fill="#121212" d="M20.2,181.9c-0.3-1.3-0.7-2.7-1-4c0.5-4.7-1.3-9.7,2-14
		C19.9,169.7,20.3,175.8,20.2,181.9z"/>
	<path fill-rule="evenodd" clip-rule="evenodd" fill="#101010" d="M32.4,315.8c-1-3-2.1-6-3.1-8.9c-2.5-5.2-5.3-10.2-5.5-16.2
		c-0.1-1.8-0.3-3.4,1.7-4.1c1.8-0.7,3.3,0.1,4.1,1.8c1.5,3.2,3.7,5.8,6.4,8.2c1.9,1.7,3.5,2.5,6.1,0.9c3.8-2.3,5.8-1,5.8,3.7
		c0,3,0,5.9,2.5,8c0.3,0.7,0.4,1.4,0.6,2c0.2,0.6,0.7,1.3,0.5,1.9c-1.9,7,4.2,8.5,7.8,11.8c1.2,1.1,2.1,0.4,2.9-0.6
		c1.1-1.4,2.7-2.9,3.1-4.4c1.3-5.3,5.2-4.6,8.6-3.8c2,0.5,4.2,0.7,6.1,1.6c3.5,4.3,7.2,7.5,13.1,8.9c3.8,0.9,6.6,5.7,9.1,9.4
		c0.7,0.9,0.5,1.9,0.5,2.9c0,7.3,2.5,9,10.2,8.2c2.8-0.3,5.4-0.9,8.1-1.8c3.4-1.1,6.8-1.7,10.4,0.7c6.4,4.1,10.4,3.2,14.6-3.1
		c4-6,9.7-9.9,15.1-14.4c3.1,0,6.2,0.5,8.9-1.9c1.4-1.3,2.7-2.3,2.8-4.3c0.1-2.4,1.6-4.5,2.9-6.2c1.8-2.2,4.5-3.5,7.4-1.2
		c2.8,2.2,6.4,3.5,6.1,8.5c-0.1,2.8,4.2,3.5,7.4,1.5c5.9-7.2,12.9-13.6,14.6-23.5c0.6-3.8,4.2-5.4,7.5-6.5c1.9-0.6,3.6,0.2,4.5,2.2
		c1.7,3.6,2.2,7.2,0.8,11c-1,2.8-2.4,5.4-3.3,8.2c0,0.5,0,1,0,1.6c0,0.8-0.3,1.5-0.8,2.1c-0.4,0.3-0.8,0.6-1.2,0.9
		c-1,0.7-1.7,1.7-2.5,2.6c-2.9,4.9-7.8,8.1-11.1,12.5c-3.7,5.1-8.1,9.5-12.3,14.1c-0.8,0.9-1.5,1.8-2.8,1.6
		c-2.7-1.1-3.1-3.3-2.5-5.8c0.5-2.1,0.6-4.2-0.9-5.7c-3.1-3-4.1-6.7-4.2-9.8c0.2,1-0.4,2.9-0.8,4.8c-0.8,3.9-2.6,4.7-6,2.8
		c-5.2-2.9-12-0.1-12.8,5.5c-0.6,4.1-3.1,6.3-6.8,7c-4.8,0.9-8.4,3.5-12.2,6.3c-4.7,3.4-10.5,2.5-15.6,0.7c-3.5-1.2-6.4-2.5-9.6,0.4
		c-1.4,1.3-3,0.9-4.4-0.5c-3.1-2.9-7-3.8-11.1-4.1c-2.6-0.2-4.7-1.1-5.2-3.9c-1.1-6.9-6-9.4-12.2-10c-3.8-0.3-5.7-2.2-6.5-5.7
		c-0.3-1.1-0.7-2.2-1.2-3.3c-0.8-1.6-1.8-2.9-3.7-3c-2-0.1-2.2,1.6-2.9,2.9c-2.2,4.1-5.4,7.5-7.8,11.5c-2,3.4-5.9,2.3-7.6-1.8
		c-0.2-0.6-0.4-1.2-0.6-1.9c-0.9-5.4-1-5.3-5.7-2.6c-2.6,0.7-2.7-2.5-4.6-3c-1.9-0.6-2-2.5-2.8-3.9
		C37.9,325.3,36.4,319.5,32.4,315.8z"/>
	<path fill-rule="evenodd" clip-rule="evenodd" fill="#131313" d="M39.3,62.8c-2.2,0.8-4.2,1.8-5.3,4.2c-1,1.9-3.2,2.4-4.7,1.3
		c-2.3-1.5,0.2-2.8,0.8-4.1c3.7-6.9,7.5-13.6,12.7-19.6c7-8.2,14.7-15.3,24.5-19.8c5-3.8,10.7-6.4,16-9.6c7.1-4.3,15-6,22.7-8.5
		c10.2-3.3,20.6-3.3,31.1-2.3c11,1,21.9,2.5,32.1,6.6c6.1,2.4,12.2,5.1,17.1,9.8c4.2,1.3,7.2,5.1,11.7,6c1.8,0.4,3.2,2,2.7,4.2
		c-0.5,2.4-2.4,3-4.5,3c-0.8,0-1.8,0-2.4-0.5c-4.2-3.2-9-2.5-13.7-2.1c-3.1,0.2-5.9,0.7-7.1,4.3c-0.7,2-2.6,2.4-4.5,2.2
		c-3.8-0.4-7.2,0.6-10.3,2.7c-1.5,1-3.3,1.6-5.2,1.6c-4,0-5.8-1.9-5.6-5.8c0.4-7.2-0.2-8-7.3-8.9c-3.8-0.5-6.9-2-9.7-4.7
		c-3.2-3.1-7.1-3.2-9.9,0.4c-4.6,5.8-10.6,7.3-17.5,6.8c-0.9-0.1-2.1-0.3-2.8,0c-6.2,2.4-12.5,0.8-18.7,0.5C78,30,74.3,31.7,72,33.6
		c-4.6,3.7-10.2,6.1-14.2,10.6C52.6,50,46.2,54.7,42.3,61.7C41.5,62.5,40.7,63.7,39.3,62.8z"/>
	<path fill-rule="evenodd" clip-rule="evenodd" fill="#1F1F1F" d="M56.2,43.8c0.2-2.2,1.6-3.6,3.5-4.5c3.7-1.6,6.5-4.5,9.7-6.6
		c3.8-2.6,8.4-5.5,14-4.3c5,1,10.1,1.7,15.2-0.3c4.1-1.6,8.5,0,12.8-1c3.4-0.8,5.7-2.3,7.5-5.1c3.8-6.1,9.8-6.4,13.9-0.7
		c1.5,2,3.6,2.9,5.9,3.3c2,0.4,4,0.5,5.9,0.9c6.4,1.1,6.4,1.1,5.6,7.7c-0.2,2-1.6,4.5,0.8,5.9c2.3,1.4,4.4-0.1,6.5-1.3
		c3.1-1.9,6.1-4,10.1-2.6c2.5,0.9,2.8-0.6,2.4-2.7c-0.5-3.5,1.2-4.7,4.4-3.5c2.6,0.9,5.2,0.6,7.9,0.4c4.1-0.4,8.2-1.6,12,1.5
		c1.2,1,3.1,1,3.8-0.7c0.8-2-0.8-2.6-2.4-2.8c-4.4-0.5-6.2-4.7-9.7-6.5c10.7,3,19.5,9.3,27.2,16.9c4.3,4.3,8.8,8.6,11.6,14.2
		c0.6,1.1,2.1,2.2,0.8,3.5c-1.3,1.4-2.8,0.3-4-0.5c-2.3-1.6-4.8-3-6.8-5c-6.3-6.1-15-8-21.8-13c-1.4-1.2-3.3-1.2-4.9-1.8
		c-3.2-1.3-6-0.6-7.9,2.4c-2.6,4.1-6.4,6.3-11.2,6.4c-2.9,0-4.9,2.3-7.7,2.6c-9.1,1.2-18,1.6-27-0.8c-3.3-0.9-6.9-1.7-10.4-2.3
		c-5-0.9-6.4-3.2-4.9-7.9c0.6-2.1,1.2-4.2,1.8-6.2c0-0.1,0-0.3-0.1-1c-2.8,1.3-4.9,3.4-7.4,4.8c-3.1,1.6-6.1,3.5-9.6,0.9
		c-1-0.8-2.4-0.5-3.5-0.1c-6.3,2.4-12.5,1.4-18.6-0.6c-3.7-1.2-4.4,2.4-6.7,3.2c-1.2,0.3-2.2,1-3.4,1.2c-4,1.5-7.3,4.5-11.4,5.8
		C59,43.7,57.8,45.2,56.2,43.8z"/>
	<path fill-rule="evenodd" clip-rule="evenodd" fill="#242424" d="M74.2,34.8c2.9-3.4,5.6-5.8,10.6-2.9c2.1,1.3,5.5,0.6,8.3,0.5
		c9.2-0.5,19.1,1.6,26.2-7c1.1-1.3,2.9-1.7,4.6-1.8c1.2-0.1,2.4,0.2,3,1.4c0.7,1.3-0.1,2.2-1.1,2.9c-3.6,2.4-3.3,6.7-4.6,10.2
		c-0.6,1.7,0.7,3,2.2,3.3c3.3,0.7,6.5,3.1,10,0.6c1.2-0.9,2.6-0.5,3.6,0.6c2.7,3.3,6.3,3.6,10,3c3.7-0.5,7.2,2,10.8,0.6
		c2.3-0.9,4.6-1.9,6.4-3.8c1.5-1.6,3.1-2.3,5.4-1.5c3.7,1.4,6.7-0.3,7.6-3.6c1.5-5.6,5.1-5.2,9.2-4.2c2.6,0.6,5.2,1.3,6.9,3.7
		c-5.2-1.1-8.9,0.4-13.2,4.1c-5.5,4.7-12.3,8.1-20.4,7.2c-3.5-0.4-7.2,0.6-10.8,0.7c-6.6,0.3-13.2,0.3-19.6-2
		c-1.6,0.8-3.5,1.3-4.7,0c-2.9-3.2-7.2-2.9-10.7-4.3c-3.7-1.5-7.9-1.2-11.6-2.9c-1-0.5-2-0.3-2.8,0.3c-2,1.4-4.2,1-6.2,0.4
		c-5.6-1.7-11.3-3.1-17.1-4C75.2,36,74.6,35.6,74.2,34.8z"/>
	<path fill-rule="evenodd" clip-rule="evenodd" fill="#404040" d="M251.4,160.6c-0.1,1.1-0.2,2.1-0.3,3.2c-3.3,0.7-3.6-2.2-4.9-4
		c0-0.5,0-1,0.1-1.5c0.2-1.2,0.6-2.5,0.2-3.7c-2.6-7.5-3-15.1-1.8-21.4c0.3,3.8-0.9,8.9-2.6,13.9c-0.6,1.7-1,3.6-3,4.3
		c-1.2,0.3-2.3,0-3.1-0.9c-0.6-0.8-0.6-1.6-0.3-2.5c3.2-4.6,1.3-10,1.7-14.9c0.7-9.1,2.3-18.4,0.1-27.7c-0.7-2.8-1.5-5.7-2.9-8.1
		c-3.8-7-5.3-14.9-9-22c-0.8-1.6-1.2-3.2,0.5-4.5c0.5,0.1,1.2,0.4,1.4,0.2c4.5-4.5,6.3-0.2,6.5,2.8c0.4,7.3,4.7,12.3,9,18.1
		c1.9-3,0.4-5.6,0.1-8.1c4.1,4.4,3.7,10.2,4.5,15.4c1,7.5,1,15.1,1.1,22.7c0.1,11.9-2.9,24.1,1.4,35.9
		C250.6,158.8,251,159.7,251.4,160.6z"/>
	<path fill-rule="evenodd" clip-rule="evenodd" fill="#343434" d="M74.2,34.8c5.4-0.1,10.6,1,15.7,2.2c3.4,0.8,6.8,1.9,9.9-0.8
		c1.2-1,2.5-0.7,3.4,0.7c1.5,2.2,3.8,2.5,6.1,2.7c7.3,0.6,13.7,3.5,19.8,7.2c0,0.3,0,0.7,0,1c-3.9,1.9-7.6-0.8-11.4-0.9
		c-4.3,0-8.6-1.5-12.6-3c-1.8-0.7-3.2-0.7-5,0.4c-2.8,1.7-6.1,1.6-9,0c-3.6-2.1-7.5-3.1-11.5-3.9c-4.2-0.8-7.9-0.5-11.1,2.6
		c-2,2-4.7,2.2-7.4,2.6c-4.5,2-7.4,5.9-10.8,9.1c-1.4,1.3-2.4,3.2-4.5,3.6c-0.5-0.1-0.9-0.4-1.1-0.8c2.5-5.8,7.5-9.5,12.3-13.2
		c4.4-3.3,9.8-5.3,14.3-8.6C72.2,35.5,73.2,35.2,74.2,34.8z"/>
	<path fill-rule="evenodd" clip-rule="evenodd" fill="#4E4E4E" d="M202.2,45.8c8.7,4.6,15.4,11.3,21.3,18.9c1.2,1.5,1.7,3.2,1.7,5.1
		c-0.4,0.4-0.8,0.6-1.4,0.6c-1.6-0.4-2.5-1.7-3.6-2.9c-5.5-3.9-9.4-9.3-13.9-14.2c-4-4.4-12.9-5.3-17.7-1.6c-4.2,3.3-9,5.4-14.6,4.4
		c-8.4-1.6-16.9-1-25.4-0.5c-4.5,0.3-8.9-0.1-13.4,0.8c-3.4,0.7-9.1-3.7-9.3-6.3c1-1,2.1-1.1,3.2-0.5c5,2.5,10.4,2.6,15.8,2.7
		c0.5-0.1,1.1-0.1,1.7-0.1c7.1-1.4,14.2-1.2,21.4-0.9c4.4,0.1,8.7-0.9,12.9-1.6c1.9-0.3,2.9-1.2,2.6-3.3c-0.6-4.1,2.9-4.6,5.4-6.2
		c2.6-1.6,4.5-0.5,6.2,1.1C197.3,43.3,200.3,43.7,202.2,45.8z"/>
	<path fill-rule="evenodd" clip-rule="evenodd" fill="#5C5C5C" d="M224.2,69.8c0.3,0,0.7,0,1,0c0.3,0.3,0.6,0.7,1,1
		c3.2,8.2,6,16.5,9.6,24.5c3,6.5,4.8,13.1,4.4,20.2c-0.6,9.6-1.9,19.1-1.2,28.8c0.1,1.7-0.6,3.2-1.9,4.5c-1.7-1-2.8-2.6-3.7-4.3
		c-0.2-0.5-0.3-1.1-0.3-1.6c2.5-7.5,0.8-15.5,2.2-23.1c0.2-0.9,0.1-2.2-0.2-3.4c-1.6-6.6-2.5-13.3-4.7-19.8c-1.5-4.5-1-9.6-3.5-13.9
		c-0.9-3.8-3.5-7-4.1-11C223,70.8,223.4,70.2,224.2,69.8z"/>
	<path fill-rule="evenodd" clip-rule="evenodd" fill="#414141" d="M145.2,52.8c-4.5,1.9-9,1-13.4-0.6c-1.9-0.6-3.6-1.5-5.6-1.5
		c-2.3,1.7-4.1-0.1-6.1-0.7c-1.7-0.5-3.4-1.3-5.2-1.4c-6-0.6-11.9-2.3-17.9-2.3c-5.6,0-10.9-0.8-15.9-3c-0.5-0.1-1-0.2-1.5-0.3
		c-3.4-1.2-6.7-2.5-9.9,0.5c-0.7,0.3-1.4,0.7-2.1,1c-2.5,1.1-4.9,2.2-7.4,0.2c3.5-1.1,6.8-2.4,9.3-5.3c1.6-1.9,4-2.1,6.5-1.6
		c5,1,10.1,1.8,14.7,4.4c3.1,1.8,6.3,2.3,9.4,0.1c2.7-1.9,5.5-0.6,7.6,0.2c5.5,2.2,11.1,3,16.9,3.6c1.6,0.2,3.1,1.1,4.7,1.7
		c1,0.7,2,1.3,3,2C136.6,50.6,141.3,50.3,145.2,52.8z"/>
	<path fill-rule="evenodd" clip-rule="evenodd" fill="#414141" d="M202.2,45.8c-2.4-1.2-4.8-2.2-7.1-3.6c-4.6-2.8-9.3-0.8-10.1,4.6
		c-0.4,2.7-1.7,3.6-4.1,4.2c-4.9,1.2-9.9,1-14.9,0.8c-6.7-0.2-13.3,0.6-19.9,1c-0.7-0.3-0.7-0.7,0-1c7.1-1.6,14.3-1,21.4-0.9
		c4.1,0.1,7.8-1.1,11.7-2.1c1.9-0.5,2.5-1.8,3-3.5c1.9-5.7,7.8-7.9,12.7-4.7C197.5,42.2,200.6,43.1,202.2,45.8z"/>
	<path fill-rule="evenodd" clip-rule="evenodd" fill="#343434" d="M146.2,51.8c0,0.3,0,0.7,0,1c-0.3,0-0.7,0-1,0
		c-4.5-0.1-8.7-2-13-3C137,49.6,141.8,49.8,146.2,51.8z"/>
	<path fill-rule="evenodd" clip-rule="evenodd" fill="#202020" d="M236.3,149.8c1,0,2,0,3-0.1c4.8-2.8,5.6-2.4,7,3.2
		c0.5,2,0.6,4.2,2,5.9l0,0c0.1,3.3,2.1,6.6,0,10c-1.6,2.4-4.2,4-5.1,6.9c0,0.2,0,0.5,0.1,0.7c1.2,3.6,0.5,6.9-1.3,10.1
		c-1.4,4.3-1.2,9-3,13.2c-0.3,1-0.6,2-0.9,2.9c-1.1,3.4-2.1,6.8-3.4,10c-1.2,2.6-2.6,5-4.7,7c-1.6,1.4-3.2,2.5-5.3,0.9
		c-1.2-1.7-2.5-2.5-4.5-1.1c-1.8,1.2-3.4,2.6-5.4,3.5c-2.1,1-4.1,1.3-6.1-0.2c-2.1-1.6-2.9-3.5-2.2-6.1c0.5-1.8,0.9-3.5,1.8-5.2
		c0.8-1.5,1.6-3.2,1.1-4.8c-1.6-5.3-0.5-10.8-1-16.2c-0.8-8.8,0.6-17.6,0.9-26.5c0.1-2.5,1.9-3.8,4.6-2.7c0.6,0.6,1.1,1.5,0.9,2.2
		c-1.7,6.7,1.5,13.5-0.6,20.2c-1.2,3.7,0.5,6.4,4.3,7.5c1.8,0.5,3.4,1.4,4.8,2.5c2.7,2.1,4.3,0.9,5.1-1.9c0.7-2.3,0.9-4.7,0-6.9
		c-2-4.8-2.1-9.5-0.5-14.4c0.1-0.5,0.2-1,0.3-1.4c0.2-0.4,0.5-0.8,1-1.1c2.5-0.6,3.3,1,3.3,2.9c0,4.9,1,9.9,0.4,14.8
		c0.7-6.2-0.9-12.3-0.2-18.5c0.2-1.8-0.7-2.8-2.6-2.9c-1.3,0.1-2-1.1-3.2-1.4c-3.4-3.1-7.2-2-10.9-0.9c-0.5-0.1-0.9-0.3-1.2-0.7
		c-1.8-1.7-5.6-2.5-2.7-6.4c0.4-0.5-1.7-0.5-2-1.4c-0.8-2.5-6.7-2.7-3.3-7.2c1.3-0.5,2.7-0.3,4-0.4c7-0.1,13.9,0.8,20.8,1.9
		C233.1,148.5,235,148,236.3,149.8z"/>
	<path fill-rule="evenodd" clip-rule="evenodd" fill="#323232" d="M248.2,168.8c-2.3-3.3-1.4-6.6,0-10c1,1.7,1.9,3.3,2.9,5
		C251.2,166.1,250.2,167.7,248.2,168.8z"/>
	<path fill-rule="evenodd" clip-rule="evenodd" fill="#595959" d="M243.1,175.8c0,0.8-0.1,1.7-0.1,2.5c0,1.3-1,2.8,0.5,3.7
		c1.2,0.8,2.1-0.5,3.1-1.1c1.8-1.1,4.2-1.8,5.5,0c1.6,2.3-1,3.4-2.4,4.7c-0.2,0.2-0.5,0.5-0.8,0.6c-8,1.3-7.4,6.4-6.8,12.8
		c0.7,8.4,3.3,15.8,7.4,22.9c1.9,3.3,1.8,6.7,1.7,10.1c0.4,4.2-2.9,6.4-5,9.1c-1.4,1.8-3,3.4-3.5,5.8c-2.3,6.1-4,12.4-5.6,18.7
		c-0.3,1-1.2,1.7-1.8,2.5c-0.2,3.7,0.3,7.4-0.8,11c0.1,1.3,1,2.9-1.4,3.2c-1.6-1-1.4-2.6-1.3-4c0.8-7.8,0.4-15.6,1.4-23.3
		c1-7.5,1.8-15.7,9.5-20.6c3.1-1.9,3.2-5.2,1.6-8.5c-4.7-9.9-4.9-20.5-4.8-31.1c0-2.9-0.5-6,0.7-8.8
		C241.4,182.5,241.1,178.8,243.1,175.8z"/>
	<path fill-rule="evenodd" clip-rule="evenodd" fill="#8A8A8A" d="M235.3,267.9c0.3-0.7,0.5-1.4,0.8-2.1c0.8-7.1,1.9-14.1,4.1-21
		c1-2.8,2.3-5.2,5.3-6.5c2.8-1.2,4.2-3.9,5.6-6.5c0.7-0.7,1.4-1.3,2-2c0,4.2-3.1,7.2-4,11c-3.5,7.2-7.4,14.1-9.9,21.7
		C238.6,264.7,237.9,267,235.3,267.9z"/>
	<path fill-rule="evenodd" clip-rule="evenodd" fill="#343434" d="M39.3,62.8c0.7-0.7,1.3-1.4,2-2c1.2-1.2,1.6-3.4,4-3l0.1,0.1
		c0,4.1-2.5,6.5-6,8c-0.3,0-0.7,0-1,0C38.6,64.8,38.9,63.8,39.3,62.8z"/>
	<path fill-rule="evenodd" clip-rule="evenodd" fill="#7B7B7B" d="M91.2,50.8c2.7,0,5.3,0,8,0c7.9-0.1,15,2.8,22.3,5.2
		c1.8,0.6,2.3,1.9,2.6,3.3c0.4,1.6-0.5,2.9-2,3.6c-3.5,1.7-7.1,3.1-6.7,8.1c0.3,3.8,2.1,6.8,3.6,10.1c3,7.1,9.3,10.1,14.8,14.2
		c3.2,2.4,4.4,4.8,1.9,8.3c-0.7,1-1.6,2.2-0.1,3c2.3,1.1,4.2,2.4,5.7,4.5c1.1,1.4,2.6,0.4,4-0.4c5.9-3.4,6.8-3.2,11.6,1.4
		c2.3,2.2,4.7,3.3,8,3c4.1-0.3,8.3,0,12.1,1.8c2,1,4,1.6,6.3,0.9c2.5-0.7,4.5,0.7,6.7,1.4c5.9,2.1,7.4,0.7,8-5.4
		c0.9-10,3.8-19.5,9.9-27.7c1.3-1.7,2.9-3,5.2-3.6c2-0.5,4.2-1.4,5.5-3.3c1.7-2.6,3.8-2.8,6.4-1.8c2.3,2.7,3.3,5.9,4.1,9.2
		c1.7,11.1,6.2,21.9,6,33.1c-0.2,8,1,15.9,1,23.8v0c1.2,3.3-0.1,4.9-3.5,5c-1.9,0-3.9-0.1-5.8,0.2c-1.3,0.4-2.6,0.5-3.8-0.1
		c-2.7-3.8-7.5-3.9-11.1-6.2c-0.7-0.9-1.6-1.4-2.4-2.1c-6.4-6.2-14.4-6.2-22.2-4.9c-12.4,2.1-25,3.3-37.1,7.3
		c-1.1,0.1-1.9-0.6-2.9-0.9c-1.8-3.3-0.8-6,3.1-7.4c2-0.7,4.2-1,6.3-1.4c2.5-0.5,3.7-1.9,4-4.4c0.3-2.2-1.2-2.9-2.6-4.3
		c-4.4-4.5-9.2-3.6-14.2-1.7c-0.9,0.4-2.1,1.2-2.8,0.5c-3.7-3.5-9.5-3.3-12.8-7.6c-2.5-3.3-5.1-6.6-8.2-9.4c-1.1-1-1.6-2.2-1.6-3.9
		c0.2-5.3-2.4-9.7-4.5-14.5c-1.8-4.1-5.5-6.7-6.8-10.9c-0.3-0.9-0.9-1.8-1.8-2.4c-3.8-2.3-8.8-0.2-12.3-3.5
		c-3.1,2.7-7.5,1.4-10.7,3.6c-0.4,0.3-0.9,0.5-1.2,0.8c-0.3,0-0.7,0-1,0c-1.9,1.2-3.9,1.5-6.1,1c-2.7-2.5-2.6-5,1.4-6.5
		c4.3-1.6,7.2-5.3,11.7-6.3c1.4-0.3,2.8-0.9,4.1-2c-1.1-2.7-5.1-3.6-4.7-7.1C87,52.5,89.6,52.1,91.2,50.8z"/>
	<path fill-rule="evenodd" clip-rule="evenodd" fill="#8B8B8B" d="M57.2,130.8c-2-2-6.2-1.2-7-4.2c-0.7-2.5,2.5-4.3,3.5-6.8
		c2.4-6.5,6-12.2,12.6-15.4c3-1.5,6.3-0.5,9.1-2.2c1.3-0.8,3.6-1.1,2.7-3.4c-0.8-2-2.7-2.5-4.6-1.7c-1.8,0.8-3.5,1.9-5.2,2.9
		c-1.2,0.7-2.5,0.9-3.7-0.1c-1.1-0.9-1-2.2-0.4-3.2c1.2-1.9-0.6-5.3,1.5-6c4.7-1.5,7.6-6.2,12.6-6.8c1.3-0.2,2.8-0.1,3.7-1.2
		c1.1-1.3,0.9-3.9,3.4-3.7c3.5,0.2,7.1,0.2,10.3,1.2c2,0.6,6,1.9,1.7,5.9c-2.2,2,1.6,4.1,2.9,6c0.9,1.3,2,2.9,4.1,1.7
		c1.2-0.7,1.8-3.6,3.7-1.1c1.5,1.9,3.3,4.1,1.3,6.7c-2.3,3-5.4,5.2-7.7,8.2c-1.9,2.5-3.8-0.9-4.5-3.1c-0.9-2.8-3.3-4.8-5.5-4
		c-3.3,1.1-8.1-1.8-10,3.9c-1.5,4.5,0.8,6,4,5.8c4.6-0.4,8.4,3.1,13,2.2c1.6-0.3,3.5,1.2,3.6,2.9c0.2,3.6,3.6,4.5,5.1,6.7
		c3.4,4.9,9.7,8.4,8.6,15.9c-0.4,2.8-1.7,4.6-3.8,6c-1.6,2.2-3.4,1.6-5.2,0.3c-3.5-2.5-7-4.6-11.6-4.1c-2,0.2-3.4-1.2-3-3.6
		c0.8-2.9,2.9-3.8,5.7-3.6c2.2,0.2,4.6,0.2,5.2-2.6c0.5-2.7-1.6-4.1-3.6-5.4c-1-0.6-2.2-0.7-3.4-0.8c-1.3-0.1-2.9-0.1-3.8-1.1
		c-4.3-4.8-10.6-4.7-16-6.9c-3.7-1.5-6.5-0.1-10,1.6C60.7,120.6,60.2,126.4,57.2,130.8z"/>
	<path fill-rule="evenodd" clip-rule="evenodd" fill="#818181" d="M81.2,75.8c3.5-4,8.8-4.5,13-7.1c0.3-0.2,0.9-0.3,0.9-0.2
		c2.8,4.8,7.9,1.3,11.4,3.1c0.9,0.4,2.1,1,2.3,1.7c2.3,7.6,9.2,13.5,10.2,21c1,8.3,6.7,13,10,19.4c0.7,1.4,1.9,2.5,3.4,2.7
		c2.8,0.5,5.2,1.7,7.6,3.5c3,2.2,6.2,0.1,8.9-1.2c3.3-1.5,5.7-1.4,7.8,1.5c1.5,2,3.3,2.7,5.6,2.2c1.2-0.2,3-0.1,2.8,1.2
		c-0.5,3.5-1.3,7.1-2.4,10.4c-0.8,2.2-3.1,2-5.2,2.1c-4,0.3-8.1,0.7-10.4,4.7c0.7,3.4-2.4,3.4-4,3.8c-4.9,1.2-9.3,3.2-13.3,6.2
		c-0.8,0.6-1.9,1.4-2.7,0.9c-3.8-2.3-8.4-3.1-11.9-5.9c2.4-6,7.5-7.2,14.8-3.6c2.5,1.3,10.4-0.9,11.9-3.5c2-3.5,2.1-7.7-0.9-10.1
		c-3-2.4-6.1-4.9-9.4-7c-1.5-1-3-2-4.1-3.6c-1.4-1.9-3.1-2.6-5.6-2.4c-4.9,0.3-7.5-2.1-7.7-7.3c-0.1-3.1-1.7-1.7-2.9-1.3
		c-1.6,0.5-3.2,0.7-3.3-1.5c-0.1-1.9,1-2.9,3.2-2.8c6.1,0.2,5.6,0.2,4.2-5.4c-1.6-6.7-4.9-12.2-9.4-17.1c-0.7-0.8-1.2-1.8-2.3-1.7
		c-3.7,0.4-7.1,0.5-8.6-3.8c-0.1-0.2-0.7-0.5-0.8-0.5C90.4,78.2,85.3,73.2,81.2,75.8z"/>
	<path fill-rule="evenodd" clip-rule="evenodd" fill="#808080" d="M73.2,75.8c2.3,0,4.7,0,7,0c-0.5,0.5-0.9,1.3-1.4,1.4
		C69.3,78.3,66.7,88,60.1,92.4c-6.9,4.6-7.3,10.9-7.8,17.6c-0.3,3.6-2.7,5.1-4.8,7.1c-5.5,5.4-5.6,11.1-0.2,15.7c-1.4,1-2.7,2-4.1,3
		c-2.7-0.1-4.5,2.6-7.3,2.4c-7.5-0.6-10-4-8.6-12.3c0.6-2.9,0.5-5.9,0.4-8.8c-0.2-4.5,1.9-8.1,5.8-8.8c7.9-1.3,11.1-7.1,14.7-12.8
		c3.2-5.1,7.2-9.6,10.8-14.4C62.1,76.8,67,73.4,73.2,75.8z"/>
	<path fill-rule="evenodd" clip-rule="evenodd" fill="#929292" d="M57.2,130.8c0-2.3,0-4.6,0-6.9c0-0.8,0.2-1.7,0.5-2.4
		c1.4-4,14.5-9.8,18.4-8.2c2.8,1.1,5.5,2.5,8.6,1.7c0.5-0.1,1.2-0.1,1.4,0.2c4.8,6.5,13.7,5.1,19.2,10.2c2.1,1.9,1.6,3.7,1.2,5.8
		c-0.5,2.5-1.5,4.4-4.5,4.5c-3,0.1-6,0.1-8.9,0.1c-0.3,0.3-0.7,0.3-1,0c-0.8-1-1.8-1.7-3-2c-2-1.8-3.8-3.7-5.3-6
		c-2.3-3.7-6.2-5.3-10.6-5.6c-2.2-0.1-4.2,0.4-4.5,2.9c-0.3,2.4,1.7,2.9,3.5,3.4c4.3,1.1,8.9,0.8,13,2.9c1.2,0.6,2.5,0.9,2.8,2.5
		c-1.1,0.3-2.2,0.9-3.3,0.9C75.6,134.1,66.3,133.5,57.2,130.8z"/>
	<path fill-rule="evenodd" clip-rule="evenodd" fill="#797979" d="M92.2,135.8c0.3,0,0.7,0,1,0c0.2,0.4,0.4,1.3,0.7,1.3
		c6.9,0.2,12,5.3,18.4,6.7c0.8,1,1.8,1.7,3,2c3.9-1.1,7.6-1.2,10.4,2.4c0.7,0.9,1.9,1.3,2.7,0.5c5.2-5.4,12.8-4.9,18.9-7.9
		c1,0,2,0,3,0c0.3,0.6,0.4,1.4-0.1,1.8c-6.6,4.4-12.4,10.1-20.1,12.6c-7,0.4-12.9-1.8-18.7-5.8c-5.5-3.8-12.1-6.2-18.7-8
		c-2.2-0.6-4.3-0.8-4.4-3.7C89.6,137.1,90.9,136.5,92.2,135.8z"/>
	<path fill-rule="evenodd" clip-rule="evenodd" fill="#9C9C9C" d="M88.3,133.8c-6.7-1.1-13.4-2.1-20.1-3.2c-1.7-0.3-2.5-1.4-2.8-3.1
		c-0.9-5.1,3.8-9.6,8.8-8.2c1.9,0.5,3.8,1,5.7,1.6c6.1,2,8.4,6.9,9.3,12.8C88.9,133.8,88.6,133.8,88.3,133.8z"/>
	<path fill-rule="evenodd" clip-rule="evenodd" fill="#656565" d="M88.2,137.7c8.2,3.3,17.2,5.3,24.5,10.5
		c5.5,3.9,11.1,5.5,17.6,5.6c1.7-0.5,3.4-1.3,5.2-0.1c0.2,0.6,0.1,1.2-0.3,1.7c-7.7,1.3-15.4,1.8-23.1-0.6c-2.1-1.8-4.2-3.7-6.2-5.6
		c-2-1.9-4.2-2.4-6.9-2.9c-6.3-1.2-11.9-4.4-17.7-6.9c-0.9-0.4-1.4-1.3-1-2.5C82.9,136.8,85.6,136.6,88.2,137.7z"/>
	<path fill-rule="evenodd" clip-rule="evenodd" fill="#4E4E4E" d="M80.2,136.9c7.5,1.8,13.6,7,21.4,8.3c4.5,0.7,7.8,4.1,10.5,7.7
		c-2.2,2.1-4,0.3-5.7-0.8c-3-1.9-6.1-3.1-9.8-2.6c-3.3,0.4-5.9-1.4-7.8-4c-1.9-2.6-4.3-3.4-7.3-2.7c-2.1-0.8-5.2-0.3-5.4-3.9
		c0-0.6,0-1.2,0-1.9C77.5,137,78.9,137,80.2,136.9z"/>
	<path fill-rule="evenodd" clip-rule="evenodd" fill="#070707" d="M53.2,160.7c0.4-1.3,0.8-2.6,1.2-3.9c2.5-2.4,5.7-2,8.8-2
		c2.1,0,4.2,0.2,6.3-0.5c0.6-0.1,1.1-0.3,1.7-0.4c11.4,0.1,22.4,1.9,32.3,8.2c5,3.2,7,7.8,6,13.7c-0.4,2.5-0.5,5-0.6,7.4
		c0,0.5-0.1,1-0.2,1.6c-2.4,4.7-6.8,5.8-11.6,6.4c-2.6,0.3-5.7,0.2-6.4,3.6c-0.7,3.5,0.6,6.6,3.8,8.5c2.7,1.5,4.2,3.6,4.2,6.7
		c-1.9,2.7-3,6.3-7.3,5.9c-4.4,1.8-9.2,1.1-13.7,1.7c-3.7,0.5-6.3-1.9-7.2-5.6c-0.8-3.4-1.4-6.8-2.1-10.2c-4-0.3-2.9-3.6-3-5.7
		c-0.2-5.2,0.4-10.6-2.8-15.2c-1-1.4-1.9-2.7-1.3-4.5c0.2-1,0.6-1.9,1-2.9c0.4-1.1,0.8-2.2,1-3.3c-0.1-1.8-0.9-3.3-2.3-4.4
		c-1.2-1.7-2.8-2.4-4.9-2.5C54.4,163.2,52.3,163.4,53.2,160.7z"/>
	<path fill-rule="evenodd" clip-rule="evenodd" fill="#292929" d="M91.3,215.8c2.5-1.5,4.1-3.9,6-6c1.6-9,5.4-17.2,10-25
		c0-0.3,0-0.7,0-1c0.9-1.4,0.4-2.9,0.5-4.4c0.1-1.3,0.3-2.4,1.9-2.4c1.3,0,2.2,0.7,2.6,2c0.3,1.1,0.4,2.3,0.1,3.5
		c-3.2,14-7.1,27.5-18.4,37.9c-6.1,5.6-13.2,7.4-20.7,9.1c-0.7-0.1,0-0.9-0.1-0.2c0,0.1,0.1,0.2,0.4,0.1c9.4-2.2,19.1-3.6,25.1-12.6
		c1.1-1.7,2.6-2.7,4.5-0.8c0.4,7.2-4.1,13-10.7,15.2c-13.4,4.4-26.9,4.1-40.4,0.9c-2.5-0.6-5.4-0.6-6.8-3.5c-1.6-3.7-7.2-3.3-8-7.8
		c1.3-1.6,2.8-1.5,3.9,0c0.8,1.2,2,1.4,3.1,2C58.6,229.2,81.9,225.8,91.3,215.8z"/>
	<path fill-rule="evenodd" clip-rule="evenodd" fill="#121212" d="M44.2,222.8c-2.3-0.7-4.7-1.3-7-2c-6.3-5.1-11.9-10.8-14.1-18.9
		c0.7-0.7,1.4-1.4,2.1-2c3.5-1.5,3.6,1.7,4.7,3.5c0.8,1.2,0.9,3.3,2.9,2.8c1.4-0.3,1.4-2.1,1.6-3.4c0.7-3.9-0.1-7.6-1.2-11.3
		c-1.3-4.3-3.4-4.9-7.2-2.2c-0.6,0.4-1.2,0.6-1.8,0.6c-1.6-3.1-1-6.5-1.5-9.8c-0.5-3.1,1.8-4.1,4.3-4c3.8,0.1,6.8,2.1,8.5,5.3
		c2.1,3.9,3.7,8.1,5.3,12.3c1.1,2.9,1.6,5.8-1,8.3c-0.5,0.5-1.2,1.6-1,2.2C41.1,210.2,39,217.6,44.2,222.8z"/>
	<path fill-rule="evenodd" clip-rule="evenodd" fill="#202020" d="M24.2,189.8c0.1-2.7,0-5.8,3.5-6.2c3-0.4,5.7,1.2,7,3.9
		c3.4,7.4,3.4,15.4,1,22.9c-1.3,4.1-4.2,1-5.4-0.8c-2-3-3.3-6.5-4.9-9.7C23.4,196.6,23.9,193.2,24.2,189.8z"/>
	<path fill-rule="evenodd" clip-rule="evenodd" fill="#1B1B1B" d="M63.2,175.7c0,0.5-0.3,1.3-0.1,1.4c6.2,4.3,3.8,10.8,4.2,16.5
		c0.2,2.8-0.1,5.6,1,8.2c-0.6,2.5,1.6,6.8-1.7,7.2c-2.3,0.3-1.9-4.3-2.7-6.7c-0.2-0.8-0.3-1.6-0.5-2.4c-0.5-3.1,0.9-6.7-0.9-9.2
		c-1.8-2.6-5.7,0.1-8.3-1.7c3.2-2.3,4.3-5.6,4.3-9.5C59.2,177.2,59.1,173.9,63.2,175.7z"/>
	<path fill-rule="evenodd" clip-rule="evenodd" fill="#878787" d="M60.3,180.8c-0.5,3.9-0.5,8.1-6.1,8.2c-0.7-0.4-1.3-0.8-2-1.2
		c-0.4-5.5-2.6-10.8-1.8-16.5c0.8-3.9,1.9-7.5,6.5-8.4c0.7-0.2,1.4-0.2,2.2-0.1c2.4,2.3,2.7,6.2,6,7.8c0.4,1.3-0.2,2.1-1,3
		C58.4,176.1,58.2,176.4,60.3,180.8z"/>
	<path fill-rule="evenodd" clip-rule="evenodd" fill="#484848" d="M59.4,164c-0.7,0-1.4-0.1-2.1-0.1c-5,0.4-4.9,4.6-6,7.9
		c0.4,3.9-1.9,8.8,4.2,10.6c1.7,0.5,1.2,2.2-0.3,2.9c-1.2,0.6-2.5,1-2.9,2.4c-3.5-4.3-1.9-9.7-2.9-14.5c-0.4-2,0.2-4.3-2.1-5.6
		c-0.6-0.3-0.7-0.7-0.2-1.2c3.3-0.6,3-5,6.2-5.8c2.2,1.5,4.7,1.1,7.1,1.1c2,0,4-0.1,4.9,2.2C63.2,166,61.3,166.4,59.4,164z"/>
	<path fill-rule="evenodd" clip-rule="evenodd" fill="#797979" d="M47,166.5c0.1,0.4,0.1,0.8,0.2,1.2c-4,1.5-7.9,3.4-11.9,0.1
		C39.3,168.4,43.2,168.2,47,166.5z"/>
	<path fill-rule="evenodd" clip-rule="evenodd" fill="#727272" d="M228.2,86.8c-1.3-2.7-1.5-5.9-4-8c-2-2.4-3.8-1.9-5.2,0.6
		c-1.3,2.4-3.2,3.7-5.9,3.7c-6.8,0.1-9.8,2.2-12.1,8.4c-1.1,3.1-2.2,6.2-2.5,9.6c-0.7,7.2-4.7,10.9-11.9,11.8
		c-1.7,0.2-3.4,0.2-4.8,1.1c-4.9,3.2-10.1,2-14.9,0.5c-4.3-1.3-6.6-5.7-9.8-8.6c-4.6-4.2-8-9.7-14.5-11.5c-2-0.6-3-2.3-3.9-4.2
		c-2.2-4.8-3.5-5.1-8.4-3.1c-3.1,1.2-5.9,1.3-7.4-2.5c-0.2-0.6-0.4-1.4-0.9-1.7c-5.5-3.7-4.6-8.5-3.1-13.9c1.5-5.2,6.2-7.4,10.4-3.9
		c1.7,1.5,3,2.4,5.1,0.9c0.7-0.5,1.6-0.8,2.4-0.6c7,2.2,12.7-1.8,19-3.8c-4-2.5-7.9-0.7-11.7-0.1c-2.8,0.4-5.9,1.9-7.8-1.9
		c3-1,6-2,9-3c0.1-0.2,0.3-0.4,0.4-0.6c1.5-1,3.2-0.9,4.8-0.9c9.9,0,19.9-0.2,29.8,1c4.7,0.6,6.4,3.5,4.1,7.6
		c-2,3.5-5.4,5.3-8.9,6.9c-1.1,0.5-2.2,0.7-3.3,1.2c-1.9,0.8-4.8,1.1-4.6,3.8c0.2,2.4,2.9,2.2,4.7,2.9c0.6,0.2,1.2,0.5,1.8,0.8
		c7.7,3.6,9.2,3.1,13.9-3.7c3-4.4,10.5-7.4,15.4-6.2c3.1,0.8,5.5-0.4,7.9-1.9c6-3.7,9.7-2.5,12.8,4.1c1.3,3.3,2.7,6.7,4,10
		C228.9,83.5,229.8,85.2,228.2,86.8z"/>
	<path fill-rule="evenodd" clip-rule="evenodd" fill="#7A7A7A" d="M136.2,59.8c3.7,0.2,7.4-0.3,10.8-1.5c5.7-2,10.3,1.3,15.2,2.9
		c1.9,0.6,1,2.2-0.1,3.1c-1.5,1.3-3.4,1.2-5.2,0.8c-2.4-0.5-4.8-0.4-6.6,1.3c-2.9,2.7-6.3,2.9-9.8,2c-4.2-1.1-7.1,0.1-8.8,4.2
		c-0.4,1-0.9,2.4-2.4,1.9c-1.5-0.5-2-1.9-1.5-3.3c0.9-2.6,1-4.8-2.3-5.2c-3.1-0.4-2.8,2.3-4,4.3c-3.5,6,1.1,8.9,3.5,12.8
		c1.6,2.6,3.3,2.9,4.8,0.2c2-3.5,4.2-2.6,6.5-0.6c1.6,1.4,3.2,3,4.3,4.8c3.5,5.9,6.5,7.4,12.9,5.7c0.7,1.7-1.8,2.3-1.3,3.9
		c0.5,1.7,2.4,1.7,3.3,2.7c3,3.2,6.3,5.9,9.3,9c3.6,3.7,9.1,6,14.1,3.5c2.7-1.4,5.3-2.3,8.5-2.5c5.2-0.3,8.6-4.4,8.6-9.9
		c0-5.4,2.1-9.9,5.1-14.1c0.4-0.5,1-1.1,1.1-1.7c0.7-5.4,4.5-5.3,8.2-4.2c3.7,1.2,6.4,1.3,7.9-2.9c0.5-1.4,2-2.3,3.7-2
		c1.9,0.3,2.1,1.9,2.3,3.4c-8.2,3.8-15.7,8.2-19,17.6c-2.6,7.3-4.7,14.6-4.1,22.5c0.2,3.3-1.3,5.1-4.9,4.4c-2.9-0.6-6-0.3-8.6-2.1
		c-0.5-0.4-1.5-0.8-1.8-0.6c-4.6,3.4-7.8-0.6-11.6-2c-2.9-1.1-6-1.8-9.2-0.5c-4.3,1.8-7.1-1.3-9.4-3.9c-3.2-3.5-5.6-3.9-9.1-0.5
		c-3.8,3.7-4.9,3-8.3-1.3c-2.8-3.5-6.5-6.2-11.1-7.6c0.6-0.9,0.8-1.3,1-1.3c2.2-0.4,5.2,1.5,6.2-2.2c0.8-3.1-2.3-3.6-3.7-5.3
		c-2.5-3.1-7.5-2-9.4-6c-3-6.5-8.4-11.9-8.9-19.6c-0.3-4.3,1.6-7.2,5.7-8.6c1.6-0.5,3.5-0.7,3.5-2.9c0-2-2-1.9-3.3-2.4
		c-6.1-2.5-12.5-4.4-19-5.6c0.7,0,1.3,0,2,0c9.6-1.2,17.8,2.4,25.5,7.6C129.8,60.5,132.9,60.6,136.2,59.8z"/>
	<path fill-rule="evenodd" clip-rule="evenodd" fill="#5C5C5C" d="M68.2,43.8c0.3-0.3,0.7-0.7,1-1c3.2-3.1,7.2-2,11-2l0,0
		c4.5,3.6,9.6,4.9,15.2,4.5c6.7-0.4,13,2.7,19.8,2.5c3.8,0.7,7.5,1.3,11,3c4,3.6,8.4,5.3,14.1,4.3c12.4-2.1,24.9-1.6,37.3-0.9
		c3.8,0.2,7.7-1.5,8.5-4c2.3-7.5,8.5-4.9,11.6-3.7c10.2,4,18.5,10.9,24.4,20.3c-3.5,0.2-6.1-1.8-8.1-4.2c-5.3-6.4-12.6-6.7-19.9-6.9
		c-0.3,0-0.8,0-1,0.1c-6,5-12.3,0.5-18.4,0.4c-9.9-0.2-19.7-0.1-29.6,0.6l0,0c-9.3,0.9-18.1,0-26.1-5.6c-1.9-1.3-4.7-1.9-7.1-2
		c-13.2-0.6-26.3-2.3-39.3-4.8c-1.4-0.3-3,0.2-4.4,0.4c-0.3-0.2-0.4-0.5-0.3-0.7C68,43.9,68.1,43.8,68.2,43.8z"/>
	<path fill-rule="evenodd" clip-rule="evenodd" fill="#525252" d="M68.2,43.8c0,0.3,0,0.7,0,1c-8.9,2.2-15.5,7.9-21.1,14.7
		c-3.8,4.6-7.2,9.5-10.8,14.3c-0.3,0-0.7,0-1,0c0.8-2.9,3.5-4.9,4-8c1.9-2.8,4.9-4.7,6-8c5.3-4,8.8-10,14.9-13.1
		C62.9,44.9,65.6,44.6,68.2,43.8z"/>
	<path fill-rule="evenodd" clip-rule="evenodd" fill="#7A7A7A" d="M73.2,75.8c-1.7,1.1-3.5,1.7-5.5,2.1c-4.6,0.8-8.1,3-8.9,8.1
		c-0.2,1.2-0.7,2.2-1.6,3c-5.8,4.9-10,10.9-12.3,18.1c-0.5,1.7-1.7,2.2-3.4,2.2C31,109.9,29,111.8,28.2,122
		c-0.1,1.3-0.6,2.6-0.9,3.8c-0.6-6.7-0.4-13.2,2-19.6c1-2.7,2.3-4.5,5.4-3.9c3.5,0.7,5.5-1.2,6.8-3.8c6-11.9,16.4-19.5,26.9-26.8
		c4.8-3.4,11.2-4,15.6-8.4c1.2-1.2,2.3-1.8,1.6-4c-2-6.2-1.3-7,5.7-8.3c-3.4,4.9-3.2,5.7,2.6,8c1.9,0.7,3.3,1.6,3.1,3.9
		c-0.3,2.6-2.2,2.8-4.3,3C84.9,66.5,78,69.2,73.2,75.8z"/>
	<path fill-rule="evenodd" clip-rule="evenodd" fill="#191919" d="M70.2,155.8c-5.3,0-10.7-0.2-15.9,1c-0.2-0.3-0.3-0.6-0.3-0.9
		c0.4-0.4,0.8-0.8,1.2-1.1c4.5-1.1,9.1-0.2,13.6-0.6C69.8,154.2,70.3,154.8,70.2,155.8z"/>
	<path fill-rule="evenodd" clip-rule="evenodd" fill="#282828" d="M70.2,155.8c-4.9-1.9-10-0.6-15-1c3.6-1.8,7.5-0.5,11.2-1.2
		c1.4-0.3,3.2-0.5,3.6-2.2c0.3-1.5-1.4-1.5-2.3-2.1c-2.9-2.2-2.4-5.8-3.6-8.7c-0.7-1.7,2.2-2.2,3.7-2.2c2.8-0.1,5.6,0.3,8.4,0.5
		c1.9,0.8,3.9,1,6,1c2,1,3.9,2.1,5.2,4c3,4.4,7.2,5.9,12.4,5.6c2.9-0.1,6.5-0.7,8,3.2c0,0.5-0.2,1-0.6,1.4c-2.5,2.2-5.3,1.2-8,0.8
		c-3-0.5-5.9-0.4-8.9-0.8c-1.2-0.2-2.1-0.6-2.8,1c-1,2.5-3.4,2.6-5.5,2.2C78.1,156.5,74.1,156.7,70.2,155.8L70.2,155.8z"/>
	<path fill-rule="evenodd" clip-rule="evenodd" fill="#212121" d="M49.2,309.8c-3.9-2.6-3.9-6.8-3.5-11.7c-5.4,6.1-5.4,6.1-11.1,0.6
		c-2.6-2.5-5.8-4.4-6.8-8.3c-0.2-0.9-0.9-2-2.1-1.5c-1.1,0.5-0.7,1.7-0.7,2.6c0.2,5.4,3.1,10.1,4.3,15.2c-5.8-6.8-7.1-15-6.9-23.4
		c0.4-12.4-2.8-24.5-2.2-36.8c0-0.9-0.5-1.9-0.8-2.8c0-0.3-0.1-0.6-0.1-0.9c-1.1-1.8-1.4-3.9-2.2-5.8c-0.5-1.2-0.4-3,1.3-3.8
		c1.7-0.8,2.8,0.1,3.7,1.5c3.3,4.7,4.2,10.2,4.8,15.7c0.1,1.2-0.1,2.4,0.6,3.5c0.8,3.4-0.5,7.6,3.7,9.6c0.4,0.3,0.7,0.7,0.9,1.2
		c0.9,2.9-0.6,5.8,1.3,8.9c2.3,3.7,3.9,6.9,8.5,9.2c6.8,3.5,9.2,11.1,10,18.8c-0.4,1.7,1.3,3.3,0.5,5
		C51.4,307.9,50.9,309.4,49.2,309.8z"/>
	<path fill-rule="evenodd" clip-rule="evenodd" fill="#3F3F3F" d="M26.2,254.8c-1-4.4-2.1-8.9-3.1-13.3c-0.6-2.6-1.6-4.8-4.4-7.3
		c0.2,3.6,0.4,6.1,0.5,8.7c-2.4-2-3.9-4.7-3.8-7.8c0.6-10.1-2.5-20.1-1.2-30.2c1-0.6,1.7-1.4,2-2.6c0.2-0.9,0.2-2.2,1.4-2.1
		c1.3,0.2,1.3,1.6,1.6,2.7c-0.3,0.4-0.9,0.8-0.7,1.2c2,5.7,0.5,11.9,3.3,17.6c2.1,4.4,2.2,9.6,3.1,14.4c1.2,6.3,4.9,11.5,6.6,17.5
		c0.5,1.6,1.3,3.1,1.3,4.9c-1.5,2.2-0.3,5.1-1.9,7.2c-0.5,0.4-1.1,0.4-1.6,0.1c0-0.3,0-0.6,0-1C27.9,261.6,27.3,258.1,26.2,254.8z"
		/>
	<path fill-rule="evenodd" clip-rule="evenodd" fill="#8D8D8D" d="M34.1,223.9c3.4,1.7,6.7,3.3,10.1,5c1.4,1.1,3.3,0.7,4.7,1.7
		c3.3,2.5,8,0.7,11.2,3.4c0.7,4.3,5.9,8.6,10.5,8.5c1,0,2.2-0.2,2.4-1.3c0.2-1.4-1.1-1.4-2-1.6c-1.3-0.3-2.7-0.2-3.9-0.6
		c-2.3-0.7-3.6-1.9-1.5-4.3c4.6-0.8,9.3-0.2,13.9-0.4c3.4-0.1,5,1.5,4.4,5c-0.2,1.5-0.2,3-0.3,4.5c0,3.7,1.3,6.3,5.1,7.6
		c4.1,1.5,8.1,9.5,7.4,14c-0.7,4.6-5.2,7.9-11.4,7.8c-3.3,0-6.1,1.4-9,2.6c-0.8,0.2-1.5,0.6-2.4,0.5c-2.1-1.2-4.2-0.9-6.5-0.8
		c-9.5,0.6-13.8-2.6-11.5-12.5c2-8.4-0.5-14-5.7-19.7c-1.9-2.1-3.8-3.3-6.3-4.3c-5.1-2-9-5.6-12.1-10
		C29.4,226.2,30.4,224.8,34.1,223.9z"/>
	<path fill-rule="evenodd" clip-rule="evenodd" fill="#7B7B7B" d="M20.1,207.9c2.4,3.6,4.9,7.2,7.3,10.8c-0.3,2.4-0.3,4.9-0.1,7.3
		c0.4,3.5,1.8,6.1,5.2,7.9c4.4,2.3,8.1,5.9,13.4,6c0.7,0,1.3,0.4,1.7,1c3.9,5.7,9.7,10.9,6.7,19c-2.2,5.9,1.4,10.2,4,14.7
		c1.2,2.1,3.7,2,5.9,1.8c1.8-0.2,3.6-1.1,5.1,0.8c1.1,3.7,0.7,6.8-3.5,8.4c-1.9,0.7-2.4,2.6-3.2,4.2c-1.7,3.1-3.9,3.2-6.3,0.8
		c-1.8-1.7-3.3-3.4-3.7-6.2c-0.6-3.4-2.8-6.1-5.5-8.3c-2.7-1.6-4.5-3.4-4.1-7c0.3-2.1-1.5-3.7-3.1-5c-4.9-3.8-8.1-8.7-9.9-14.7
		c-1.2-4-3.4-7.7-5.2-11.6c-3.6-7.8-4.9-16.1-6.8-24.3c-0.4-1.6-0.4-3.3,0-4.9C18.2,207.3,19.1,207,20.1,207.9z"/>
	<path fill-rule="evenodd" clip-rule="evenodd" fill="#858585" d="M68.3,277.8c-2.3,1-4.7,1.5-7.2,1.8c-3.1,0.4-5.2-1.2-5.2-4
		c0-3.6-1.2-5.3-4.8-5.4c-2.3-0.1-2.9-1.5-1.6-3.4c2.3-3.3,2.3-7.3,3-10.9c0.9-4.8-5.7-13.1-10.4-13.7c-2.2-0.3-4-1.5-5.8-2.8
		c-1.8-1.2-3.6-2.5-5.5-3.3c-6.5-2.6-8.6-12.4-3.4-17.4c2.2,1.7,4.5,3.5,6.7,5.2c-3.1,3.4,0.4,5,2,6.9c4.2,4.8,10.4,7,15.3,11
		c3.8,3.1,5.6,7.3,8,11.3c1,1.7,0.9,3.9,0,5.8c-0.2,0.5-0.4,0.9-0.6,1.4c-3.8,9.4-1.3,13.2,8.8,13.2c2.1,0,4,0.2,5.7,1.4
		C73.4,278.9,71.2,278.9,68.3,277.8z"/>
	<path fill-rule="evenodd" clip-rule="evenodd" fill="#717171" d="M48.2,230.8c-1.6-0.1-3-0.6-4-1.9c0.3-0.1,0.7-0.2,1-0.3
		c12.8,3.3,25.6,5.7,38.9,3.1c9.3-1.8,16-6.2,18.1-16c-1.4-4.2-0.4-6.2,3.8-7.7c2.3,1,2,2.7,1.4,4.5c-1.8,5.3-1.2,9.8,2.9,14.1
		c2.8,3,4.6,7,6.7,10.7c1.8,3.2,0.2,6-2,8.5c-6.1,4.8-13,1.8-19.5,1.7c-2.1-0.1-2.3-2.4-2.4-4.3c-0.1-7.1-0.3-6.1-7.2-6.9
		c-6.2-0.8-12.3-0.7-18.4-0.9c-0.8,0-1.7,0-2.5,0.2c-0.5,0.2-1,0.5-1.4,0.7C59.1,232.8,53,233.6,48.2,230.8z"/>
	<path fill-rule="evenodd" clip-rule="evenodd" fill="#646464" d="M20.1,207.9c-1.9,1.1-1.9,3-1.6,4.8c2.3,11.9,5.7,23.2,12.1,33.9
		c4,6.7,8,13.2,12.7,19.4c1.9,2.6,1.7,6.7,4.9,8.8c1.4,2.1,1.9,4.8,4,6.6c1.4,1.2,1.2,3.3,0.7,5.1c-2.7,0.5-6.9-2.1-8.1-5.6
		c-0.8-2.4-2-4.5-3.7-6.3c-1.2-2.4-1.5-5.2-5.4-5.6c-2.5-0.3-3.7-3.3-4-6c-0.2-1.9-0.4-3.7-1.5-5.2c-3.4-11.6-8.2-22.7-11.1-34.4
		c-1.4-5.5-2.2-11-2-16.7c0.1-1.5-0.6-3.6,2-3.8C19.5,204.5,19.8,206.2,20.1,207.9z"/>
	<path fill-rule="evenodd" clip-rule="evenodd" fill="#0E0E0E" d="M49.2,334.8c0.9-1.4,1.8-2.8,1.7-4.6c-0.1-1.5,0.6-2.6,2.2-2.9
		c1.7-0.3,3,0.6,3.6,2.1c1,2.6,2.6,5,1.2,8.1c-0.6,1.3-0.3,2.7,1.1,3.4c1.6,0.7,2.6-0.3,3.2-1.6c1.9-4.7,7.4-7.4,6.9-13.4
		c-0.1-1.4,1.4-3.1,3.1-2.5c2.7,0.8,6.9,0.6,7.5,4c1.6,8.8,7.1,11.1,15,10.6c2.2-0.1,3.4,1.3,3.6,3.4c0.2,2.2,1,4.2,1.7,6.2
		c0.9,2.7,2.4,4.3,5.5,3.8c1.8-0.3,3.9-0.1,5.3,1c3.4,2.8,6.4,5,10.2,0.2c1.3-1.6,3.7,0.4,5.5,1.2c6.9,3.2,13.5,4,19.5-1.9
		c2.1-2,4.7-3,7.6-3.4c4.4-0.5,7.1-2.6,6.9-7.5c-0.2-4,1.4-6.3,5.9-6c1.4,0.1,3.3-0.2,4.3-1c4-4,6.3-2.4,7.7,4c1.2-5,2.9-8-0.4-10.8
		c-1.4-1.2-1.3-2.9,0.1-4c2-1.6,2.4,0.7,3.3,1.6c2.2,2.4,4,4.9,4.2,8.3c0,0.5,0.1,1.2,0.4,1.4c5.6,4.2,5.2,10.1,4.5,16.1
		c1.1,0.6,1.4,1.6,1.4,2.7c0,1.6-0.5,3.2-1.4,4.2c-5.9,5.6-8.1,13.7-13.7,19.5c-2,2.1-4.4,2.9-6.9,3c-3.5,0.1-6,1.6-8.2,4.1
		c-3.1,1.8-6.7,2.4-9.4,5.6c-1.9,2.2-5.6,2.1-8.2-0.5c-0.9-1.7-3-1.9-4.1-3.2c-0.5-4.7,2.9-5.5,6.3-5.7c5.2-0.3,8.8-2.8,10.9-7.4
		c0.7-1.7,1.6-3.6-0.3-5c-1.7-1.2-3.5-0.6-5.2,0.4c-1.8,1-2.8,2.8-3.9,4.4c-4.8,7.1-10.4,6.8-14.5-0.6c-3.1-5.5-5.8-6.7-11.8-4.8
		c-2.7,0.9-4.7,0.4-6.4-2.1c-3.7-5.2-8.7-7.5-15.1-5.7c-1.7,0.5-3.3,0.3-4.9-0.3c-3.4-1.4-6.5-1.5-9.8,1.1c-2.5,2-4.7,0.6-5.8-2.3
		c-0.3-0.9-0.3-2-0.6-2.9c-0.6-1.9-2-2.8-3.9-2.2c-2.2,0.7-2.1,2.3-1.3,4c1,1.9,1.7,4,2.5,6c0.8,2,1.7,4.1-0.5,5.9
		c-1.3,0.4-2.6,0.5-3.9,0.4c-4.3-4.4-9.5-8-10.6-15c-0.5-3.1-3.2-6-5.3-8.7c-1.3-3.9-5.4-6-6.5-10C49.2,335.3,49.2,335.1,49.2,334.8
		z"/>
	<path fill-rule="evenodd" clip-rule="evenodd" fill="#222222" d="M100.3,336.8c-3.1-4.2-5.8-8.7-12.1-8.9c-5.5-0.2-6.4-5.6-9-9.1
		c-2.7-1-4.2-2.8-4.2-5.9c0-2.9-0.9-5.6-3.9-6.3c2.5,2.3,2.9,5.1-0.3,7.1c-3.2,2-4.7,4.9-6.4,8c-2.5,4.6-3.2,4.6-7.4,1.5
		c-2.7-2-6.9-2.9-5.1-7.8c1.9-2.5,6.1,0.5,7.6-3.1c0.1-0.5,0.4-0.8,0.7-1.2c2.6-2.4,4.9-4.6,1.8-8.6c-1.5-2,1.5-5.5-1.3-7.7
		c-0.3-0.5-0.4-0.9-0.4-1.5c0.2-1.4,1-2.3,1.9-3.3c4.1-1.9,8.3-3.5,11.7-6.6c2.1-1.9,5.2-1.9,7-0.7c3.7,2.5,8.5,4,9.9,9.2
		c1,3.6,4.1,3.2,7,2.9c1.7-0.2,3.4-0.1,4.3,1.7c0.9,1.9,0,3.2-1.4,4.3c-3.9,0.6-7.9,1.1-11.8,1.5c-4.3,0.4-6.6,2.4-7.5,6.6
		c-1.1,5-0.4,8.7,3.6,10.3c8.2,3.3,15.7,7.5,21.3,14.5c0.3,0.4,0.8,0.5,1.3,0.8c0.7,0.4,1.4,0.9,2,1.4c0.8,0.6,1.7,1.2,2.6,0.2
		c0.8-1,0.6-2.1-0.1-3.2c-0.4-0.5-1.1-0.8-1.5-1.2c-3.3-3.5-3.1-5.8,0.7-9.1c1-0.8,1.5-2.2,2.9-2.5c3.9-1,7.7-1.9,11.7-2
		c2.5-0.1,5.2-0.9,6.9,2c-0.8,2.5-2.9,3.8-5.2,4.8c-6.8,3-7.2,5.3-1.6,10.4c0.4,0.3,0.5,0.8,0.6,1.3c0,1.8,1.6,3.2,1,5.1
		c-1.5,3.6-5.6,3.9-8.3,4.6c-4.6,1.2-9.6,3.1-14.7,0.7c-2.1-1-2.7-2.4-2.8-4.1C101.7,340.8,101.5,338.7,100.3,336.8z"/>
	<path fill-rule="evenodd" clip-rule="evenodd" fill="#212121" d="M228.4,298.2c0.5,2.6-1.4,4.4-2.2,6.6c-2.4,3.7-3.2,8.2-6.4,11.4
		c-0.5,0.5-0.8,1-1.5,0.5c-0.1-2.5,1.2-4.4,2.5-6.3c1.7-2.5,3.2-5.2,1.8-8.3c-0.8-1.6-0.7-4.5-3.2-4.4c-2.1,0.1-4.6,1.4-5.1,3.4
		c-2.7,10.5-10.6,17.8-15.9,26.7c-7.4-1.2-8.8-2.2-9.7-7.1c0.4-0.8,1-1.2,1.8-1.4c1.4-0.9,3.1-0.6,4.6-0.7c2.5-0.1,4-1.7,3.3-3.4
		c-1.9-4.8,1.4-7,3.9-9.7c0.9-0.9,2.7-1.3,2.5-2.8c-0.6-4.8,2.5-7.8,5.6-10.5c2.7-2.3,1.6-5.2,2-7.9c0.9-3.1,4-3.6,6.3-4.7
		c1.3-0.7,2.2-1.2,2.2-2.7c0.2-0.5,0.4-0.9,0.7-1.3c3-3.5,6.3-6.7,5.3-12c-0.5-2.5,1.7-4,3.6-4.8c2-0.8,3.5,0.1,3.3,2.7
		c-0.7,6.5-0.4,13.1-1,19.6C232.2,287.1,230.9,292.8,228.4,298.2z"/>
	<path fill-rule="evenodd" clip-rule="evenodd" fill="#1B1B1B" d="M189.2,320.8c2,3.6,6.2,4.4,9,7c-6.7,1.8-10.1-0.1-11.2-6.2
		c-0.7-3.5-3.9-4.4-6.3-4.7c-3.8-0.5-5.1,3.3-6.1,6.1c-0.8,2.6-2,4.4-3.7,6.5c-3.6,4.4-6.4,3.4-9.6,0.2c-0.2-0.2-0.3-0.4-0.5-0.6
		c-0.2-0.8,0-1.4,0.4-2.1c2.5-1.8,3.8-5.1,7.5-5.5c1.1-0.1,1.9-1.3,1.9-2.6c0.1-2.8,1-5.4,1.8-8.1c1.2-4.1-2.6-5.5-5.9-6.4
		c-1.1-0.1-2.2-0.2-3.3-0.2c-2.9-0.1-5.9,0.3-8.4-1.9c-1-1-1.8-1.9-1.5-3.3c0.4-1.4,1.4-2.1,2.8-2.4c2.9-0.7,5.8,0.3,8.6-0.1
		c2.6-0.5,4.5-1.4,4.5-4.7c0-2.3,2.1-3.1,4.4-2.8c4,0.6,7.9,5.3,7.7,9.4c-0.2,4.4,2.4,7.8,7.2,9.5c0.4,0.3,1,0.8,0.8,1.2
		C187.8,313,189.6,316.9,189.2,320.8z"/>
	<path fill-rule="evenodd" clip-rule="evenodd" fill="#1B1B1B" d="M100.3,336.8c1.6,1.2,1.8,3,2.2,4.8c0.5,2.7,2.2,4.3,4.8,5.1
		c3,1,3-1.2,3.7-3.1c0.5-1.4,1.9-1.3,2.9-0.5c2.9,2.3,5.4,2.5,8.2-0.5c0.8-0.9,2.8-0.6,4.3-0.8c1.8-1.2,3.7-0.8,5.7-0.5
		c4.3,0.6,7.9-0.4,10.1-4.5c0.9-1.7,2.1-2.4,4.4-2.5c3.4-0.2,6.7-1.5,9.4-4c1.6-1.5,3.3-3.2,5.4-0.5c0,0,0,0,0,0
		c-5.5,5.5-10.8,11.1-15,17.7c-3.1,4.7-9.3,5.4-13.6,1.6c-4.4-3.9-9-2.8-12.9-0.8c-6.1,3.1-11.5,0.5-17.2-0.3
		c-1.5-0.2-1.5-2-1.6-3.3C100.8,342.1,100.5,339.5,100.3,336.8z"/>
	<path fill-rule="evenodd" clip-rule="evenodd" fill="#1A1A1A" d="M53.2,315.8c0.1,2.6,1.9,4.2,3.8,5.6c3.9,2.9,5.8,2.2,7.1-2.4
		c0.1-0.5,0-1.1,0.3-1.4c3.9-4.5,6.7-9.2,2.7-15.2c-0.5-0.8,0.1-2.5,1.5-2.7c1.7-0.3,1.8,1.1,1.9,2.3c0.2,1.3,0.7,2.6,2.1,2.2
		c5.2-1.4,4.2,2.3,4.7,5.2c0.5,3.2,0.1,6.7,1.9,9.7c-2,0-4,0.2-6,0.1c-5.5-0.1-8.4,2.2-9.2,7.8c-0.2,1.7-0.2,3.5-2.2,4.1
		c-2.3,0.7-2.5-1.6-3.4-2.9c-1.4-2.1-2.2-4.9-6-3.1c-1.5,0.7-2-1.3-2.2-2.6c-0.4-3.5-0.7-6.9-1.1-10.4
		C52.2,311.6,54.5,311.9,53.2,315.8z"/>
	<path fill-rule="evenodd" clip-rule="evenodd" fill="#2D2D2D" d="M53.2,315.8c-0.7-1.9-2.4-2.9-4-4c0-0.7,0-1.3,0-2
		c0-1.4,0.2-2.8,1.1-4c5.3-0.2,7.6,4.2,11,7c0.8,4.9,0.3,5.4-4.3,3.9C55.8,316.4,54.5,316.1,53.2,315.8z"/>
	<path fill-rule="evenodd" clip-rule="evenodd" fill="#0E0E0E" d="M197.7,336.1c-1-0.1-1.6-0.7-1.1-1.6c0.8-1.6,1.6-3.5,3.6-3.8
		c1.3-0.2,1.6,0.9,1.4,2C201.2,334.3,199.1,336.3,197.7,336.1z"/>
	<path fill-rule="evenodd" clip-rule="evenodd" fill="#404040" d="M218.2,316.8c2.7-4,5.3-8,8-11.9c-1.4,5.1-2.4,10.4-7.8,13.1
		C218.3,317.6,218.3,317.2,218.2,316.8z"/>
	<path fill-rule="evenodd" clip-rule="evenodd" fill="#242424" d="M45.2,57.8c-1.3,1-2.7,2-4,3c3.1-7.3,9.5-11.8,15-17
		c4.9-2.8,9.7-5.9,15-8c-6.7,6.6-16.7,8.8-22.4,16.8C47.6,54.3,45.8,55.6,45.2,57.8z"/>
	<path fill-rule="evenodd" clip-rule="evenodd" fill="#323232" d="M248.2,158.8c-2-1-2.8-2.6-3.1-4.7c-0.5-3.4-2.5-4.9-5.9-4.3
		c2.2-7.5,3.6-15.2,3.1-23.1c-0.1-1.3-0.6-3.4,1.5-3.6c1.7-0.2,2.4,1.7,2.8,3.1c0.4,1.3,0.7,2.6,0.6,3.9
		C246.2,139.7,247.2,149.3,248.2,158.8z"/>
	<path fill-rule="evenodd" clip-rule="evenodd" fill="#6E6E6E" d="M226.2,148.7c1.7-0.8,3.5-0.9,5.3-0.9c2.7,0,4.4-1.1,4.7-4
		c0.9,1.5,1,3.2,0.9,4.9c-0.3,0.4-0.6,0.7-0.9,1.1c-1.7,0-3.3,0-5,0C229.8,148.5,227.6,150.2,226.2,148.7z"/>
	<path fill-rule="evenodd" clip-rule="evenodd" fill="#686868" d="M145.2,56.8c10.5-1.3,21-2.3,31.6-1.5c5.1,0.4,10.1,2.1,14.5-2.3
		c1.1-1.1,2.8-0.9,4.3-0.4c1.3,0.4,2.7,1.2,3.8,1c8.1-2,12.4,3.7,17.3,8.2c1.8,1.7,3.7,3.4,5.5,5c0.7,1,1.3,2,2,3c0,0.7,0,1.3,0,2
		c-4.6-5-6.5-5.1-12.4-1.2c-3.2,2.2-6.4,4-10.5,1.4c-2.1-1.4-9,2.7-11.5,6c-2.2,3-3.8,7.3-8.5,6.8c-7.3-0.8-13.7-4.2-19.8-8.1
		c-1-0.6-1.3-1.9-0.8-3.2c0.5-1.2,1.6-0.8,2.5-1.1c5.6-1.9,11.5-3.2,16.3-6.8c1.8-1.3,3.5-3,2.9-5.4c-0.6-2.5-3.1-2.1-5-2.3
		C166.8,56.6,156,56.9,145.2,56.8z"/>
	<path fill-rule="evenodd" clip-rule="evenodd" fill="#6E6E6E" d="M228.2,86.8c0-1.7,0-3.3,0-5c0.7,1.3,1.8,2.6,1.9,4
		c1.1,9.7,5.7,18.7,6.2,28.4c0.5,9.9,0.5,19.7-0.1,29.6c-2.2-8.3-3.1-16.9-2.7-25.5c0.1-2.4-0.5-4.5-0.9-6.8
		C231,103.4,229.7,95.1,228.2,86.8z"/>
	<path fill-rule="evenodd" clip-rule="evenodd" fill="#525252" d="M115.2,47.8c-9,0.8-17.7-2.6-26.7-2.4c-3.2,0.1-6.6-1.1-8.3-4.6
		c9.9,5.6,21.3,3.2,31.7,6.1C113,47.2,114.1,47.5,115.2,47.8z"/>
	<path fill-rule="evenodd" clip-rule="evenodd" fill="#525252" d="M80.2,40.8c-3.7,0.7-7.3,1.3-11,2C72.1,38,76.3,39.8,80.2,40.8z"
		/>
	<path fill-rule="evenodd" clip-rule="evenodd" fill="#131313" d="M206.2,147.8c4.6,2.1,7.4,6.9,13,7.6c-1.1,2.6-10-1.8-3.9,5.2
		c-0.2,1.1-0.7,1.6-1.9,1.2c-0.5,0.6-1.5,1.2-1.5,1.9c-0.4,8.8-1.6,17.5-1.1,26.3c0.5,8.3,3.5,16.7-1.1,24.9
		c-0.9,1.7-1.6,3.9,0.3,5.5c2.1,1.8,4.1,0.4,5.8-0.9c1.9-1.4,3.6-2.9,5.5-4.3c1.1-0.9,1.9-2.9,3.6-2c1.6,0.8,0.9,2.6,0.8,4.1
		c-0.1,0.8-0.2,1.7-0.2,2.5c0,0.2-0.1,0.5-0.1,0.7c-3.6,4.5-9,6.5-13.3,10.1c-1.4,0.8-3,0.8-4.4,1.2c-1.9,0.3-3.5,1.4-5.3,1.9
		c-10.4,0-20.6-0.6-30.9-2.9c-9.3-2-15.5-9.1-23.6-12.8c-1.5-0.7-1.7-2.4-2.2-3.8c-1.3-3-2.7-6.1-1.4-9.5c1.9-2,3.4-1,5.1,0.5
		c9.5,8.5,20.4,14.8,32.8,18.1c1.8,0.5,3.6,0.7,5.4,0.4c2.1-0.4,3.3-1.3,2.2-3.8c-2.1-5-1.2-7.1,4.2-8.7c6.1-1.8,9.1-5.7,9.3-12
		c0.1-2.3-0.2-4.4-1.9-6c-3.2-3-2.7-6.3-0.6-9.5c1.8-2.6,1.9-4.7-0.2-7.2c-2.3-2.7-2.3-6-1.9-9.5c0.9-8.7-0.6-10.6-9-9.9
		c-11.7,1.1-23.6,1.6-34.6,6.6c-4.1,1.9-5.7,4.8-6.4,9.2c-0.9,6.1,0.3,11.8,1.4,17.7c1.3,7.1-0.3,9.1-7.7,10.2
		c-2.4-0.5-2.3-2.8-3.2-4.4c-2-3.6-1.4-7.6-2.1-11.3c-1.2-6.5,1.4-11.4,3.5-16.6c3.2-7.8,10.7-11.3,17-15.8c1.5-1,3-1.8,4.1-3.3
		c4.2-1.9,8.3-4,12.1-6.7c1.9-1.4,3.8-1.9,6.1-1.2c2.4,0.7,5,0.4,7.4,0.6c1.6,0.1,3.4-0.1,4.6,1.3c1.5,1.8,3.1,2,5.4,1.4
		C200.6,144.3,203.8,145,206.2,147.8z"/>
	<path fill-rule="evenodd" clip-rule="evenodd" fill="#797979" d="M207.3,230c1.3-0.4,2.6-0.9,4-1.3c1-1.5,2.5-2.2,4.3-2.3
		c2.3,1.1,2.9,2.8,2,5.3c-0.8,2.2-0.3,4.3,1.9,5.6c2.3,1.3,4.5,0.9,6.4-0.8c3.3-2.8,4.9-6.6,5.8-10.7c0.9-4.6,2.1-9.2,1.5-13.9
		c1.1-3.3,2.2-6.5,3.3-9.8c3.6-1.4,3,1.4,3.3,3.4c1.8,11.3-1,21.7-5.6,31.9c-1.6,5.5-5.8,9.8-7.9,15.1c-2.3,6-8.3,9.9-9.4,16.6
		c-0.1,0.4-0.3,0.9-0.8,1.1c-5.7,2.3-6.5,7.6-7.8,12.7c-1.3,1.1-2.6,2-4.1,2.8c-2,1.1-3.5,2.6-3.4,5.3c0.1,3-1.4,5.7-4.4,6.4
		c-3,0.7-4.1-1.8-5.1-4.3c-0.8-2.1-3.3-3.3-4.1-5.5c0.1-1.6-0.4-3.1-0.3-4.7c2.4-3.3,6-4.1,9.7-3.8c3.7,0.4,5.8-1.2,7-4.2
		c1.3-3.2,0.1-6.2-2.8-7.7c-3-1.6-4.3-4.6-6.8-7c2,9.5-3.9,14.2-10.2,18.7c-5.4-3.6-8.5-8-5.8-14.8c0.4-1.1,0.7-2.4,0.3-3.4
		c-2.1-6,0.3-12.2-1-18.2c-0.7-3.4,1.4-5.5,4.7-4.9c7.1,1.3,13.1-2.8,19.8-3.4C204.3,233.7,205.6,231.6,207.3,230z"/>
	<path fill-rule="evenodd" clip-rule="evenodd" fill="#343434" d="M228.4,298.2c3.1-11.1,5-22.4,4-34c-0.1-1.1,1.1-3.1-0.9-3.3
		c-1.8-0.1-2.9,1.6-2.7,3.5c0.6,4.8-2.6,8.1-4.8,11.8c-0.2,0.4-1.2,0.4-1.8,0.7c-2.7-2.1-1.4-4.8-1-7.2c0.4-2.4,1.7-4.7,2.6-7
		c2.6-6,7-11.3,7-18.3c0.1-0.5,0.3-1,0.6-1.4c4-11,5.7-22.6,7.2-34.2c0.4-3,0.9-6.3-1.5-9c1-4.6,2-9.3,3.1-13.9
		c-0.5,11.7,1.6,23,4.3,34.3c0.4,1.7,1.5,3.3,2.5,4.8c2.8,4.3,2.8,8.3-1.5,10.7c-8,4.4-8.8,12.1-10,19.5c-1.4,8.8-1.6,17.8-2.3,26.7
		C232.8,287.6,232.1,293.4,228.4,298.2z"/>
	<path fill-rule="evenodd" clip-rule="evenodd" fill="#828282" d="M233.1,211.8c1.5-0.8,3.3-1.2,2.9,1.3c-1.2,8.5-1,17.4-7.3,24.4
		c-2.9,3.3-7.5,4.4-11.2,2.2c-3.8-2.3-4.2-5.6-2.6-9.5c0.4-1,0.2-2.3,0.3-3.4c2.9-3,7.1-4.2,10.1-7c0,0,0,0.1,0,0.1
		C229.2,218.4,230.7,214.7,233.1,211.8z"/>
	<path fill-rule="evenodd" clip-rule="evenodd" fill="#4F4F4F" d="M213.4,161.9c0.6-0.4,1.3-0.8,1.9-1.2c0,0,0,0.5,0,0.5
		c2.1,1.2,2.2,3,1.8,5.1c-0.4,2.1-0.4,4.2-0.3,6.5c0.4-2.2,1.2-4.2,1.2-6.4c0-2.4,0.2-4.8,2.8-5.8c2.5-1,4,0.9,5.6,2.2
		c3.5,1.3,0.3,5.4,2.9,7.1c0,0.4,0,0.7,0.1,1.1c-0.7,2.6-3.6,3.2-5.2,5c5.2,2.4,7.5,11,4.5,16.3c-1.4-0.9-2.5-2.2-3.8-3.2
		c-1.1-0.9-2.5-0.9-3.7-0.2c-0.5,0.3-0.7,0.8-0.5,1.3c0.6,1.5,1.9,1.8,3.3,1.7c2-0.2,4.4-1.5,5.4,1.6c-1,4.9-1,4.9-6.9,3.5
		c-7.5-3-11-8.2-10.1-16.6C212.7,174.1,212.1,167.9,213.4,161.9z"/>
	<path fill-rule="evenodd" clip-rule="evenodd" fill="#3C3C3C" d="M226.2,148.7c1.7,0.2,3.5,0.1,5,1.1c-7.1,0.8-13.9-2.3-21-2
		c-3.6-1-7.2-0.3-10.9-0.5c-1.5-0.1-3.4,0.3-4.3-0.8c-4.9-5.9-11.9-3.8-18-4.7c-1.4,0.1-2.8,0.7-4-0.7c-0.8-2.5,1.3-2.5,2.7-3.2
		c5.6-3,11.6-1.3,17.4-1.7c3-0.2,5.9,0.2,8.9,0c2.1-0.1,4.1,0.4,5.4,2.1c3.5,4.4,8.1,6.9,13.5,8.2c0.8,0.3,1.6,0.6,2.2,1.2
		C224.2,148.2,225.2,148.4,226.2,148.7z"/>
	<path fill-rule="evenodd" clip-rule="evenodd" fill="#232323" d="M177.2,140.8c6.7-1.4,13.5-2.9,18.3,4.2c1.3,1.8,3.4,1.7,5.4,1.8
		c3.1,0.2,6.3-0.5,9.3,1c-1.4,0-2.7,0-4.1,0c-5.7-0.3-11.2-0.7-16.9-2.1c-5.8-1.5-13.4-4.5-19.4,1.8c-1.8,1.9-4.9,2.7-7.7,3.3
		c-0.7,0.6-1.4,0.6-2.2,0.1c1.3-3.8,8.3-9.5,12-9.4C173.9,141.6,175.6,141.7,177.2,140.8z"/>
	<path fill-rule="evenodd" clip-rule="evenodd" fill="#717171" d="M225.3,163.7c-1-0.7-1.7-2.4-3.3-1.7c-1.4,0.6-1.8,2-1.5,3.4
		c1,4.1-1.8,7.6-1.5,11.7c0.1,1.9-1.4,3-3.3,2.9c-2.3-0.1-2.4-2-2.3-3.7c0.5-5.1,1.2-10.2,1.8-15.2c4.2-4,8.2-2.5,12.1,0.6
		C227.3,163,226.2,163.2,225.3,163.7z"/>
	<path fill-rule="evenodd" clip-rule="evenodd" fill="#363636" d="M222.3,196.8c3.7,0.3,6.4-0.5,5.9-5l0,0c2.1-4.3,0.5-8.3-0.6-12.2
		c-1.7-0.5-1.9,0.8-2.4,1.5c-0.8,1-1.6,1.6-2.9,1.3c-1.3-0.4-1.6-1.5-1.9-2.6c-1.2-5.7,0.4-7.8,6-8.2c1-0.1,1.9-0.5,2.9-0.7
		c-0.6,4.8-0.1,9.5,0.8,14.2c0.4,2.6,0.3,5.3,0,7.9C229.4,198.8,227.8,199.5,222.3,196.8z"/>
	<path fill-rule="evenodd" clip-rule="evenodd" fill="#111111" d="M230.2,162.9c3.6-2.3,4.5,1.7,4.4,2.9c-0.7,9.1,0.8,18.4-2.4,27.4
		c-1.1-8.2-0.9-16.4-2.6-24.4C227.6,166.6,227.8,164.6,230.2,162.9z"/>
	<path fill-rule="evenodd" clip-rule="evenodd" fill="#515151" d="M237.2,199.7c3.3,0.7,2.1,3.4,2,5.3c-0.7,13.2-3,26.2-7,38.9
		c-1.3-2-0.6-4,0-6c3.5-9.7,4.4-19.9,5.8-30c0.3-2.1,0.7-4.4-1.6-5.8C236.7,201.2,236.9,200.5,237.2,199.7z"/>
	<path fill-rule="evenodd" clip-rule="evenodd" fill="#8F8F8F" d="M230.2,162.9c-0.2,2-0.4,3.9-0.7,5.9c-0.1,0.3-0.2,0.6-0.4,1
		c-5.3,0.6-2.3-4.2-3.8-6c0.4-1,1.1-1.6,2-2C228.3,162.1,229.3,162.5,230.2,162.9z"/>
	<path fill-rule="evenodd" clip-rule="evenodd" fill="#7A7A7A" d="M240.2,244.8c-0.7,7.1-2.7,14-4.1,21
		C236.2,258.5,236.7,251.4,240.2,244.8z"/>
	<path fill-rule="evenodd" clip-rule="evenodd" fill="#888888" d="M231.2,122.9c-0.6,3.5-1.4,7.9-0.6,12.4c0.2,1.3-0.5,3-1,4.3
		c-2,4.8-6.8,5.3-9.7,1.1c-1.7-2.4-3.6-5.1-4.2-7.9c-1.3-6.6-4.1-12.5-7.1-18.4c-0.8-1.5-1-3.2,0.7-4.5c0.9-0.7,1.1-1.6,0.4-2.6
		c-2.1-2.6-1.1-4.6,1.2-6.3c2.3-1.7,4.9-3,7.3-0.9C224.9,106,231.1,112.2,231.2,122.9z"/>
	<path fill-rule="evenodd" clip-rule="evenodd" fill="#4A4A4A" d="M221.2,147.8c-5.4-0.6-10.7-1-13.7-7c-1.9-3.8-6.1-2.9-9.4-2.7
		c-8.3,0.5-16.9-0.5-24.9,2.6c-3.8,1.8-7.3,4-10.6,6.6c-2.2,1.8-4.6,3.2-7.9,2.8c-2.6-0.3-4.7,2.1-6.7,3.7c-1.6,1.3-3.4,2.1-5.4,2.4
		c-2.2,0.4-4.4,1.2-6.6-0.2c-0.5-0.4-0.8-0.8-0.9-1.4c0-0.3,0.1-0.6,0.1-0.9c0.1-1.8,1.7-2.4,2.9-2.7c1.1-0.3,2.5-0.7,3-1.4
		c7.7-9.2,19.1-9.4,29.4-11.6c9-1.9,18.3-3.3,27.7-3.4c5.2-0.1,9.2,2,13.1,5c0.7,0.4,1.3,0.7,2,1.1
		C216.6,142.4,219.8,144.1,221.2,147.8z"/>
	<path fill-rule="evenodd" clip-rule="evenodd" fill="#6B6B6B" d="M211.3,139.7c-7.8-4.7-15.9-4.5-24.5-2.5
		c-5.3,1.2-10.8,1.2-16.3,1.8c-7.6,0.9-14.1,5.7-21.8,6.2c-0.9,0.1-2,1.1-2.7,2c-2.7,3.7-6.4,5.7-10.8,6.5c-1.7,0-3.3,0-5,0
		c6.7-4.3,13.3-8.7,20-13c16.1-3,32-7.5,48.6-7C203.8,134,208.2,135.4,211.3,139.7z"/>
	<path fill-rule="evenodd" clip-rule="evenodd" fill="#818181" d="M171.1,126.9c2.1,0.4,4.8,0.2,5.2,3.2c0.2,1.8-1.3,2.6-3,2.4
		c-2.4-0.2-4.6-1.4-5.2-3.8C167.8,126.9,169.8,127.1,171.1,126.9z"/>
	<path fill-rule="evenodd" clip-rule="evenodd" fill="#5C5C5C" d="M221.2,147.8c-2.7-2.3-5.3-4.7-8-7c4.7,0.4,7.5,3.5,9.9,7.1
		C222.5,147.9,221.9,147.8,221.2,147.8z"/>
	<path fill-rule="evenodd" clip-rule="evenodd" fill="#3F3F3F" d="M135.1,154.7c0.4,0.1,0.8,0.1,1.2,0.2c0.5,2-0.9,2.8-2.4,3.6
		c-5.2,1.7-10.7,0.3-16.1,1.2c-4.1,0.6-8.1-2.8-10.6-6.8c-1.3-1.5-3-2.2-4.9-1.9c-9.7,1.7-16-2.7-20.2-11.1
		c4.6-0.1,7.2,3.5,10.6,5.7c0.9,0.6,1.9,2,2.7,1.9c6.3-0.5,11.3,2.8,16.6,5.4C119.6,156.5,127.5,154.3,135.1,154.7z"/>
	<path fill-rule="evenodd" clip-rule="evenodd" fill="#191919" d="M133.2,155.9c1-0.3,2.1-0.6,3.1-1c2-0.3,4-0.7,5.9-1
		c5.2-1.4,10.1-4.3,15.8-4c0.9,0.1,1.6,0.2,2.2,0.9c0.7,0,1.3,0,2,0c-1,5.2-6.3,6.1-9.6,8.5c-12.3,9.1-16.4,20.2-11.7,34.7
		c0.2,0.6,0.1,1.3,0.2,2c-4.4-0.4-4.2-4.6-5.7-7.3c-1.2-2-1.6-4.6-3.3-6.2c-1.6-1.6-2.6-4.4-5.8-3.5c-3.2,0.9-5.8,2.5-6.8,5.9
		c-0.3,0.9-0.1,2-0.6,2.9c-1.9,1.6-2,3.9-2.6,6.1c-2.8,3.8-5.8,7.5-6.8,12.4c-0.3,1.5-1.5,2.6-3.3,2.5c-1.3,2.4-2.6,4.7-3.9,7.1
		c-8.1,14.9-22.2,14.6-36.4,14.2c12.2-2.3,23.1-6.8,31.3-16.6c8.3-9.9,9.9-22,12.7-33.9c-2.2,0.8-1.5,3-2.6,4.3c0-0.7,0-1.3,0-2
		c0-16.1-6.9-23.2-23.3-24c-4.6-0.2-9.3-0.6-13.7-2c3.6,0,7.3-0.1,10.8,0.6c1.5,0.3,3.2,0.5,3.9-1.3s-1-2.1-2.1-2.8
		c-0.8-0.5-1.9-1.2-1.5-2.3c0.7-1.7,2.4-1,3.5-0.5c6.9,2.7,14.2,2.8,21.4,3.3c4.5,2.3,8.4,5.3,11.2,9.6c0.5,0.8,1.1,1.8,2.3,1.5
		c0.7-0.2,1-1,0.9-1.6c-0.1-5.9,3.7-6.3,8.2-6C130.3,156.4,131.9,156.8,133.2,155.9z"/>
	<path fill-rule="evenodd" clip-rule="evenodd" fill="#111111" d="M107.2,184.8c-1.5,9.1-4.4,17.5-10,25c-0.5-1.7-1.5-2.9-3.1-3.6
		c-4.5-1.9-7.8-9-6.6-13.6c0.8-3,3.1-3.5,5.7-3.8C98.1,188.4,103.2,188.5,107.2,184.8z"/>
	<path fill-rule="evenodd" clip-rule="evenodd" fill="#F1F1F1" d="M59.4,164c1.9,0,3.8,0,5.7,0.1c0,2.2,0,4.5,0,6.7
		c-2.3,1.4-5.1,0.7-6.5-0.7C56.9,168.5,57.5,165.8,59.4,164z"/>
	<path fill-rule="evenodd" clip-rule="evenodd" fill="#616161" d="M60.3,180.8c-1.9-1-3.4-2.4-2.5-4.7c1.1-3,3.8-2.6,6.3-2.4
		c-0.3,0.7-0.6,1.3-0.9,2C60.8,176.6,60.5,178.7,60.3,180.8z"/>
	<path fill-rule="evenodd" clip-rule="evenodd" fill="#797979" d="M51.2,171.8c-0.1-4.2,0.2-8.1,6-7.9
		C54.1,165.7,53.1,169.1,51.2,171.8z"/>
	<path fill-rule="evenodd" clip-rule="evenodd" fill="#272727" d="M133.2,155.9c-0.2,0.1-0.3,0.2-0.5,0.2c-7.1,0-11.1,2.8-9.7,10.7
		c0.2,1.3-0.4,2.7-2,3.1c-2,0.4-3.1-1.1-3.9-2.5c-3-5.3-5.7-10.9-11-14.4c0.3,0,0.7,0,1,0c2,1.1,4.1,2.2,6.1,3.4
		c1.8,1,3.7,2,5.7,1.2C123.6,155.4,128.5,155.9,133.2,155.9z"/>
	<path fill-rule="evenodd" clip-rule="evenodd" fill="#333333" d="M29.3,265.8c0.3,0,0.7,0,1,0c1.8-0.4,2.7,0.9,3.8,1.9
		c0.8,0.7,1.6,1.9,2.9,1.4c3.6-1.4,3.9,1.1,4.2,3.5c0.2,1.2,0.2,2.5,1.6,2.8c2.3,0.6,2.6,2.2,2.4,4.2c-0.1,1.6,0.3,3,1.7,3.9
		c4.8,3.8,6.3,8.9,6.1,14.8c-0.5,1.5-0.1,3.8-2.8,3.5c-1.2-5.5-2.2-11-6.6-15.1c-1-0.9-2.1-2.6-3.2-1.9c-6.5,4.4-5.8-2.8-7-4.9
		C31,275.8,30,270.7,29.3,265.8z"/>
	<path fill-rule="evenodd" clip-rule="evenodd" fill="#404040" d="M50.2,301.8c0.3-1.3,0.7-2.7,1-4c2.1-1.2,4.1,0.4,4.4,1.5
		c1,4,3.9,3,6.5,3.1c3.2,4.6,3,7.4-0.9,10.4c0,0,0,0,0,0c-0.1,0.1-0.3,0.2-0.4,0.3c-0.7,0.5-2,0.8-2.2,0c-0.9-4.7-8.3-1.9-8.4-7.3
		C50.3,304.5,50.3,303.2,50.2,301.8z"/>
	<path fill-rule="evenodd" clip-rule="evenodd" fill="#333333" d="M26.2,254.8c2.1,3,3.4,6.2,3,10C26.3,262.1,26.1,258.5,26.2,254.8
		z"/>
	<path fill-rule="evenodd" clip-rule="evenodd" fill="#474747" d="M45.2,283.8c-0.1-4.6-4.6-7.3-5.2-11.7c-0.1-0.5-1-1.3-1.2-1.2
		c-5.3,2.3-5.8-3.3-8.5-5.1c0-2.7,0-5.3,0-8c1.6,1,2.5,2.5,3.1,4.3c0.8,2.5,1.1,5.9,5.5,3.7c1.2-0.6,1.9,1,2.2,2.1
		c0.5,1.9,0.8,3.9,1.3,5.8C46.8,276.1,46.3,279.9,45.2,283.8z"/>
	<path fill-rule="evenodd" clip-rule="evenodd" fill="#7C7C7C" d="M64.2,234.8c8.4-0.1,16.9,0.1,25.2-1.8c5.7-1.2,7.9,1,6.7,6.8
		c-1,4.7,0.6,5.9,4.9,5.7c4.4-0.2,8.9,1.5,13.2-0.8c0.3-0.4,0.7-0.5,1.2-0.3c1.6,1.8-0.3,3.3-0.3,5c0.2,4.5,1.1,5.4,5.6,4.9
		c0.8,0.1,1.5,0.4,2,1c0.9,2.4-1.1,3.4-2.2,4.8c-0.4,0.4-0.8,0.7-1.3,0.9c-5.4,1.9-9.8-0.6-14.2-3.4c-0.8-0.3-1.6-0.6-2.3-0.9
		c-1.4-0.5-2.7-0.3-3.5,1c-0.8,1.5,0.5,2.2,1.3,3.1c1.8,2,4.9,3.9,2.7,7c-1.7,2.4-3.5,5.1-7.4,5.3c-2.9,0.2-6.1,0.8-8.2,3.4
		c-0.5,0.1-1,0.2-1.5,0.2c-2.1-0.4-4.3-0.8-6.4-0.3c-2.7,0.6-4.5-0.3-5.5-2.9c3.9-1.7,8.1-1.8,12.2-2.2c4.5-0.4,7.3-3.6,7.3-7.9
		c0-6.2-2.2-9.1-7.4-9.6c-5.4-0.6-5.4-4.9-5.5-8.6c-0.3-9.8-0.1-9.8-10.2-9.8c-1.8,0-3.7,0-5.5,0C64.3,236.1,64,235.7,64.2,234.8z"
		/>
	<path fill-rule="evenodd" clip-rule="evenodd" fill="#989898" d="M64.2,234.8c0.3,0.3,0.7,0.7,1,1c3.5,1.4,7.1,1.3,10.8,1.3
		c1.8,0,3.5,0.1,3.2,2.6c-0.4,3.6-9.2,7.6-11.8,5.2c-2.8-2.6-6.9-1.9-9.6-5c-2.5-2.9-2.2-4.2,1.3-5.1
		C60.9,234,62.6,234.1,64.2,234.8L64.2,234.8z"/>
	<path fill-rule="evenodd" clip-rule="evenodd" fill="#6F6F6F" d="M74.3,273.9c3.8,2.2,8,0.1,12,1c1,2.5-0.8,3.3-2.5,3.4
		c-3.5,0.3-6.6,1.6-9.8,2.7c-3,2.5-4.5,6.6-8.4,8.3c-0.6,0.7-1.5,1-2.1,1.7c-0.4,1-0.8,2-1.2,2.9c-0.4,2.3,0.2,5.3-3.7,5.1
		c-2-3.8-5.4-6.9-6.4-11.3c0.1-0.2,0.1-0.5,0.2-0.7c0.5-4.6-4.8-7.3-4-12c2.9,2.7,5.4,5.7,6.1,9.8c0.4,2.4,1.8,4.5,4.1,5.2
		c2.6,0.8,2.9-2,4.1-3.4c2.4-2.5,6.1-4.2,5.6-8.6c1.8-0.8,3.8-1.2,5-3C73.6,274.5,73.9,274.2,74.3,273.9z"/>
	<path fill-rule="evenodd" clip-rule="evenodd" fill="#7C7C7C" d="M64.2,234.8c-1.7,0-3.3,0-5,0c-3.5-1.9-8.3,0-11-4
		C53.6,232,59.1,232.6,64.2,234.8z"/>
	<path fill-rule="evenodd" clip-rule="evenodd" fill="#7A7A7A" d="M115.2,244.8c-0.3,0-0.7,0-1,0c2.9-4.3,1.3-7.6-1.7-11.2
		c-3.7-4.4-9.1-7.8-8.8-14.8c0.2-3.6,2.9-6.4,2.5-10.1c2.4-5.5,4.6-11.1,7.9-16.2c2.8,0.7,2.5,2.9,2,4.8c-1.3,4.7-1,9.7-2.6,14.4
		c-0.9,2.6,0.4,4.8,1.5,7c0.3,0.6,0.8,1,1.3,1.5c1,1,1.7,2.2,1.4,3.6c-1.6,6.9,6.1,13.9-0.3,20.7C116.7,245.1,116,245.3,115.2,244.8
		z"/>
	<path fill-rule="evenodd" clip-rule="evenodd" fill="#535353" d="M58.3,297.8c2-0.6,2.7-2.6,3.9-4c0.1,0.3,0.2,0.6,0.3,1
		c2.8,3.1-0.1,5.5-1.2,8c0,1.2,0,2.3-0.2,3.5c-0.4,2.3-1.1,3.5-3.4,1.2c-1.9-1.9-4.7-3-4.2-6.6c0.2-1.4-1.2-2.3-2.3-3
		c0.5-5.7-1.9-10.2-6-14c0.4-3.8-0.2-7.2-3-10c2.3,0.8,4,2.1,4.1,4.9c0.2,4,4.5,5,5.9,8.1l0,0C52.9,291.2,56.1,294.2,58.3,297.8z"/>
	<path fill-rule="evenodd" clip-rule="evenodd" fill="#080808" d="M75.3,367.8c-2-3.8-2.9-8.2-5.8-11.6c-0.9-1.1-1.1-2.5-0.3-3.7
		c2.4-3.6,6.1-2.8,9.6-2.5c3.2,0.3,3.4,2.6,2.9,5.2c-0.2,1.1-0.6,2.5,0.7,3.1c1.5,0.7,1.9-1,2.7-1.7c0.7-0.7,1.8-2,2.2-1.8
		c5.9,2.2,12,0.5,17.8,1.5c4.8,0.8,9.5,2.8,12.1,7.8c1,2,2.8,0.7,4.4,0c4.4-2.1,12,1.1,13.5,5.7c0.8,2.5,1.5,5.1,4.4,5.3
		c3,0.2,4.7-2.1,6-4.5c2.3-4.1,5.3-7,10.6-6.6c3.7,0.3,5.1,2,4.7,5.5c-1,7.2-6.3,12.5-13.5,13.2c-2.8,0.3-5.2,1.1-7.2,3.1
		c-0.1,0.2-0.2,0.5-0.4,0.7c-2.6,1.2-5.3,1.8-8.1,1.8c-3.2,0-6.1,0.8-8.3,3.3c-8,0.7-16,0.8-23.4-3.2c-0.8-1.8-1.8-3-3.5-4.3
		c-4.6-3.2-9.9-6-12.5-11.5c-0.7-1.4-1.8-1.9-3.2-1.9C78.6,370.5,76.9,369.2,75.3,367.8z"/>
	<path fill-rule="evenodd" clip-rule="evenodd" fill="#101010" d="M101.2,386.8c-6.4-5.1-15.9-5.7-20-14c-2.3-3.1-6.8-2.8-9-6
		c1,0.3,2,0.7,3,1c6.5,0.8,11.6,3.5,15.2,9.2C93.1,381.1,99,382,101.2,386.8z"/>
	<path fill-rule="evenodd" clip-rule="evenodd" fill="#080808" d="M78.9,344.1c-2.1-0.4-4.2-0.7-4.8-2.9c-0.4-1.5,0.7-2.1,2-2.1
		c2.2,0.1,4.3,0.7,4.7,3.4C80.9,343.8,79.8,344,78.9,344.1z"/>
	<path fill-rule="evenodd" clip-rule="evenodd" fill="#101010" d="M56.2,344.8c-4.2-2-6.2-5.6-7-10C51.8,338,55.6,340.3,56.2,344.8z
		"/>
	<path fill-rule="evenodd" clip-rule="evenodd" fill="#3C3C3C" d="M63.4,290.9c0.3-0.7,0.6-1.4,0.9-2.1c1-0.6,2.1-1.2,2.6-2.2
		c3.3-6.3,9.4-6.4,15-6.1c5.6,0.3,10.6-1.9,15.9-2.5c1.4-0.2,2.1-1.5,2.9-2.4c0.3-0.4,0.7-0.7,1.1-1c4.4-1,4.2-5.2,5.5-8.3
		c0.3-0.4,0.8-0.6,1.2-0.8c4.6-0.9,8.6,1.8,13,2.2c2.5,0.2,4.6,0.1,6.5-1.2c4.4-3,8.9-2.6,13.6-1.3c0.3,0.4,0.5,0.9,0.6,1.4
		c-0.1,1.6-1.2,2.2-2.5,2.6c-2.8,0.8-4.9,2.4-6.6,4.8c-1.8,2.6-4.6,2.6-7.6,1.7c-9.6-3-17.4,0.6-21.4,9.8c0.6,4.7,2.3,5.3,8,3.1
		c4.6-0.3,8.8-2.8,13.5-2.2c0.5,0,1,0.2,1.5,0.4c1.1,0.6,2.5,0.9,2.7,2.4c0.2,2.2-1,3.1-2.9,3.6c1.8-0.4,3.3-1.1,3-3.4
		c2.5-2.6,7.9-3.2,10.6-0.8c1.5,1.3,2.9,2.7,4.2,4.2c1.1,1.2,1.5,2.6,0.6,4.1c-0.8,1.4-2.1,2.3-3.7,1.9c-4.5-1.1-8.5,0.2-12.4,2.1
		c-2.4,1.1-4.8-0.7-7-0.5c6.2,1.7,12.6-1,19,0c2.2,0.3,5-0.1,4.6,3.6c-0.8,1.8-2.6,2.3-4.1,2.1c-3.3-0.5-6.6,0.4-9.8-0.1
		c-4.6-0.7-8.8,0.1-13.1,1.3c-6.4,0-11.7-4.2-17.8-5.1c-0.7-0.7-0.8-1.5-0.7-2.4c0.7-2.3-0.5-2.5-2.3-2.4c-2.1,0.2-4.3,0.3-6.4,0.1
		c-2.5-0.3-5.2-0.7-3.7-4.6c0.7-1.9-1-3.9-2.4-3.7c-4.4,0.5-5.5-9.1-11.4-3.5C71,288.4,67.4,290.2,63.4,290.9z"/>
	<path fill-rule="evenodd" clip-rule="evenodd" fill="#404040" d="M100.2,299.8c0.3,0.3,0.7,0.7,1,1c-1.7,4.2-6.7,2.3-9.3,4.9
		c-0.8,0.1-1.6,0-2.4-0.1c-5,0.6-7.1,5.3-4.3,9.3c1.8,2.6,4.3,4,7.3,4.4c3.6,2.4,6.8,2.6,10-0.9c0.9-1.1,2.6-2,4-1.8
		c7.6,1.4,14-1.7,20.7-4.4c6.4-2.6,10.8,1.7,15.4,4.8c1.6,1.1,2.9,2,4.9,1.1c0.5-0.2,0.9-0.2,1.4-0.2c3.9,3.3,5.3-1.3,7.8-2.5
		c0.7-0.4,1.5-0.7,2.2-1.1c1.5-0.9,2.9-2,2.3-3.9c-0.7-1.9-2.5-1-3.9-1c-1,0-2,0.4-2.9-0.2c-3.1-1.9-6.8-2.8-8.5-6.5
		c1.9-3.6,4.3-4.3,8.1-1.5c3.4,2.5,6.5,3,10.3,1.7c1,0,2-0.1,3-0.1c0.5-0.4,1-0.4,1.5-0.1c2.4,0.8,3.1,2.6,3,5
		c-0.1,3.1-0.5,6.2-0.5,9.4c0,0.5-0.1,1-0.2,1.5c-1,3.2-3.7,3.2-6.1,2.7c-3.3-0.7-5.2,0.6-5.8,3.6c-0.8,4-4.5,4.4-7.1,6.1
		c-1.6,1.1-3.3-0.7-3.7-2.3c-1-4.8-3.8-4.6-7.3-3.1c-3.8,0.6-7.9,1.8-7.3-4.7c0.1-1.8-1.7-1.9-3.3-2.1c-1.6-0.2-2.5,1.7-4.1,1
		c-4.1,0.2-8.1,0.7-12,2c-0.4,0.5-0.8,1.1-1.5,1.3c-1.6,0.6-4-0.5-4.6,2.1c-0.6,2.5,0.6,4.7,2.1,6.1c1.9,1.7,3.3,3.4,1.6,5.6
		c-1.6,2-3.8,1.4-5.7,0c-2.2-1-4.4-2.3-5.3-4.3c-2.9-6.5-9-8.4-14.7-10.9c-6.9-3-9.5-13.2-4.8-18.9c1-1.3,2.4-1.7,3.9-1.8
		C90.3,300.5,95.2,300.1,100.2,299.8z"/>
	<path fill-rule="evenodd" clip-rule="evenodd" fill="#1B1B1B" d="M125.2,336.8c-3.9-0.5-6.4-2.6-6.6-6.6c-0.2-3.2,4-7.3,7.4-7.9
		c2.1-0.4,4.1-1,6.2-1.5c1.3,5.6,8.1,6.6,10,11.7c0.7,4.9-1.1,7.6-5.7,7.5C132.6,339.9,128.1,341.2,125.2,336.8z"/>
	<path fill-rule="evenodd" clip-rule="evenodd" fill="#272727" d="M125.2,336.8c3.6,0.3,7.2,0.6,10.8,0.7c3.1,0.1,5.3-1,4.2-4.7
		c2.4-3,6.1-1.1,9-2.3c3.6,1.6,5.4-2.1,8.1-2.9c1.6-0.7,3.3-2.2,4.9,0.2c-0.3,0.7-0.7,1.3-1,2c-2.1,0.1-3.5,1.6-5.2,2.6
		c-5.9,3.4-12.3,5.5-17.1,11.3c-2.4,2.9-8.7,1-12.7-1.9C125.9,340.2,125.6,338.5,125.2,336.8z"/>
	<path fill-rule="evenodd" clip-rule="evenodd" fill="#2B2B2B" d="M150.3,331.8c-3.3,1-6.6,1.1-10,1c-3.3-3.6-9.4-5.3-8-12
		c-1.8-1.5-4.1-0.1-6-1c6.2-3.3,7.8-2.8,9.9,4c1.4-3.1,3-6.3,5.1-1C146.4,323.6,148.4,327.6,150.3,331.8z"/>
	<path fill-rule="evenodd" clip-rule="evenodd" fill="#343434" d="M106.2,336.9c1.5,0.1,3.1,0.6,4-1c0.9-1.7-0.4-2.8-1.2-3.9
		c-1.3-1.7-2.6-3.4-4-5c-0.9-1.1-2.7-1.8-1.9-3.6c0.7-1.6,2.5-1.5,3.9-1.6c2.4-0.1,4.9,0.1,7.3,0.2c-3.2,3.3-5.5,6.4-0.7,10.5
		c1.6,1.4,1.2,4.7-0.9,6.2C110.2,340.4,108.1,338.6,106.2,336.9z"/>
	<path fill-rule="evenodd" clip-rule="evenodd" fill="#2D2D2D" d="M61.3,302.8c0.4-2.7,0.8-5.4,1.2-8c0.7,0.4,2,1,2,1.2
		c-1,4.8,2,9.4,0.6,14.1c-0.6,1.9-2,2.5-3.7,2.7C63.8,309.5,63.4,306.2,61.3,302.8z"/>
	<path fill-rule="evenodd" clip-rule="evenodd" fill="#363636" d="M226.2,262.8c0.1,5.1-4.7,8.8-4,14l0,0c-0.9,1.2-0.5,3.3-2.7,3.5
		c-2.8,0.2-3.8,2.7-5.3,4.5c2.3,4.3,2.2,7.6-3,10c-3.8,1.7-4.3,5.4-3.5,9.4c0.8,4.4,0.3,4.5-4.2,4.1c-2.4-0.2-3.9,1.6-3.9,4.1
		c0.1,8.2,0.1,8.2-8.4,8.3c-4.1-3.9-4.3-5.2-1.6-9.4c2.1-1.7,6.2,2.3,7.2-2.6c2.3-7.2,4.8-14.4,9.3-20.6c1.2-1.7,2.2-3.5,2.8-5.4
		c0.8-2.7,2.1-4.6,4.7-5.9c4.4-2.3,7.1-6.2,8.9-10.8C223.1,264.6,223.2,261.9,226.2,262.8z"/>
	<path fill-rule="evenodd" clip-rule="evenodd" fill="#343434" d="M214.3,284.9c0.3-5.1,5.8-4.9,8-8c0,2.7,1.8,5.4-0.1,8.8
		C219.8,277.6,217,283.3,214.3,284.9z"/>
	<path fill-rule="evenodd" clip-rule="evenodd" fill="#262626" d="M190.2,311.8c-1.5,3.2-1.1,6.2,1,9c-0.7,0-1.3,0-2,0
		c-2.9-3.8-3.5-7.7-1-12c0.2-0.1,0.4-0.2,0.6-0.3C190.8,309,190.7,310.4,190.2,311.8z"/>
	<path fill-rule="evenodd" clip-rule="evenodd" fill="#303030" d="M164.2,302.8c-3.2,1.6-6.2,2.4-9.6,0c-2.5-1.8-5.6-1.3-8.4,0
		c-0.3,0.3-0.6,0.3-1,0c-10.7-0.6-21.5,1.1-32-1.9c4.4-0.9,7.9-6.3,13-2.2c0.8,0.7,1.8-0.5,2.7-0.8c3.8-1.5,7.6-3.5,11.9-1.9
		c1,0.4,2.1,0.4,2.6-0.7c0.5-1.1-0.3-1.8-1-2.6c-3.3-3.9-7.4-4.8-12.1-2.8c-0.3,0.3-0.6,0.3-1,0c-1-0.3-2-0.6-3-1
		c-0.2-4.3,4.7-7.2,9.2-5.2c2.4,1.1,5,1.8,7.4,2.9c5.4,5.2,5.7,5.3,10.7,2.6c3.4-1.8,3.7-3.9,0.4-5.9c-4.1-2.5-6.2-6.6-9.1-10.1
		c-1.2-1.4-1.5-2.9,0-4.4c1.6-1.1,3.2-1.4,4.6,0.3c4,4.6,9.2,6,15.1,5.4c9.8,1.5,18.2,5,23.4,14.4c1.7,3,1.8,6.3,3.1,9.2
		c-0.2,1.7,0.5,3.1,1,4.7c0.6,2-0.3,3.8-2.4,4.8c-4.7,0.4-6.2-0.6-5.2-3.9c2-6.7-2.4-10.6-5.7-15c-0.6-0.8-1.5-1.4-2.3-1.9
		c-2-1.1-3.7-4.6-6.3-2.2c-2.2,2-4.2,5-2.4,8.5c1.2,2.3,0.6,3.8-1.5,4.9c-2.7,1.5-5.8,0.8-8.7,1.1c-0.8,0.1-1.8,0.1-1.9,1.1
		c-0.1,0.9,0.7,1.4,1.4,1.8C159.3,303.1,161.8,302.7,164.2,302.8z"/>
	<path fill-rule="evenodd" clip-rule="evenodd" fill="#262626" d="M166.2,297.8c0-0.6,0.2-1.7,0-1.9c-5.4-2.8-3.6-5.9-0.8-9.4
		c0.7-0.8,1-2.1,1.2-3.2c0.9-4.7,2.2-5.4,6.1-2.8c6,4.1,11.7,8.6,14.5,15.8c0.9,2.3,1.3,4.4,0.4,6.7c-0.6,1.4-1.2,2.8,0.6,3.8
		c0.6,0.6,0.7,1.3,0.1,2l-0.1,0.1c-6.8-1.2-9.8-5.1-9.5-11.7c0.1-2.6-2.4-4.3-4.5-5.2c-2.9-1.2-1.9,1.6-2.3,2.9
		C171,297.8,168.5,297.6,166.2,297.8z"/>
	<path fill-rule="evenodd" clip-rule="evenodd" fill="#2B2B2B" d="M162.2,327.8c-1.7,0.3-3.3,0.7-5,1c1.7-3.9,2.1-8.8,8.3-8.7
		c1.6,0,3-1.8,4.7-2.3l0,0c1.3-3.8-0.5-7.7,0.4-11.6c0.4-1.7-1.2-2.5-2.4-3.4c-0.3,0-0.7,0-1-0.1c3.8-1.5,5.6,0.3,6.4,3.8
		c1.2,5.4-1.6,10.2-2.1,15.4c-0.2,2.3-3.3,1.8-4.7,3C165.4,326.1,164,327.2,162.2,327.8z"/>
	<path fill-rule="evenodd" clip-rule="evenodd" fill="#080808" d="M143.1,200c6.1-3.6,4.9-8.7,3-14.1c-2-5.9-0.5-11.8,0.7-17.6
		c0.6-3,3-5.1,6-6.3c14.1-5.7,29-7.1,44-7.1c3.3,0,4.9,1.5,4.6,5c-0.3,3.1-0.2,6.3-0.4,9.5c-0.1,2.6,0.4,4.9,2.5,6.7
		c3.3,2.8,3.7,5.7,0.1,8.7c-2.4,2.1-2.7,4.2-0.4,6.8c5.4,6.1,2.5,17.6-5.1,20.8c-0.5,0.2-0.9,0.4-1.4,0.6c-7.5,2.9-7.5,2.9-2,8.3
		c0.8,0.8,1.9,1.5,1.3,2.9c-0.5,1.2-1.7,1.6-2.9,1.8c-5.3,0.8-10.5,0.8-15.7-0.8c-10.1-3-18-9.8-27.3-14.3c-2.4-1.2-2.7-4.6-5.1-6
		C141.7,204.4,141.1,202.8,143.1,200z"/>
	<path fill-rule="evenodd" clip-rule="evenodd" fill="#666666" d="M143.1,200c0,1.9,0.9,3.4,2,4.8c0.2,3,1.3,5.7,3.1,8
		c0.9,2.8,1.7,5.8,3.8,8c0.5,0.4,1,1.2,1.4,1.3c7.1,1,7.1,6.9,8.3,11.9c0.5,2-0.8,3.5-1.4,5.1c-1.3,3.4-2.9,6.8-0.7,10.4
		c-1,2.2-0.7,5.3-4.1,5.7c-0.6-0.1-1-0.5-1.4-0.9c-0.5-2.1-1.2-4.2-2.9-5.6c-1.4-2.3-2.8-4.3-5.2-6.1c-3.1-2.3-2.7-6.5-2.6-10.2
		c0.1-1.8,0.2-3.5-1.2-5c-2.8-3.1-0.6-7.5-2.4-10.9c1-8.9-3.1-16-8.4-22.5c-1.5-1.8-1.2-4.1-2-6c-1.1-2.4-0.4-7-5.6-5.5
		c-1.7,0.6-2.4,2.2-3.4,3.4c-1.3,1.5-2.4,2.8-4.3,0.8c1.9-4.5,4.1-9.3,9.5-9.7c5.7-0.5,8,4.6,10.4,8.7c1.9,3.3,3.3,6.8,5,10.2
		C141.1,197.7,141.7,199.1,143.1,200z"/>
	<path fill-rule="evenodd" clip-rule="evenodd" fill="#6D6D6D" d="M207.3,230c0.8,4.5-1.4,6.7-5.6,6.9c-6.2,0.2-11.7,4.2-18.4,2.3
		c-2.7-0.8-3.4,1.6-3.4,4.5c0.1,7.8,2.2,15.6,0,23.3c-1.4,5.1,2.3,7.5,4.3,10.9c4.1-0.6,4,2.2,4,5c0.3,1.3,0.7,2.6,1,4
		c-0.2,0.2-0.4,0.3-0.5,0.5c-2.8,0.6-3.6-1.7-4.9-3.3c-2.9-3.8-6.3-6.9-11.2-7.7c-3.2-1.8-6-4.1-8-7.2c-2.6-3.9-1.9-6.4,2.2-8.5
		c4.9-2.5,5.5-3.7,3.9-9.1c-1.2-4.1-1.2-8.3-0.7-12.4c0.5-4.4,2.9-6.6,7.2-5.7c5.7,1.3,11.1,0.5,16.6-0.9c2.6-1.3,5.7-0.8,8.4-1.8
		C203.9,230.4,205.5,229.6,207.3,230z"/>
	<path fill-rule="evenodd" clip-rule="evenodd" fill="#4A4A4A" d="M202.2,230.8c-2.5,1.4-5.3,1.6-8,2.1c-5.4,1.3-10.7,2.2-16.3,0.6
		c-2.8-0.8-5.7,0.4-8.3,1.9c-4.6,2.7-6.3,2.1-8.6-2.8c-0.7-1.5-2-2.8-2.2-4.4c-0.3-3.4-1.2-5.5-5.3-3.9c-1.7,0.7-2.4-1.4-3.3-2.5
		c-0.7-3-2.1-5.8-2.1-8.9c7.2,8.6,16.2,14.1,27,17C184.1,232.3,193.2,231.7,202.2,230.8z"/>
	<path fill-rule="evenodd" clip-rule="evenodd" fill="#202020" d="M225.4,219.9c-2.4,3.8-6.6,4.9-10.1,7c-1.3,0.6-2.7,1.2-4,1.8
		C215,224.2,220.5,222.6,225.4,219.9z"/>
	<path fill-rule="evenodd" clip-rule="evenodd" fill="#838383" d="M188.2,282.8c-2-1.1-2.8-3.2-4-5c1.2-3.4,1.7-6.7,5.8-8.8
		c3-1.5,2.2-5.9,1.1-9.2c-0.5-1.5-1.9-2.8-1.2-4.6c7.5,0.9,9.8,8.4,15.3,11.9c2.6,1.7,2.8,6.4,0.8,9.7c-2,3.2-4.2,6.7-9.1,5.2
		C194,281.1,191.2,283.1,188.2,282.8z"/>
	<path fill-rule="evenodd" clip-rule="evenodd" fill="#656565" d="M232.2,237.8c0,2,0,4,0,6l0,0c-2.1,10.4-9.4,18.6-12.2,28.7
		c-0.1,0.5-0.3,1.1-0.8,1.2c-4.8,1.5-7.7,5.4-11.4,8.4c-0.2-0.1-0.5-0.2-0.7-0.3c-0.7-1.7-0.3-3.4,0.7-4.7
		c4.6-5.5,7.1-12.3,11.8-17.9C225,253,228.1,245,232.2,237.8z"/>
	<path fill-rule="evenodd" clip-rule="evenodd" fill="#656565" d="M189.3,286.8c1.3,2.1,2.6,4.2,3.9,6.3c0.7,1.2,1.4,2.3,3,2.1
		c1.5-0.3,2.7-1.4,2.6-2.7c-0.7-6.5,4-8.4,8.4-10.7c0,0,0.1,0,0.1,0c2.2,1.5,1,3.6,0.1,4.6c-2.3,2.4-2.8,5.8-5.3,8.2
		c-1.2,1.1-1.4,2.9-1.4,4.7c-0.1,3.1-3.3,4.7-5.1,2.6c-3.4-3.9-7.2-7.8-7.4-13.5C188.1,287.8,188.6,287.3,189.3,286.8L189.3,286.8z"
		/>
	<path fill-rule="evenodd" clip-rule="evenodd" fill="#515151" d="M189.2,286.9c-0.9,5.8,3.7,8.9,6.5,12.8c0.6,0.8,2.3,1.1,2.5,0
		c1.5-6.8,6.3-11.8,9.1-17.9c2.5-4.2,5.5-7.9,10.2-9.7c1.7-0.6,1.8-2.2,2.4-3.6c3.3-8.7,8.8-16.2,12.4-24.7c0.8,7.2-4.6,12.5-6,19
		c-1.2,2.3-2.8,4.6-3.7,7c-1.3,3.8-3.7,6.5-7.2,8.4c-3,1.5-4.6,4-5.8,7.1c-3.3,8.4-9,15.6-11.4,24.5c-3.2,2.1-4-0.5-4.9-2.6
		c-1.3-3.2-1.7-6.7-4-9.4c-2.5-14-12.7-19.3-25.1-22c-0.4-0.5-0.5-1-0.2-1.6c3.7-3.8,6.9-0.4,10.2,0.6c3.9,0.2,6.4,2.5,8.3,5.6
		C184.3,283.1,186.1,285.6,189.2,286.9z"/>
	<path fill-rule="evenodd" clip-rule="evenodd" fill="#808080" d="M228.2,191.8c-1.5,1.8-2.5,4.6-5.8,3.1c-3.1-1.4-6.1-3-6.8-6.7
		c-0.4-2.2,0-4.2,3.2-3.2c0.9,0.3,2,0.4,2.9,0.3C228.1,184.9,228.1,184.9,228.2,191.8C228.2,191.8,228.2,191.8,228.2,191.8z"/>
	<path fill-rule="evenodd" clip-rule="evenodd" fill="#323232" d="M160.2,150.8c-6.2-0.2-11.9,2.6-18,3c4.7-2.6,9.2-5.2,14.8-5.5
		c4.1-0.2,6.6-4.5,10.6-5.8c1.8-0.6,3.5-1.8,5.5-1.7c1.3,0,2.7,0,4,0C170.7,142.7,165.6,146.9,160.2,150.8z"/>
	<path fill-rule="evenodd" clip-rule="evenodd" fill="#7D7D7D" d="M116.3,186.8c3.2-1,4.1-4.6,7-6c2.2-0.8,3.2,0.4,3.8,2.2
		c0.3,2.2-0.8,3.7-2.4,5c-4.6,3.7-4.8,5.1-1.6,9.7c0.2,0.5,0.2,1,0.1,1.6c-1,3.2-0.2,6.6-0.8,9.8c-3.9,1.8-4.5,5-3.4,8.6
		c1.4,4.5,1.2,9.1,1.5,11.8c-0.7-2.4,0-6.6,0.7-10.9c0.3-2,0.7-4,2.9-4.9c4.2,0.9,5.6,2.8,5.1,7.3c-0.5,4.8-1.8,9.5-1.5,14.3
		c0.1,1.6-0.3,3.3,1.4,4.6c-2-5.8-0.2-11.2,1.3-16.6c0.2-0.6,0.3-1.4,0-2c-3.2-6.1,0.2-11.1,2.4-16.4c0.7-1.7,1.6-3.1,3.6-2.8
		c2.1,0.3,4.2,1.6,3.8,3.9c-1.1,6.2,2,12.1,0.9,18.1c-0.6,3.1,2.3,4.7,2.4,7.3c-2.4,10.5-2.2,10.3,7.1,13.5c1.5,0.5,3.3,0.6,4.5,1.7
		c0,2.3,0,4.6,0,6.9c-0.3,0.4-0.9,1-1.2,0.8c-5.2-2.4-8.6,1.1-12.3,3.6c-1.6,1.1-3.6,1.7-5.1,0.9c-4.5-2.5-9.7-1.6-14.3-3.3
		c-0.7,0-1.3,0-2,0c-0.7-0.6-1.3-1.5-0.7-2.1c4.1-4,0.8-6.1-1.9-8.5c-0.5-0.4-0.9-0.9-1.3-1.4c1.7-3.4,2.3-6.8,0.3-10.4
		c-0.5-1-1-2.3-0.8-3.3c1.1-6.2-1.2-10.9-5.8-14.7c-0.9-0.7-1-1.7-0.4-2.7c4.3-6.1,2.6-13.6,4.6-20.2
		C114.1,190.4,115.2,188.6,116.3,186.8z"/>
	<path fill-rule="evenodd" clip-rule="evenodd" fill="#5D5D5D" d="M72.2,279.8c2.8-1.8,6.1-2.3,9.3-2.9c1.8-0.3,3.5-0.6,4.8-2.1
		c0.3,0,0.7,0,1,0c2.4-1.2,5.2-0.8,7.8-1.5c2.8-0.7,5-1.9,7.1-3.6c2.4-2.1,2.7-4.4,0.4-6.7c-0.2-0.2-0.5-0.3-0.7-0.6
		c-1.2-2.1-5.1-3.2-3.1-6.5c1.9-3.1,4.9-1.8,7.6-1c3.6,3.6,8,4.9,12.9,5c0.4-0.4,0.9-0.5,1.5-0.3c0.9,0.7,1.4,1.7,2.4,2.3
		c2.5,1.5,3.3,3.9,1.4,5.9c-1.6,1.7-4.1,3.1-6.5,0.7c-2.8-2.8-6.2-2.4-9.7-1.6l0,0c-0.9,3.8-2.3,7.1-6,9h0
		c-6.7,3.6-13.9,5.2-21.4,4.9c-1.4-0.1-2.5,0.5-3.7,0.8C75.3,281.9,73,282.8,72.2,279.8z"/>
	<path fill-rule="evenodd" clip-rule="evenodd" fill="#6F6F6F" d="M106.2,254.8c-1.2,0-2.3,0-3.5,0.1c-3,0.4-3.2,1.9-1.5,4.1
		c0.6,0.8,1.3,1.5,1.9,2.3c3.6,4,3.2,9-1.7,11.1c-4.4,2-9.1,4.1-14.3,2.4c2.5-2.7,6.1-2.2,9.2-3.2c5.1-1.7,6.5-5.2,3.4-8.7
		c-2-2.2-4.6-4.3-2-7.6C100.4,252.2,103.3,252.9,106.2,254.8z"/>
	<path fill-rule="evenodd" clip-rule="evenodd" fill="#707070" d="M122.2,255.8c4.3-1.6,8.4-0.8,12.5,0.7c2.9,1,5.3,1,7.7-1.2
		c3.8-3.4,8.2-3.9,12.8-1.6c0,0.3,0,0.7,0,1c0.6,3-1.5,3.2-3.5,3.1c-2.3-0.1-4.6-0.1-6.6,1.4c-1.7,0.4-3.2,1.1-4.5,2.2
		c-2.9,1.7-5.5,2.1-8.3-0.6c-2.2-2.1-5.6-0.4-8.4-0.9c-1.6-0.3-3.2-0.1-4.6-1.1C120.2,257.8,121.2,256.8,122.2,255.8z"/>
	<path fill-rule="evenodd" clip-rule="evenodd" fill="#868686" d="M116.2,243.8c7,1.2,8.2,4.6,4,12c-1.8,1.1-3.8,2.8-5.5,0.1
		c-1.4-2.2-4.3-4.1-1.8-7.3c0.9-1.2,1.5-2.5,2.3-3.8C115.6,244.5,115.9,244.2,116.2,243.8z"/>
	<path fill-rule="evenodd" clip-rule="evenodd" fill="#5E5E5E" d="M119.2,258.8c5.4-0.5,10.9-2.1,15.9,1.9c1.7,1.3,3.4-0.6,5.1-0.9
		c2.5,4,2.2,5.1-2.1,5c-6.3-0.2-12.7-0.5-17.9-4.9c-0.4,0-0.7,0-1.1,0C119.2,259.5,119.2,259.1,119.2,258.8z"/>
	<path fill-rule="evenodd" clip-rule="evenodd" fill="#4F4F4F" d="M72.2,279.8c6.1,0,12.3,0.1,18.3-1.5c3.9-1,7.6-2.6,11.7-2.5
		c-3.1,4.5-8.1,5.7-12.9,5.9c-5.3,0.3-10.5,0.6-15.8,1.1c-2.2,0.2-3.7,1.2-5,2.8c-1.1,1.5-2.5,2.6-4.3,3.1
		C66.8,285.8,68.9,282.2,72.2,279.8z"/>
	<path fill-rule="evenodd" clip-rule="evenodd" fill="#646464" d="M58.3,297.8c-5.9-1.5-6-6.2-6-11
		C54.5,290.3,59.5,292.4,58.3,297.8z"/>
	<path fill-rule="evenodd" clip-rule="evenodd" fill="#0E0E0E" d="M140.2,385.8c-5.4,2.7-10.9,4.7-17,5c1.1-2.8,3.2-3.9,6.2-4
		C133,386.7,136.6,386.2,140.2,385.8z"/>
	<path fill-rule="evenodd" clip-rule="evenodd" fill="#252525" d="M145.2,269.8c3.9,4.3,6.8,9.4,11.3,13.2c2.6,2.2,2.2,5.4,1.9,8.4
		c-0.1,0.9-0.8,1.9-1.6,1.3c-2.9-2.3-5.3-0.2-8,0.3c-3.5,0.7-4.9-2.1-6.7-4.2c0.1-0.8,0.5-1.5,1.1-2.1c0.9-1,3.7-0.6,2.8-2.6
		c-0.9-2.1-3.1-4.3-5.5-3.3c-3.4,1.3-6,0.2-9-0.6c-3.4-0.9-6.7,1.2-10.3,0.9c-1.5-0.1-1.5,1.9-1.8,3.2c-0.9,3.6-3.1,4.6-6.3,2.7
		c-2.2-1.3-4.2-1.4-6.5-0.1c-2.1,1.2-3.9,0.6-4.5-2c0.1-7,5.9-10.3,10.6-12.3c3.3-1.4,8.9-1.3,13.2,0.7c1.7,0.8,3.8,2,4.6-0.4
		c1.7-5.7,6.4-5.4,10.7-6.1C144,266,145.8,266.4,145.2,269.8z"/>
	<path fill-rule="evenodd" clip-rule="evenodd" fill="#1D1D1D" d="M102.2,284.8c1.2,0.2,2.5,0.6,3.4-0.3c3.2-3.1,6.1-4.5,9.1,0.4
		c0.9,1.5,2.1,0.3,2.3-1.1c0.2-1.5,0-3,0-4.5c-0.1-3.1,1.7-4.1,4.1-2.7c2.6,1.6,4.7,1.8,7.3,0.2c0.8-0.5,2.4-0.4,3.4,0.1
		c3.2,1.7,6.1,2.4,9.1-0.3c0.5-0.4,1.9-0.3,2.3,0.1c3.1,3,5.9,6.2,9.9,8.1c0.7,0.3,0.5,1.5,0,2.3c-0.7,1-1.7,1.9-2.9,1.4
		c-2.7-1-5.3-0.2-7.9,0.1c-2.7-1.1-5.6-1.5-8.3-2.7c-2.9-1.3-5.7,0.3-7.7,2.7l0,0c-2,1.1-4.2,0.7-6.2,0.4c-3.2-0.5-5.6,0.4-7.8,2.6
		c-2.5,1.1-5.1,1.3-7.6,0.4C100.9,291,100.1,288.3,102.2,284.8z"/>
	<path fill-rule="evenodd" clip-rule="evenodd" fill="#5A5A5A" d="M92.2,320.8c-8.2-1.3-11.9-6-10.8-13.3c0.8-5,2.7-6.2,7.8-4.7
		c-0.2,2.6-4,4.2-0.9,7.8c3.4,4.1,6.7,5.6,12,3.3c-2.4-2.6-5.5-4.3-7.7-6.9c-1.1-1.2-2.7-2.2-1.4-4.2c3.3-0.7,6.7-1.4,10-2.1
		c4.1,0.1,8.2-0.5,11.7,2.7c1.1,1.1,2.9,0.3,4.3,0.3c6.6,1.7,13.4,0.1,20,0.6c1.4,0.1,3.2-0.7,3.7,1.4c0.4,2.2-1.1,3.8-2.9,3.9
		c-4.5,0.3-8.6,3.3-13.4,1.7c-2.6-0.8-4.9,0.3-6.1,3c-1.2,2.7-3.3,3.6-6,3.3c-4.7-0.5-9.2,0.2-13.1,3
		C97,322.5,94.6,322.3,92.2,320.8z"/>
	<path fill-rule="evenodd" clip-rule="evenodd" fill="#4F4F4F" d="M92.2,320.8c7.1-0.8,13.5-4.9,20.9-4.3c1.3,0.1,1.9-0.9,2.3-2.2
		c1.6-5.3,5.4-7.5,10.3-5.6c5.1,2,8.8-1.8,13.2-2.5c-6-2.5-12.1,0.2-18.1-1c-1.3-0.3-2.6-0.2-3.5-1.4c7.4,0,14.8,0,22.2,0
		c2,0,4,0,5.8-1c0.3,0,0.7,0,1,0c4-1,5.6,3.5,9,4c0.9,1.3,0.8,3.1-0.5,3.4c-5.2,1.3-5.9,5.3-6.5,9.6c-5.5,1.9-8.9-2.5-13-4.5
		c-3.2-1.6-5.5-2-8.7-0.2c-5.7,3.3-12.2,3.8-18.7,3.6c-2.2-0.1-3.9,0.4-5.4,1.8C98.5,324.6,96.7,324.6,92.2,320.8z"/>
	<path fill-rule="evenodd" clip-rule="evenodd" fill="#474747" d="M145.2,269.8c-1.3-1-2.7-2-4-3c0-0.3,0-0.7,0-1c0.6-3,0.1-6.3,2-9
		c2.2-1.7,4.6-2.3,7.3-1.7c1.6,0.4,3.2,0.6,4.7-0.4c0.7-2,1.3-4,2-6c0.4-2.6,0.4-5.5,3.1-6.8c2.1-1,4.8-1.1,6.4,1
		c1.7,2.3,4,5.2,1.6,8c-3.5,4.2-5.8,9.2-10.5,12.4c-3.6,2.4-3.1,4.3,0.6,6.7c2.1,1.3,5.6,0.9,5.7,4.6c0,0.3,0,0.6,0,1
		c-5.7,1.1-10.7-0.3-14.9-4.4C148.2,270.4,146.8,269.9,145.2,269.8z"/>
	<path fill-rule="evenodd" clip-rule="evenodd" fill="#4F4F4F" d="M143.3,256.9c0,3.1-0.1,6.2-2,9c-4.5-0.1-8.3,0.4-12.3,3.6
		c-2.6,2.1-7.9,1.8-11.7-0.2c-2.9-1.6-5.8-2.4-9-2.4c3.6-1.6,7.2-2.4,10.5,0.6c1.1,1,2.4,1.3,3.5,0c1-1.2,0.8-2.5-0.2-3.6
		c-1.1-1.2-2.8-2-1.9-4.1c4.8,1,9.8,0.5,14.3,3.3c2.8,1.7,5.9,1.4,5.7-3.3C141.2,258.8,142.2,257.8,143.3,256.9z"/>
	<path fill-rule="evenodd" clip-rule="evenodd" fill="#565656" d="M129.3,289.8c0.3,0,0.6,0,1,0c1.9,0.3,4-0.6,5.7,1
		c-5.4,4.6-11.5,5.1-16.7,1.1C122.4,290,126.2,291.2,129.3,289.8z"/>
	<path fill-rule="evenodd" clip-rule="evenodd" fill="#4F4F4F" d="M102.2,275.8c2-3,4-6,6-9C108.9,271.6,107.2,274.8,102.2,275.8z"
		/>
	<path fill-rule="evenodd" clip-rule="evenodd" fill="#303030" d="M112.2,291.8c1.5-2.7,3.5-3.9,6.7-3.3c2.3,0.5,4.8,0.2,7.3,0.3
		C121.8,290.7,116.5,289,112.2,291.8z"/>
	<path fill-rule="evenodd" clip-rule="evenodd" fill="#6B6B6B" d="M91.2,302.9c4,3.3,7.9,6.7,12,9.8c2.3,1.8,2.1,3-0.4,3.6
		c-3.7,0.9-7.5,1.4-11.3,2c-1,0.2-2.2-0.2-2.5-1.2c-0.8-2.9-2.4-4.8-5.2-6.1c-1.6-0.7-1.1-2.6-0.6-4.1c1-3,3.2-4,6.2-4.1
		C89.9,302.8,90.6,302.8,91.2,302.9z"/>
	<path fill-rule="evenodd" clip-rule="evenodd" fill="#5A5A5A" d="M148.2,319.8c-4.9-6.2-4.6-7.2,2.8-10.5c1.5-0.7,3.2-1,4.2-2.5
		c2.6-0.5,5.2-1,7.8-1.4c2.7-0.4,3.9,0.6,2.6,3.4c-1.7,3.7-2.4,8.1-7.4,9C154.8,317.9,151.9,320.8,148.2,319.8L148.2,319.8z"/>
	<path fill-rule="evenodd" clip-rule="evenodd" fill="#353535" d="M170.2,317.8c-5.2,2.6-9.2,6.8-13,11c-2,1.7-3.7,4.3-7,3
		c-2.8-1.4-6.9-1.4-6.3-6.3c0.1-0.8-1.7-1.8-2.7-2.7c2-0.1,3.9-0.2,5.9-0.3c2.2-0.1,3.4,0.9,3.7,3.1c0.2,1.1-0.9,3.1,1.1,3.2
		c1.8,0,4.1-1.1,4.3-2.8c0.6-5.7,3.9-6.9,8.9-6.7C166.8,319.3,168.5,318.3,170.2,317.8z"/>
	<path fill-rule="evenodd" clip-rule="evenodd" fill="#4F4F4F" d="M148.2,319.8c3-2.3,6.3-2.9,10-2
		C155,319.1,152.4,323.3,148.2,319.8z"/>
	<path fill-rule="evenodd" clip-rule="evenodd" fill="#353535" d="M168.2,302.8c5.4,4.4,2.7,9.8,2,15
		C168.8,312.9,171.4,307.5,168.2,302.8z"/>
	<path fill-rule="evenodd" clip-rule="evenodd" fill="#454545" d="M189.3,297.8c3.4,1,4.4,4,5.6,6.8c0.8,1.9,1.1,4.1,3.3,5.2
		c0,0.3,0,0.7,0,1c-0.1,2.4-0.3,4.8-3.1,5.5c-3.6,0.8-3.5-2.6-4.9-4.4c-0.6-1-1.3-2-1.9-3c0-0.7,0-1.3-0.1-2
		C190.9,304.1,189.2,300.8,189.3,297.8z"/>
	<path fill-rule="evenodd" clip-rule="evenodd" fill="#757575" d="M125.2,183.8c-0.3-1.3-1-2.3-2-3c1.5-2.4,3.4-1.9,4.9-0.3
		c1.5,1.5,3.5,3.4,3.7,5.2c0.3,5.2,3.5,8.7,6,12.7c3.4,5.5,4.2,11.3,3.4,17.5c2.1,4.3-0.3,9.4,2.3,13.7c0.5,0.9-0.5,2.5-2.3,2.3
		c-2.3-6.7-1.2-13.8-2-20.6c-0.2-1.6-0.1-3.3-0.3-5c-0.1-0.8-0.6-1.6-1.6-1.7c-1-0.1-1.7,0.5-1.9,1.3c-1.1,4.5-6,8.2-2.3,13.8
		c1.2,1.9,0.7,5-0.6,7.6c-1.8,3.5-3.3,7.4,1,10.7c1.3,1,1.8,2.6,0.4,3.9c-1.9,1.9-4,3.9-6.9,3.3c-2.2-0.4-2.5-2.7-2.4-4.5
		c0.5-6.3,0.4-12.6,1.8-18.8c0.6-2.9,0.2-5.3-2.3-7.1c-0.5-0.2-0.9-0.5-1.2-0.9c-1.3-4.9-1.5-10-1.8-15.1c-1.6-3.7-0.2-7.1,1.3-10.4
		C123.3,186.8,124.2,185.3,125.2,183.8z"/>
	<path fill-rule="evenodd" clip-rule="evenodd" fill="#585858" d="M164.2,274.8c-4.8-1.3-9.7-2.4-12.8-7c-1.5-2.2-1.4-3.8,1.2-4.5
		c6.6-1.9,9-8.1,13-12.6c1.8-2,0.9-4.2-0.8-5.7c-2.1-1.8-4-1-5.5,1c-0.7,0.9-1.4,1.9-2,2.8c-1.5-3.7-0.7-7.5,0.8-10.6
		c1.9-3.8,0.8-7,0-10.5c-0.3-1.2-1-2.6-2.3-2c-4.7,2.4-4.8-1.1-5.5-3.9c0.1,0.1,0.3,0.2,0.4,0.3c4.2,1.2,7.5,3.7,10.1,7.8
		c2.3,3.5,4.6,6.5,8.9,2.3c1.3-1.3,3.1-0.9,4.7-0.6c6.5,1.4,13.2,1.3,19.8,1.3c-4.6,3-9.5,3.4-14.8,2.6c-5-0.8-6.7,0.6-7.1,5.6
		c-0.4,4.4,0.5,8.5,1.8,12.7c1.9,6,1,7.6-5.2,9.2c-3.5,0.9-3.7,2.6-2.1,5.4c1.8,3,5,4.3,7.4,6.6C170.9,274,167.6,274.4,164.2,274.8z
		"/>
	<path fill-rule="evenodd" clip-rule="evenodd" fill="#737373" d="M141.2,231.8c1.9-5.3-1-10.7,0-16c3.1,4.5,2.6,10.1,3.6,15
		c1.5,7.2,3.9,12.6,10.4,16c-3.3-0.3-6.6-0.8-9.8-1c-5-0.3-6.5-1.9-6-6.8C139.7,236.5,140.1,234.1,141.2,231.8z"/>
	<path fill-rule="evenodd" clip-rule="evenodd" fill="#868686" d="M124.2,213.8c0,0.3,0,0.7,0,1c0,6.1-2.3,12.1-0.2,18.2
		c0.3,1,0,2.3-0.3,3.4c-0.2,1.1-0.7,2.4-2,2.6c-1.4,0.2-2-1-2.4-2.1c-0.3-0.8-0.8-1.5-0.9-2.3c-0.6-7.4-1.7-14.7-2.5-22.1
		c-0.3-2.5,0.6-6.8,5.3-3.7C123.5,209.8,122.8,212.4,124.2,213.8z"/>
	<path fill-rule="evenodd" clip-rule="evenodd" fill="#8F8F8F" d="M139.7,248.8c-0.3,1.8-0.8,3.2-2.5,3c-2.3-0.3-3.6-1.8-3.4-4.1
		c0.1-1.5,0.3-4.1,2.4-3.6C138.3,244.6,138.9,247.1,139.7,248.8z"/>
	<path fill-rule="evenodd" clip-rule="evenodd" fill="#7A7A7A" d="M125.2,183.8c-1.3,5-2.7,10-4,15c-3.3-3.3-2.4-6.8-0.2-10.2
		C122.2,186.9,123.8,185.4,125.2,183.8z"/>
	<path fill-rule="evenodd" clip-rule="evenodd" fill="#7A7A7A" d="M124.2,213.8c-1.8-1.2-2.9-2.8-3-5c-1.3-3.3-0.2-6.7,0-10
		C122.9,203.7,123.2,208.8,124.2,213.8z"/>
	<path fill-rule="evenodd" clip-rule="evenodd" fill="#9F9F9F" d="M120,249.3c-0.1,2.1-1.1,3.5-3.2,3.8c-1.4,0.2-2.2-0.8-2.1-2.2
		c0.2-2,0.5-4.2,3.1-4.4C119.4,246.4,119.9,247.8,120,249.3z"/>
</g>
</svg>
