<?xml version="1.0" encoding="utf-8"?>
<!-- Generator: Adobe Illustrator 16.0.0, SVG Export Plug-In . SVG Version: 6.00 Build 0)  -->
<!DOCTYPE svg PUBLIC "-//W3C//DTD SVG 1.1//EN" "http://www.w3.org/Graphics/SVG/1.1/DTD/svg11.dtd">
<svg version="1.1" id="svg2" xmlns:svg="http://www.w3.org/2000/svg"
	 xmlns="http://www.w3.org/2000/svg" xmlns:xlink="http://www.w3.org/1999/xlink" x="0px" y="0px" width="542.934px"
	 height="289.328px" viewBox="0 0 542.934 289.328" enable-background="new 0 0 542.934 289.328" xml:space="preserve">
<g id="Layer_1">
	<path id="path7" fill="#231F20" d="M519.938,227.499c-10.473,2.792-17.316-3.888-21.403-11.762
		c-0.365-1.857-0.921-3.855-1.699-4.656c0.142-0.193,0.376-0.437,0.611-0.679c-2.414-4.647,6.036-17.59,8.934-21.744
		c-0.739-1.424-3.684-0.375-3.97-0.225c-15.675,31.024-39.559,28.865-67.741,23.998c-6.944-3.86-30.729-8.843-33.392-13.963
		c-14.558-10.863-23.146-19.047-33.748-30.88c-0.431,0.103-0.81,0.3-1.096,0.449c-0.917,2.403-1.496,8.243-2.713,9.84
		c-4.42,13.978-31.979,9.149-41.303,18.328c-7.811,4.901-14.188,6.531-21.134,2.671c-3.167,2.249-6.099,7.266-8.213,9.688
		c-10.667,14.938-23.593,28.998-37.324,40.351c-28.598,20.762-72.548,49.983-108.737,37.354c-7.024,0.154-29.259-9.489-35.805-12.35
		c-14.066-3.892-26.493-15.984-39.489-15.73c-24.359,7.356-39.59,30.941-61.621,5.758c-9.31-10.643-12.603-25.065-8.101-42.943
		c4.497-17.879,24.965-31.333,33.592-5.465c0.341,3.676-0.624,12.244-5.657,11.368c-4.482-8.63-2.34-18.415-14.727-9.57
		c-6.07,9.176-6.252,19.025-1.941,28.949c0.146,0.044,0.288,0.094,0.437,0.137c-0.367,1.152,3.68,6.155,5.044,7.857
		c10.885,8.435,20.127,6.282,29.263-5.572c19.931-28.938,51.243-11.471,58.033-8.836c21.718,7.262,44.853,7.044,68.394,2.521
		c10.111-4.65,20.087-10.561,29.432-18.303c7.677-6.701,20.499-24.984,28.641-36.202c-3.111,1.716-5.743,2.554-7.617,3.958
		c-3.97,2.516-32.781,13.737-43.951,15.555c-2.662,0.515-30.911,2.593-35.703,1.819c-23.32-5.707-36.702-15.084-49.578-34.53
		c-11.949,6.211-18.809-7.688-26.829-6.895c-4.645,2.413-0.989,22.434,5.36,24.916c1.15-2.888,0.517-6.652,0.284-9.42
		c9.316-15.684,25.6,26.321-3.661,25.868c-24.499-7.743-22.634-29.188-24.142-49.239c6.909-23.102,16.167-24.058,38.685-17.572
		c5.388,2.258,5.388,2.258,5.674,2.109c-1.28-20.771,17.304-30.667,34.762-36.006c0.346,0.664,12.791,1.664,14.419,2.022
		c11.574-2.762,32.335,19.811,30.91,32.594c0.147,0.286,0.296,0.57,0.443,0.855c-4.145,13.113-4.815,16.23-15.433,25
		c-2.939,1.53-9.069,3.869-11.618,5.915c0.821,0.659,12.668,3.294,14.506,1.496c11.961,3.781,53.972-30.331,61.152-42.012
		c-7.411-3.135-16.004-5.536-22.033-9.026c-17.89,8.452-28.602,1.978-37.965-13.032c-2.627,0.043-5.887-0.434-7.075-0.176
		c-0.445-0.853-10.538-4.282-12.275-5.305c-14.845-10.958-22.93-26.748-1.781-37.734c11.706-3.435,24.252,7.27,5.371,10.336
		c-13.372,6.946-0.39,21.038,11.655,14.778c0.41-1.296,0.042-6.405-0.209-7.357c0.188-0.097,0.379-0.196,0.568-0.295
		c3.916-18.656,14.12-23.354,33.231-20.879c8.432,4.409,16.864,8.818,25.349,13.324c7.883,12.163,32.371,18.951,47.261,20.726
		c4.546-2.843,7.84-9.252,12.73-11.432c0.453-1.441,6.449-6.123,8.287-7.92c9.994-12.059,20.051-26.314,28.971-39.742
		c-2.535-15.542-3.937-26.018,15.6-29.905c3.11,0.19,9.725,0.229,13.549,1.633c4.979-5.717,12.977-7.948,20.201-10.499
		c5.043-0.131,9.227,1.429,12.69,4.729c-0.228,0.719,1.032,1.751,1.813,2.792c30.973-12.689,64.691-17.866,86.601,20.636
		c18.297,4.946,9.438,27.479-5.596,47.468c-10.659,19.302-47.353,16.739-47.255,15.163c-0.045,0.143,27.313,56.503,29.438,63.832
		c1.674,3.226,2.803,5.168,6.526,7.93c-1.077-2.739-5.389-10.744-6.121-12.473c-7.368-17.354-11.207-52.872,22.846-52.459
		c5.905,1.659,13.27,1.493,17.781,6.175c15.938,10.506,25.885,32.195,27.525,51.816c0.146,0.287,0.297,0.571,0.586,0.9
		c10.717-2.559,34.268,8.691,34.494,23.267c-2.56,10.604-8.982,18.638-19.214,21.666c-3.413,1.773-7.403,3.364-9.185,5.736
		c1.231,2.368,8.667,3.927,12.494,10.369C525.124,222.878,523.352,225.725,519.938,227.499"/>
	<path id="path9" fill="#FFFFFF" d="M516.436,223.54c-14.895-0.56-15.729-14.468-15.062-16.665
		c2.413-7.637,3.366-13.03,11.805-17.414c2.493,0.391,5.183,1.161,8.71,0.533c-0.053-0.335-0.105-0.67-0.064-1.051
		c-2.127-1.545-6.875-2.569-7.057-1.993c-3.836-0.658-7.72-1.41-10.446-1.558c-0.021-1.435,1.297-2.84,1.224-4.369
		c5.697-11.752-5.47-22.811,14.996-16.342c10.59,4.854,21.652,10.185,14.316,24.115c-1.554,4.046-9.707,9.587-22.442,15.877
		c-7.289,7.762,3.619,10.061,8.794,13.995C521.297,221.152,517.953,222.747,516.436,223.54"/>
	<path id="path11" fill="#231F20" d="M530.271,184.799c-0.195-0.146-0.344-0.188-0.39-0.283c0.191-9.133-14.21-12.972-10.253-16.953
		C522.13,171.684,536.825,179.102,530.271,184.799"/>
	<path id="path13" fill="#FFFFFF" d="M482.564,206.331c-2.244,0.083-3.213-0.619-4.225-1.176
		c-0.854,0.442-10.906,8.678-11.062,1.891l-0.476,0.249c-2.363-1.54-1.8-2.077-4.046-1.992c-6.24,10.469-13.333,0.064-17.162-0.113
		c-10.293,8.235-15.366-4.543-18.991-4.104c-10.988,7.055-10.023-7.684-15.75-7.595c-1.729,5.475-11.58-0.968-11.678-7.181
		c-2.422-4.658-11.338,2.531-11.527-9.666l-11.108-7.476c1.729-5.478-5.981-3.397-7.968-8.147c0.424-0.34,0.945-0.729,1.514-1.024
		c1.087-9.959-3.703-19.876-4.713-29.469c0.146,0.045,0.384,0.043,0.67,0.134c-1.822-3.509,2.568-13.14-0.495-13.473
		c-5.565,10.843-2.901,25.475-0.14,37.048c0.62,6.062-3.346,6.312-3.956,10.004c-6.011,3.125-15.636,3.606-16.935,11.448
		c-5.103,0.842-15.583-6.114-15.35,5.688c-4.269,2.216-2.064,2.518-4.645,5.665c-0.052-0.094-5.299,0.464-5.78,0.233
		c-3.295,3.396-10.164,13.353-15.224,4.779c0.291-2.922-3.149-2.82-0.05-6.355c-0.104-6.479-9.831,0.133-4.325-10.643
		c5.099-4.093-5.175-6.945,1.34-15.27c-0.557-1.998-1.575-3.034-1.926-3.938c1.92-2.563,3.571-7.033,6.057-10.133
		c5.397,8.999-4.656,13.983,3.189,20.745c-2.9,3.917-4.277,7.524,0.18,11.47c-11.486,14.277,19.535,17.43,9.285-2.296
		c-0.335,0.052-0.668,0.105-0.904,0.111c-1.278,4.033,3.012,9.271-4.256,12.207c-4.438-2.513-6.572-7.787-0.819-9.69
		c-0.198-0.378-0.396-0.759-0.449-1.094c-8.503-2.686,1.189-9.527,0.198-11.904c-7.025-3.092-1.402-10.113-1.536-15.701
		c-3.801-10.792-1.014-3.57-0.391-9.795c17.555-32.968-21.46-39.671-19.741-12.261c-0.094,0.048-0.189,0.099-0.234,0.241
		c-3.267-2.372-0.807-6.418-1.854-8.432c0.423-12.624,8.328-17.815,20.201-16.52c0.051,0.097,0.098,0.19,0.146,0.284
		c11.207-1.847,11.89,20.562,7.735,26.934c-0.387,2.971,1.018,10.071-1.293,12.353c0.096-0.048,0.24-0.001,0.479-0.005
		c-0.329,0.292-1.508,1.265-0.357,1.631l5.885,21.751c0.069,1.291,0.136,2.581,0.35,3.916c0.043-0.144,0.091-0.288,0.185-0.337
		c1.794,1.596,3.455,0.854,6.238,4.587c0.379-0.197,0.854-0.444,1.377-0.595c-0.113-4.157-4.285-5.002-5.699-6.797
		c4.316-5.943,3.137-5.709,9.05-5.061c2.569-3.866-4.833-3.511,2.911-9.703c-0.247-0.475-0.494-0.949-0.598-1.378
		c-4.525,0.789-5.783,3.008-5.527,7.209c-1.991,1.033-3.797,1.731-5.116,2.901c-6.358-12.234-8.265-8.717-4.521-23.305
		c-2.909-11.857,8.938-30.779-9.363-36.567c-0.245-0.234-0.438-0.375-0.535-0.561c-12.999,0.249-16.503-0.702-22.939,12.64
		c-3.099,9.798,1.316,29.184,15.732,24.944c10.811-5.616,3.298-12.191,1.87-17.954c-6.504-0.231-7.679,3.993-10.241,8.334
		c-10.828-7.862,18.043-29.247,17.905-1.235c-1.941,7.391-2.311,8.305-2.88,8.361c-0.352,2.11-10.851,15.514-10.985,9.92
		c-0.337-0.184-0.676-0.371-0.917-0.606c-7.585,3.943-7.246-1.894-13.624-0.025c-0.886-1.708-1.39-3.375-1.692-4.42
		c-8.502-2.687-4.44-2.75-6.045-7.698c-10.575-1.908-1.646-27.638,2.521-31.915c3.464-4.05,14.212-13.712,18.847-9.24
		c2.866-3.374,6.338-2.87,11.441-0.46c-0.074,0.945,0.148,3.992,0.652,4.96c0.044-0.146,0.091-0.288,0.229-0.482
		c2.846,1.533,3.048,2.15,7.482,1.65c2.364,4.553,5.635,2.735,7.059,8.017c0.639,1.233,1.941,2.121,3.448,3.628
		c-4.876,15.418,18.452,9.322,7.727-1.125c-4.037-1.274-7.703-0.453-9.281-3.49c0.321-1.007,5.374-7.318,6.613-7.721
		c3.662,2.251,5.789,7.713,9.737,10.91c0.189-0.1,0.428-0.102,0.763-0.158c0.243,0.234,0.533,0.566,0.922,0.848
		c-0.567,0.783,1.597,5.735,2.105,6.374c1.878,0.832,4.464,1.172,5.666,4.643c-0.237,0.001-0.333,0.054-0.431,0.101
		c0.1,0.191,0.247,0.475,0.489,0.71c-1.021,3.223-1.05,3.164,0.76,5.868c-0.216,1.438-0.493,2.062-0.286,3.16
		c-0.142-0.047-0.285-0.092-0.383-0.043c0.889,1.708-1.915,2.803-2.608,4.247c3.548,6.828-2.62,9.793-0.354,14.154
		c-0.926,0.956-1.022,2.918-0.036,3.872c-1.044,0.544-1.835,5.047-2.151,6.057c-1.05,0.066-2.007,0.078-2.913,0.189
		c0.887,1.699,0.691,2.168,2.395,3.213l8.463-42.82c-9.25-19.883-29.187-35.539-51.103-33.905c-0.241-0.234-0.34-0.425-0.438-0.615
		c-0.14,0.192-0.233,0.482-0.229,0.722c-23.512,0.414-41.284,25.545-34.256,47.187c-3.803,1.251-9.695,6.604-5.778,9.503
		c2.675-1.388,0.626-7.295,6.538-6.648c5.717,11.001,11.857,15.398,24.755,17.97c0.593,1.138,0.478,2.089,0.914,3.38
		c-5.88,3.056-18.897,14.395-24.236,9.219c-4.134,1.547-1.562,7.195-10.951,5.812c-0.653-1.255-0.237-2.035-1.198-3.231
		c-5.311,2.761-6.803,8.232-14.704,4.39c-3.412,1.772-3.945,4.458-7.79,6.093c-3.901-2.148-4.305,10.407-13.87,5.762
		c-2.263,1.18-3.739,14.32-10.636,7.576c-6.638,3.448-5.807,7.594-14.665,3.524l-11.859,2.909c-0.432-0.137-0.815-0.178-1.198-0.222
		c-7.718,14.009-15.257-1.03-17.558,2.14l-13.162,2.022c-4.073,5.607-8.851-0.58-11.014-1.265c-5.084,2.037-5.443,0.422-7.685-2.508
		c0.956-3.029-10.174,0.587-9.421-6.31l-2.164-0.921c-5.437,0.898-6.589-2.48-8.454-5.605c-4.748-1.024-4.213-0.459-6.415-3.77
		c0.09-0.29,0.326-0.531,0.561-0.773c-1.625-3.129-5.094-4.703-6.974-8.783l-5.453-15.594c2.051-6.485,5.312-2.759,0.351-11.382
		l5.038-7.917c-3.53-2.621-1.027-7.539,2.681-8.981c0.576,0.182,1.429-0.261,2.521-0.708c0.037-0.621,0.217-1.438-0.168-1.717
		c-0.128-8.124,5.575-4.103,11.11-7.818c1.138-3.607,3.766-3.646,7.426-1.937c3.7-1.923,6.057-4.108,9.896,0.041
		c4.979,0.541,7.444-2.183,11.124,3.974c6.448-3.351,6.57,5.738,12.653,6.554c2.313,1.206,8.162,11.534,8.5,14.971
		c-4.501,5.472,2.39,8.997-5.967,12.616c-0.042,0.385-0.084,0.768-0.125,1.148c-0.188,0.102-0.285,0.148-0.381,0.197
		c-4.202-5.697,1.71-5.365,2.208-9.938c-4.077,2.119-3.908-8.448-3.822-9.215c-0.529-0.325-1.061-0.653-1.498-1.027
		c0.296,0.568,0.024,1.433-0.353,1.868c-3.884-1.228-3.188-10.475-6.905-7.491c-5.849,1.955-3.552-4.056-6.117-5.976
		c-0.936,0.59-3.133,1.441-3.113,2.58c-5.425,1.615-10.006-18.284-17.369-3.016c-2.636-0.439-5.898-1.152-5.857,1.476
		c-3.795,1.97-2.254,2.615-2.194,6.44c-3.225,1.673-5.779,0.473-6.959,4.217c0.143,0.045,0.335,0.187,0.527,0.327
		c-2.097,3.378-0.934,4.46,1.278,8.248c-2.088,1.086-4.052,0.78-5.44,0.661c-2.447,2.473,0.58,9.693,2.492,12.676
		c0.096-0.051,0.527,0.088,0.535,0.564l-2.09,0.844l9.062,13.963c0.375-0.438,0.56-0.773,1.942-0.894
		c0.247,0.478,0.543,1.043,0.935,1.563c0.189-0.098,0.378-0.196,0.663-0.345c0.371,1.556,1.99,2.836,0.739,4.433
		c-0.239,0.006-0.478,0.009-0.622-0.034c-0.276,0.622-0.554,1.25-0.833,1.874c0.049,0.096,0.148,0.283,0.247,0.474
		c3.304,0.331,7.481-4.608,11.52,3.168c-1.412,7.478,7.338-4.653,11.569,6.034c0.142,0.043,0.286,0.091,0.48,0.229
		c6.062-3.63,4.853-1.556,10.314,2.472c5.451-3.193,6.856-4.888,12.906,0.036c2.587,0.104,3.198-6.598,11.844-3.862
		c0.681,0.61,1.865,3.125,4.046,1.991c1.698-7.629,6.023-9.271,13.034-4.125c3.738-1.94,2.917-12.348,10.939-6.524
		c3.606-1.876,0.834-10.912,9.705-9.138c0.394,0.757,1.399,0.839,2.874,0.432c-0.056-0.572-0.017-1.195,0.024-1.816
		c-10.512-2.606-8.824,1.573-13.705,7.24c-8.895-0.195-5.889,2.579-10.545,7.286c-10.051-6.821-8.588,1.091-14.184,3.996
		l-14.073,1.896c-5.883-3.445-7.304-2.707-12.529-0.477c-1.775-3.413-8.438-4.646-10.04-3.093c-1.598-1.455-6.089-4.302-6.315-3.58
		l-3.643-0.521l-0.419,0.582c-3.75-4.436-4.964-5.609-9.26-5.306c-2.021-3.889-2.28-5.08-4.761-7.764
		c0.578-4.354,0.224-5.202-2.232-8.476c0.045-0.144,0.09-0.289,0.184-0.338c-0.333,0.053-0.523,0.151-0.713,0.249
		c-0.533-0.564-0.973-1.179-1.365-1.698c0.146,0.045,0.289,0.094,0.529,0.086c-0.006-0.235-0.008-0.476,0.037-0.621
		c4.08-2.117,3.571-7.033,2.167-11.121c4.933-2.564,4.772-3.803,4.875-9.396c-1.562-5.092,5.517-1.904,5.93-9.221
		c1.609-0.841,4.441-0.025,7.287-1.502c2.739,0.866,3.801,3.563,8.734,1c2.505,4.358,1.851,5.182,8.052,4.368
		c0.869,3.522,1.349,6.768,5.859,7.795c-0.583,2.591-0.455,4.694,1.97,6.807c-1.733,5.476-3.129,6.082,1.22,12.131
		c-2.761,3.724-4.009,3.408-7.866,4.329c-3.193,6.837-5.807,4.823-10.584,4.897c-3.46,10.952-13.387-6.293-14.172-7.812
		c3.876-2.736,11.377-2.9,17.421-7.727L129.415,138.6c-7.966,4.138-5.21,15.471-7.455,18.563
		c8.296,23.151,23.111,26.173,48.574,22.093c25.875-11.395,46.297-35.134,67.947-53.731c5.103-3.857,49.916-39.304,49.805-43.221
		c7.856-5.047,10.459-15.794,17.015-21.49c2.188-6.918,9.071-13.141,11.967-20.55c-8.755-16.844,2.447-25.917,20.94-24.365
		c2.021,3.888-1.374,14.5-4.085,16.933c2.532,4.88,9.082-8.118,8.571-11.439c-0.525-7.644,23.294-26.434,33.597-3.125
		c-0.113,1.865,0.971,6.963-0.87,8.522c0.063,0.81-0.188,0.471,0.879,1.363c1.013-1.25,2.854-5.815,3.361-6.078
		c1.865,1.102,6.008,2.182,6.884,3.872c-0.226,0.719-2.173,1.611-2.269,1.66c-7.493-2.368-8.208,9.931-14.284,9.593
		c-1-0.698-1.512-2.541-0.725-3.478c-3.153-6.071-4.172,11.932,6.312,3.596c2.282-2.303,4.458-8.83,8.924-7.419
		c11.171-3.997-2.521-8.567-5.617-10.812c-0.512-2.142-0.927-4.333-1.345-6.527c0.799-1.018,12.653-3.925,15.652-4.882
		c25.927-4.8,45.685,2.398,62.271,23.887c4.458,3.947,10.433,6.864,12.683,13.521c-7.674,10.493-17.145,43.718-35.597,40.658
		c-7.872,4.091-37.641-10.554-39.381-8.803c5.124,9.864,12.547,19.978,17.985,31.604c-0.188,0.098,10.394,22.782,12.152,25.24
		c-0.095,0.05-0.142,0.194-0.187,0.339c-0.144-0.045-0.288-0.092-0.435-0.137c0.155,0.523,2.854,5.262,3.486,5.774
		c-0.333,0.056-0.574,0.06-0.763,0.159c3.948,5.051,5.972,12.191,10.075,17.765c-0.098,0.052-0.192,0.103-0.235,0.243
		c-4.954-1.88-11.683-10.428-14.594-13.251c-5.329,1.868,2.296,7.629,3.839,10.17c-0.141,0.192-0.188,0.338-0.186,0.575
		c1.004-0.157,12.568,11.9,18.619,13.81c8.896,6.459,25.315,14.187,34.583,1.424c0.55-1.49,4.202-21.814,1.88-23.499
		c-0.236-2.415-5.029-11.923-4.787-12.69c-5.043-1.592-9.371-9.459-15.201-0.049c-5.816,13.139,6.555,21.648,14.608,29.503
		c-1.607,4.09-5.78,6.258-9.215,6.838c-3.792-7.305-11.733-13.776-10.28-21.637c-0.804-2.474-1.678-3.464-2.608-5.028
		c0.784-1.731,1.082-4.174,0.964-5.56c0.095-0.049,0.239-0.004,0.479-0.008c-0.888-1.706-1.725-3.317-2.563-4.931
		c0.938-1.209,1.317-4.417,0.915-5.895c3.603-1.87,4.266-2.215,5.204-6.438c1.287-0.306,4.055-0.539,6.862-1.396
		c1.382,2.658,3.394,3.055,7.072,2.948c1.346,3.518,1.853,5.419,7.314,6.195c3.035,4.687,7.335,10.642,12.044,15.302l-0.857,3.455
		c-4.246,3.413-1.512,7.289,0.28,11.659c-1.616,3.611-1.438,6.044-0.035,10.134c-4.289,3.795-4.948,7.629-3.906,12.871
		c-3.222,2.155-6.596,6.317-4.675,10.014c0.525-0.15,1.046-0.301,1.62-0.358c0.576-5.842,5.204-6.438,6.164-9.464
		c-4.389-8.439,3.349-8.848,3.852-13.443c-5.041-1.596-0.043-8.892,0.308-11.001c-8.524-4.116,0.999-9.43-1.886-13.592
		c0.33-0.292,0.662-0.584,1.132-0.831c-0.002-0.237-0.003-0.479,0.087-0.765c-6.774-2.141-3.887-7.014-5.197-8.379
		c-8.352-2.166-4.039-4.527-5.862-8.035c-9.545,0.868-5.643-3.21-8.229-6.564c-3.86,0.683-4.902,1.223-6.844-0.657
		c-3.721-8.547-3.027,2.052-10.308-1.992c-0.38,0.198-0.664,0.345-0.949,0.492c-0.639,2.017-0.557,4.264-1.096,6.469
		c-1.849,0.961-3.102,0.598-4.559,1.891c0.258,1.19,0.548,4.531-0.236,6.264l-0.628-0.277c-0.178,0.815-0.305,1.726-0.437,2.635
		c2.596,0.821,2.033,10.867,4.253,15.133c-0.222,1.2-0.059,2.441-0.898,3.84c0.026,1.674,7.472,6.959,4.419,10.59
		c0,0,7.917,4.8,5.799,6.987c-0.625-0.278-0.625-0.278-2.153-0.206c-6.053-1.916-3.887-7.017-8.143-10.104
		c-2.938,1.528-3.194-8.938-3.294-9.128c-8.775-4.833-2.341-9.14-4.588-12.069c-4.224-4.187-3.257-3.485-1.814-9.053
		c0.569-0.297,1.234-0.64,1.898-0.985c0.714-6.273-5.836-6.363,3.268-11.092c-0.705-8.549,1.183-3.986,6.396-6.697
		c-0.027-1.91-0.171-1.717,0.952-3.264c-0.383-0.042-0.671-0.133-0.959-0.224c0.805-3.552,4.389-6.855,6.821-1.015
		c4.633-0.118,3.229-7.46,8.97,1.962c2.514,1.829,2.938-7.548,7.475,1.178c2.706,1.964,5.872-3.537,7.638,5.424
		c0.479,0.229,1.106,0.507,1.733,0.784c0.469-0.483,0.989-0.878,1.508-1.266c1.128,1.703,4.811,5.087,2.184,8.142
		c0.008,0.474,0.062,1.046,0.216,1.572c0.434,0.138,0.915,0.368,1.396,0.6l4.134,7.487c-0.425,0.581-0.747,1.112-1.025,1.737
		c2.628,2.971,8.146,4.319,5.296,11.581c-2.447,2.718,3.163,3.774,2.914,9.325c-0.472,0.244-1.736,4.997-3.347,6.072
		c5.043,1.595,5.717,11.002,0.311,13.812c2.247,3.516,0.905,11.87-5.129,14.464c1.796,10.871-7.105,7.185-9.234,11.665
		C485.018,204.334,483.556,205.458,482.564,206.331"/>
	<path id="path15" fill="#231F20" d="M478.917,193.053c-5.678-2.348-11.498-4.744-13.869,2.749c-0.521,0.15-1.044,0.304-1.422,0.5
		c-2.585-3.114-12.554-7.931-12.414-2.1c-0.715,0.251-1.379,0.595-1.947,0.89c-0.146-0.283-0.296-0.57-0.395-0.759
		c3.062-5.927,9.832-7.036,15.035-1.431C469.24,185.557,482.446,189.413,478.917,193.053"/>
	<path id="path17" fill="#231F20" d="M446.715,194.129c-0.477,0.007-0.861-0.037-1.195,0.018c-4.039-7.776-9.853-9.693-16.477-5.289
		c-3.689-3.623-1.929-10.438-11.387-6.848c-0.047,0.143-0.092,0.288-0.09,0.525c-0.708,0.488-0.708,0.488-1.521,0.551
		c-4.267-6.816-3.261-9.988-11.395-7.328c-1.298-0.41-2.907-8.607-5.808-10.713c-0.283,0.148-0.475,0.245-0.665,0.344
		c-2.037-2.07-4.155,0.114-5.341,0.852c-2.16-0.686-2.639-3.69-3.082-4.542c-5.534-5.554-5.472-1.493-8.698-3.07
		c-0.1-6.45-4.188-8.06-8.239-7.278c-0.292-0.33-0.488-0.709-0.638-0.994c4.353-5.997,8.929,2.348,10.898,6.14
		c4.528-0.786,7.249,1.892,9.996,6.489c6.758-1.828,11.022,1.978,12.722,9.646c4.709-1.361,9.193,1.004,11.193,6.71
		c4.801-1.651,10.757,0.071,13.14,5.815C437.146,184.285,445.592,183.389,446.715,194.129"/>
	<path id="path19" fill="#FFFFFF" d="M474.931,158.268c-6.915-2.186-14.054-15.458-9.491-20.118
		c0.412-1.296,1.828-2.516,3.926-2.883c6.264,3.251,8.001,16.559,5.906,23.189C475.125,158.409,474.984,158.364,474.931,158.268"/>
	<path id="path21" fill="#FFFFFF" d="M219.143,268.176c-3.329,1.008-6.113,0.284-7.589,0.69c-2.915,9.224-10.969,4.616-15.155,5.827
		c-4.037,4.986-6.912,4.316-11.647,4.246c-6.674,10.334-11.034,0.554-15.43,0.668c-5.99,8.174-10.608-0.022-13.494-0.935
		c-5.406,2.808-5.541,0.229-8.56-0.248c-7.268,2.931-5.911-2.108-9.657-3.294c-4.91,0.986-6.127-0.432-8.083-3.266
		c-5.127-0.832-11.205-4.415-13.387-3.283c-4.78,0.075-4.966-2.838-7.334-4.379c-6.893,2.497-13.557-4.997-17.607-7.23
		c-12.153-0.91-1.443-6.717,2.376-0.992c5.894,0.912,4.498-2.7,8.998,3.875c2.964-0.096,4.609-1.793,8.477,1.017
		c2.069,3.981,2.022,0.875,6.987,0.464c-0.047,0.143-0.092,0.29-0.043,0.384c3.93,0.608,3.159,3.296,6.197,4.97
		c4.739-2.463,7.007-1.111,9.9,3.527c3.458,1.092,7.398-3.845,12.804,2.619c2.484-0.084,9.262-6.74,13.255,0.941
		c1.597-8.057,8.786-0.711,12.614-0.293c2.192-3.666,2.873-5.827,7.478-7.858c3.749,1.185,4.153,5.672,7.111-0.687
		c4.743-5.473,8.107-1.319,11.934-4.153c0.53-8.943,8.729-4.293,12.087-6.64c-0.602-1.854-0.602-1.854-0.675-3.383
		c1.509-1.269,2.11-2.662,5.16-3.283c1.146,0.834,3.986,0.703,5.412,0.683c1.255-5.472,0.194-6.123,5.446-9.455
		c1.152,0.362,7.934-0.028,4.598-2.51c0.279-6.647,2.404-5.343,7.618-8.054c0.792-7.518-1.586-12.785,9.044-14.813
		c1.3-2.364,1.6-19.864,11.473-12.228c3.601,1.141,0.923-23.482,11.613-12.416c1.8-0.937,3.351-21.131,12.779-11.1
		c0.333-0.051,0.668-0.104,1.095-0.206c4.213,6.484,1.834,19.521-7.532,16.562c-4.191-3.776-1.751,8.164-3.656,7.562
		c-2.461,7.779-9.207,4.299-11.755,6.346c0.715,6.25-0.215,7.701-4.989,11.265c-1.82-0.257-2.545-0.726-3.397-0.284
		c-0.299,5.456,10.482,0.938,11.1-8.534c6.654-2.494,12.522-3.256,12.601-13.532c0.854-0.445,9.892-0.203,9.836-3.787
		c5.121-2.66,1.23-19.187-3.514-19.974c-0.188,0.337-0.277,0.626-0.316,1.011c-9.31-5.162-11.345,5.291-13.03,10.619
		c-8.38-4.074-11.499,7.544-11.755,12.614c-8.654-0.2-13.424,6.614-12.88,13.918c-7.881,3.373-9.789,6.651-8.801,14.812
		c-10.055,5.224-4.083,4.894-8.295,10.692c-5.603-0.58-8.789,3.483-9.194,8.269c-2.653,1.379-12.089,0.143-11.083,6.483
		c-4.755,1.511-10.624,2.269-11.452,7.636c-5.879-0.196-10.069,0.775-11.757,6.112c-5.495,0.084-4.063-3.188-9.982,0.488
		c-0.139,0.19-3.321,4.735-3.797,4.744c-7.191-4.574-6.58-2.003-12.338-0.335c-2.774-3.256-7.918-2.029-10.399-1.702
		c0.245,0.475-0.982,1.354-1.268,1.502c-3.549-2.578-8.132-4.003-12.177-2.347c-2.217-4.268-7.715-4.179-10.432-3.852
		c-2.119-4.078-8.435-4.409-11.237-3.314c-3.484-2.768-6.317-3.582-9.468-3.148c-4.95-4.896-15.409-7.409-20.42-3.845
		c-1.873-0.591-1.79-1.357-2.372-2.019c-8.459,0.182-7.711-0.689-13.587,2.364c-2.186-2.117-17.375,10.832-17.375,10.832
		c-18.252,9.487-31.413,9.701-44.202-11.354c-9.017-17.354-0.432-59.869,22.704-46.242c4.403,2.596,7.334,13.651,2.29,18.082
		c-2.589-9.617-3.409-19.428-16.378-11.004c-13.563,13.068-7.244,38.09,8.809,46.969c14.771,2.928,22.718,0.844,30.873-12.906
		c16.992-13.652,23.622,3.741,39.67-0.141c-0.148-0.284-0.247-0.474-0.249-0.711c-8.869-1.535-23.381-9.532-31.221-6.543
		c-0.146-0.284-0.245-0.475-0.249-0.713c10.41-6.854,19.738-3.031,32.074,0.073c0.049,0.097,0.147,0.284,0.247,0.474
		c8.679,1.875,21.115,8.42,31.39,8.262c15.497,3.867,35.527,0.929,52.161-2.297l27.684-17.875
		c14.127-10.594,24.222-28.483,35.572-42.571c6.768-10.381,6.053-7.358,20.104-10.444c7.32,0.411,15.589-5.695,23.463-6.533
		c1.296-1.979,5.088-5.267,7.116-6.469c-0.232,9.517-1.474,15.702,2.391,24.534c-1.692,1.841,0.002,6.261,0.191,9.173
		c-2.401,11.604-7.314,9.103-14.925,11.608c-0.729,2.307,0.81,18.249-8.848,15.194c-1.708-2.363-1.652-1.791-3.22-1.336
		c0.752,6.221,1.512,14.405-7.111,16.219c-11.524-0.394-6.188,10.804-17.735,12.227c-0.191-0.14-0.339-0.185-0.386-0.279
		c-6.07,3.151-5.124,8.683-13.257,11.34C226.201,258.844,221.502,266.95,219.143,268.176"/>
	<path id="path23" fill="#FFFFFF" d="M353.407,181.67c-18.052,0.95,2.337-21.691,6.552-8.945
		C359.077,177.52,357.294,179.648,353.407,181.67"/>
	<path id="path25" fill="#FFFFFF" d="M340.547,184.739c-20.088,5.379-2.797-19.984,3.391-3.449c-0.798,1.019-1.5,1.983-2.201,2.952
		C341.307,184.343,340.928,184.541,340.547,184.739"/>
	<path id="path27" fill="#FFFFFF" d="M127.577,275.527c-0.194-0.142-0.387-0.279-0.529-0.325c-0.004-0.243-0.007-0.478-0.011-0.72
		C127.185,274.77,127.381,275.148,127.577,275.527"/>
	<path id="path29" fill="#231F20" d="M340.495,150.562c-10.681,1.696-9.274-9.272-0.899-11.698
		c-0.099-0.189-0.051-0.333-0.006-0.477c-9.658-3.053-5.79-12.53-3.516-4.68c4.031,4.288,5.633-0.517,5.141-4.477
		c-0.334,0.054-0.522,0.149-0.714,0.25c-0.488-0.708-0.928-1.324-1.366-1.939c-5.363-0.584-5.688,0.185-7.436-4.805
		c0.513-0.632-0.11-0.908,1.8-0.94c0.736,1.187,1.47,2.368,2.303,3.502c3.687,0.372,5.5-2.857,2.727-6.112
		c-0.574,0.056-1.146,0.115-1.723,0.168c-0.149-0.522-0.208-1.094-0.263-1.667c3.698-1.923,6.189,1.481,5.684,5.838
		c-2.214,5.246,6.273,6.978-2.067,14.565c0.1,0.188,0.245,0.474,0.394,0.758C346.3,139.479,345.806,147.804,340.495,150.562"/>
	<path id="path31" fill="#FFFFFF" d="M339.836,148.134c-8.232,2.472-2.288-5.795-2.548-6.985
		C340.783,141.38,346.094,144.884,339.836,148.134"/>
	<path id="path33" fill="#FFFFFF" d="M351.664,128.018c0.089-0.528,0.177-1.055,0.312-1.487
		C352.418,127.386,352.331,127.911,351.664,128.018"/>
	<path id="path35" fill="#FFFFFF" d="M301.439,134.967c-6.518,2.058-8.129-0.114-11.164-4.559c0.143-0.196,0.427-0.343,0.713-0.49
		c3.824,3.192,6.266-5.787,10.246-8.095C306.604,122.886,305.611,132.799,301.439,134.967"/>
	<path id="path37" fill="#FFFFFF" d="M333.659,115.035c-2.115,1.572-3.772,1.899-5.83-2.196c-1.346-2.67,1.115-4.649,3.604-4.772
		C333.453,107.969,337.156,112.445,333.659,115.035"/>
	<path id="path39" fill="#231F20" d="M240.295,159.148c-1.442-0.457-1.971-0.782-2.973-0.623c-1.823-3.508-8.134-0.028-9.363,0.611
		c-1.594,5.506-3.21,5.471-7.062,6.719c-0.733-2.336,2.774-1.545,3.727-3.262c3.216-5.164,2.685-8.742,11.204-7.869
		c0.245,0.473,0.54,0.803,1.837,1.213c3.825-5.27-0.294-13.375,12.205-11.278c0.568-0.294,5.117-11.936,9.548-6.889
		c-0.821,2.593-9.23,2.868-6.47,8.177c0.097-0.049,0.239-0.002,0.385,0.043c-0.753,0.872-0.935,1.447-2.272,1.421
		C238.208,141.687,240.683,159.432,240.295,159.148"/>
	<path id="path41" fill="#FFFFFF" d="M323.238,98.346c-0.907,0.11-1.812,0.218-2.625,0.281c-2.09-2.406-3.406-4.011,0.292-5.933
		c0.963,0.462,1.926,0.926,2.891,1.39c-0.1-0.19-0.102-0.429-0.108-0.668c0.146,0.045,0.339,0.186,0.629,0.275
		c-0.147-0.284-0.3-0.568-0.443-0.852c-0.57,0.296-0.533-0.325-0.586-0.657c0.862,0.031,1.823,0.495,2.028,1.352
		c-0.284,0.146-0.52,0.39-0.755,0.633c0.63,0.516,1.354,0.982,2.078,1.451C326.088,97.347,324.091,97.902,323.238,98.346"/>
	<path id="path43" fill="#231F20" d="M392.809,56.775c-1.855-3.499,1.979-8.013-5.503-9.665c3.013-2.094,4.824-1.682,6.601,0.184
		c5.229-7.205-4.992-15.984-11.775-1.107c-2.188,2.461-2.01,9.189-1.452,11.112c-7.727-1.691,0.8-14.889,3.048-19.167
		C399.304,25.7,402.382,48.308,392.809,56.775"/>
	<path id="path45" fill="#231F20" d="M335.051,86.31c-4.249-2.613-3.594-9.697-3.986-13.467c-2.749,1.431-4.923,6.29-6.704,8.42
		c-0.48-0.229-0.964-0.462-1.305-0.648c2.123-4.956,8.704-18.25,13.38-18.992c0.293,0.567-0.894,22.623-1.05,24.873
		C335.243,86.448,335.1,86.403,335.051,86.31"/>
	<path id="path47" fill="#FFFFFF" d="M314.917,94.844c-11.017,1.749-2.396-12.489,2.779-2.529
		C316.706,93.188,315.81,94.016,314.917,94.844"/>
	<path id="path49" fill="#FFFFFF" d="M224.46,130.524c-2.451-0.774-1.933-1.405-2.72-2.684c-4.217-0.698-5.934,2.723-9.081,0.144
		c-3.302-6.354-6.215-0.144-10.369-6.052c5.503-5.632,7.138-17.321,13.802-6.812c0.726,0.466,2.151-0.034,2.09-0.846
		c0.759-0.394,0.945-0.731,3.055-0.382c-0.047,0.143-0.092,0.286-0.043,0.382c1.803-0.937,3.725,2.763,4.762,4.755
		c1.151,0.365,9.018-6.977,11.917,1.153C232.958,123.698,228.673,127.972,224.46,130.524"/>
	<path id="path51" fill="#FFFFFF" d="M78.858,204.251c-18.056,3.722-34.629-29.097-21.018-39.062
		c0.043-0.381,0.043-0.381-2.067-3.744c0.135-0.67,0.318-1.246,0.502-1.82c0.092-0.052,0.235-0.007,0.381,0.039
		c-0.021-1.197,0.367-0.914,1.691-1.844c1.68,0.453,1.448,0.935,3.921,0.13c1.382-3.367,3.519-7.367,7.664-2.173
		c0.569-0.299,1.186-0.498,1.899-0.747c2.003-6.341,10.697,5.519,12.322,5.401c1.059-2.6,3.293-3.396,6.792-2.689
		c-0.46,4.215,1.226,8.156,3.061,12.382c-6.544,3.399-17.633-2.642-22.181-6.299c-0.857-2.808-0.857-2.808-1.545-3.896
		c-2.346-0.347-4.184,4.462-4.838,5.286c-2.196,0.18-2.627,0.279-3.331,1.008c1.094,2.803,3.043,8.172,0.46,11.321
		c0.731,3.957,1.56,7.862,2.433,11.864c3,2.295,6.001,4.593,9.048,6.98c5.879-3.054,1.772-9.107,3.55-11.479
		c-0.643-1.233,0.624-2.973,2.149-3.045C85.961,187.554,86.23,198.734,78.858,204.251"/>
	<path id="path53" fill="#FFFFFF" d="M240.423,118.134c-0.006-0.479,0.033-0.859,0.076-1.246c-0.34-0.188-0.675-0.372-0.965-0.46
		c0.3,0.806,0.3,0.806,0.114,1.146c-1.44-0.457-1.639-1.074-2.368-1.779c0.141-0.194,0.281-0.389,0.513-0.632
		c-0.492-0.947-0.737-1.422-1.557-1.839c-0.234,0.245-0.47,0.486-0.612,0.679c-0.239,0.005-0.382-0.042-0.527-0.088
		c-0.23,0.242-0.374,0.435-0.515,0.631c-4.501-0.551-4.87,0.363-7.623,1.553c-3.076-4.064-6.103-5.021-10.146-3.762
		c-0.925-1.088-1.706-2.123-2.486-3.165c-1.912,0.03-3.07-0.575-4.548-0.408c-0.242-0.232-0.436-0.375-0.533-0.562
		c0.526-12.199-3.932-19.156-13.55-25.842c-1.684-0.69-6.352-2.722-6.771-2.142c-13.118-1.374-18.64,6.313-28.255,11.911
		c-1.135-2.18-0.211-4.344-0.1-6.211c0.146,0.045,0.292,0.09,0.53,0.088c-4.535-8.727,14.799-16.483,21.73-16.591
		c6.948,1.09,15.776,3.242,21.805,9.75c0.758-0.396,5.316,3.738,6.724,5.054c15.572,11.662,22.801,18.621,43.824,21.066
		c0.741,1.425-11.786,10.463-13.161,11.297c-0.045,0.143-0.092,0.288-0.086,0.528C241.368,117.403,240.848,117.791,240.423,118.134"
		/>
	<path id="path55" fill="#FFFFFF" d="M113.68,168.814c-0.618,0.201-1.141,0.354-1.614,0.599c-0.148-0.284-0.249-0.476-0.25-0.713
		c0.045-0.146,0.187-0.337,0.325-0.529c-0.192-0.142-0.243-0.235-0.292-0.331c-0.142,0.194-0.28,0.389-0.372,0.676
		c-1.702-1.886-3.445-3.388-4.235-4.904c0.096-0.051-0.574-3.195,0.083-4.018c4.035,1.274,7.166-0.352,7.677,8.055
		C114.481,168.037,114.056,168.378,113.68,168.814"/>
	<path id="path57" fill="#FFFFFF" d="M189.302,125.907c-0.427,0.104-0.763,0.155-1.098,0.21c-1.013-0.797-1.737-1.027-1.654-2.028
		c-0.524,0.148-1.246-0.079-1.68-0.455c-1.517,0.79-1.567,0.693-2.411,1.615c-5.408-0.202-4.211-3.233-6.229-3.869
		c-4.848,1.796-5.505-0.631-5.367-4.078c-4.45-3.226-3.829-0.178-5.303-6.036c3.221-1.674,6.192-4.302,10.087-5.844
		c13.733,19.242,28.539-9.047,4.085-7.902c-6.356,3.3-18.384,13.526-24.942,9.948c-20.402,0.365-34.738-23.743-14.798-35.668
		c1.572-0.215,9.208-1.05,10.685,1.792c-0.957,3.027-19.237-1.325-14.45,17.386c12.713,24.467,31.877-3.315,45.762-8.121
		c10.021-1.111,14.895,1.777,21.392,10.805c0.492,0.949,3.548,6.827,2.041,8.334c0.163,1.239,0.47,2.525,0.778,3.811
		c-0.892,1.062-1.365,1.551-1.727,2.701c4.189,8.064-8.468,8.738-7.498,12.69c-2.374,4.245-4.937-0.69-6.348,3.78
		C190.151,125.225,189.728,125.568,189.302,125.907"/>
	<path id="path59" fill="#231F20" d="M345.488,44.511c-1.646,1.573,9.954-19.216,4.426-22.771c-0.546,1.729-1.1,2.98-0.54,5.216
		c-0.286,0.149-0.568,0.299-0.709,0.49c-2.168-4.174-3.306-6.591,1.442-8.818C358.738,23.485,349.221,42.572,345.488,44.511"/>
	<path id="path61" fill="#FFFFFF" d="M134.355,152.049c-2.898,1.145-5.378,1.471-7.528,1.504
		c-4.682-9.006,17.013-24.738,15.094-6.877C139.229,148.916,136.96,150.577,134.355,152.049"/>
	<path id="path63" fill="#231F20" d="M365.753,29.043c-9.415,0.195-6.634-23.891,4.476-13.645
		C371.261,20.4,370.686,26.48,365.753,29.043"/>
	<path id="path65" fill="#FFFFFF" d="M111.658,155.657c-15.347-3.351,5.717-19.834,2.745-1.912
		C113.409,154.384,112.511,154.973,111.658,155.657"/>
	<path id="path67" fill="#FFFFFF" d="M187.467,109.398c-12.228-2.438-7.787-11.971,0.396-5.265
		C189.195,106.693,189.781,107.593,187.467,109.398"/>
	<path id="path69" fill="#FFFFFF" d="M116.245,143.155c-7.302,0.784-5.547-6.271-7.158-8.444c0.475-0.247,8.493-4.053,7.49-0.882
		C120.627,136.06,118.557,141.349,116.245,143.155"/>
	<path id="path71" fill="#FFFFFF" d="M90.947,154.732c-4.058,0.303-5.062,0.222-7.623,1.556c-1.267-1.511-2.483-2.927-3.701-4.345
		c-0.191,0.103-0.285,0.15-0.33,0.297c-4.462-0.936-6.231-0.858-9.03,0.234c-8.719-4.263-6.437,1.295-10.515,3.413
		c-8.355-2.641-4.544,8.865-6.454,8.896c-0.047,0.145,0.003,0.24,0.102,0.429c-0.99,0.877-0.99,0.877-1.375,0.834
		c-6.358-12.231,8.222-21.495,18.939-20.802c5.942,1.008,12.953,2.91,19.865,4.854C91.08,151.051,91.745,153.717,90.947,154.732"/>
	<path id="path73" fill="#FFFFFF" d="M121.698,131.168c-3.837-0.898-5.045-1.596-4.428-5.047c0.096-0.047,0.24-0.002,0.478-0.01
		c0.469-0.722,1.029-1.495,1.592-2.268c1.343,0.264,2.683,0.531,4.076,0.891c0.398,0.997,0.793,1.996,1.194,2.994
		c-0.466,0.723-0.888,1.304-0.829,2.116C123.022,130.238,122.312,130.729,121.698,131.168"/>
	<path id="path75" fill="#FFFFFF" d="M131.39,124.325c-9.151,1.624-5.746-9.902,1.39-2.891
		C132.847,122.726,132.677,124.018,131.39,124.325"/>
</g>
</svg>
